<svg xmlns="http://www.w3.org/2000/svg" width="512" height="512" viewBox="0 0 512 512" data-svgdocument="" id="_Sr2w0AXacCh753Wrxq3Nk" class="fl-svgdocument" x="0" y="0" style="overflow: visible;" xmlns:xlink="http://www.w3.org/1999/xlink"><defs id="_C-FtlsLRsd5ed3_RZwckV" transform="matrix(1.0421453304644164, 0, 0, 1.0421453304644164, -12.537372512998171, -10.689015662589162)"></defs><path id="_gpRvyhQdBaedOOcMgKC5y" d="M28.2,39.2c-0.1,5.1,0.2,5.4,5.4,4.8c2.2-0.2,4.4-0.2,6.6,0.1c3.5,0.6,7,0.5,10.3-1.4c1.7-1,3.6-1.7,5.5-2.3  c5.8-1.8,10.7,1.4,11.5,7.4c0.7,5.4-4.3,11.8-9.7,12.4c-0.8,0.1-1.6,0-2.4-0.1c-3.3-0.4-6.3,0.3-8.6,2.9c-3.8,4.4-8.5,5.5-14,3.9  c-0.7-0.2-1.4-0.3-2.2-0.3c-2.6-0.3-3.6,0.4-4.4,2.9c-0.3,1-0.5,2-0.9,3c-1.4,3.9-4.1,5.6-8.1,5.3c-3.4-0.3-7-3.5-7.6-6.7  c-0.7-3.6,1-6.6,4.6-8.4c1.5-0.7,3-1.1,4.6-1.4c3.2-0.7,3.9-1.4,4.4-4.6c0.1-0.7,0.3-1.4,0.3-2.2c0.3-4.1-0.6-5-4.6-5.1  c-4.5-0.1-8.4-1.2-11-5.3c-3.1-5.1-2-10.8,2.9-14.2c2.7-1.9,5.7-3.2,9.1-2.5C25.8,28.4,28.3,32.1,28.2,39.2z M19.3,8.3  c-1.7,2.9-0.9,5.8,0.7,8.4c2.3,3.8,5.8,5.8,9.8,7.1c2.5,0.8,3,1.5,2.5,4.1c-0.2,1.4-0.4,2.8-0.3,4.3c0.2,3.1,2.4,5.5,5.3,5.9  c2.8,0.3,5.7-1.4,6.7-4c1-2.7-0.1-5.7-2.7-7.4c-1.3-0.9-2.7-1.5-4.2-2c-1.8-0.6-2.3-1.8-1.8-3.5c0.6-2,1.3-3.9,1.8-6  c1-4.3-0.4-7.4-4.2-9.7c-1.8-1-3.7-1.5-5.5-1.4C23.7,4.1,21,5.3,19.3,8.3z M47.8,13.9c-2.6-0.1-5.1,2.3-5.1,4.8  c0,2.7,2.6,5.2,5.5,5.3c2.6,0,4.5-1.9,4.6-4.6C52.8,16.4,50.5,13.9,47.8,13.9z M60.8,88.6c0.4-2.2-0.8-3.9-3.2-4.8  c-1.4-0.5-2.9-0.4-4.4-0.3c-2.3,0.3-3.6-0.7-4.6-2.7c-1-2.2-2.1-4.4-3.8-6.2c-2.7-2.9-6.6-3.1-10.1-0.6c-3.1,2.3-3.9,6-1.7,9.3  c2.5,3.8,6.2,7.1,12,4.8c2.6-1,4.5-0.4,6,2c1.1,1.7,2.6,2.9,4.8,2.9C58.3,92.9,60.5,91,60.8,88.6z M56.9,76.6c3.5,0,6.5-3.3,6.5-7  c0-3-2.7-5.5-6.1-5.6c-3.4-0.1-6.5,3-6.5,6.5C50.8,73.9,53.5,76.6,56.9,76.6z M10.4,55.1c0,1.5,1.2,2.7,2.8,2.7  c1.4,0,2.6-1.2,2.6-2.6c0-1.6-1.2-2.9-2.7-2.9C11.6,52.3,10.4,53.6,10.4,55.1z M75.6,74.1c2.8,1.1,9-0.4,10.8-2.9  c2.7-3.9,3.9-8.2,1.4-12.7c-1.5-2.8-1.5-5.2,0.7-7.5c0.2-0.2,0.4-0.6,0.6-0.8c2.1-3.3,1.8-6.2-1.4-8.6c-2.2-1.7-2.9-3.5-2-6.1  c0.2-0.5,0.3-1,0.4-1.5c0.8-4.2-0.7-7.5-4.4-9.7c-1.2-0.7-2.6-1.3-3.9-1.7c-3.1-1-3.4-1.5-3.2-4.7c0.1-1.8,0.4-3.6,0-5.4  c-0.8-3.5-4.4-6.3-8-6.3c-3.2,0-7.2,3.4-7.7,6.6c-0.1,0.5,0,1.1,0.1,1.7c0.7,3.4,2.9,5.6,6,7c1.1,0.5,2.3,0.9,3.5,1.3  c1.6,0.5,2.5,1.6,2.3,3.3c0,0.5,0,0.9,0,1.4c-0.5,4.7,1.5,8.1,5.3,10.5c0.7,0.4,1.3,0.9,2,1.3c1.7,1,2.4,2.4,2,4.3  c-0.5,2.5-0.5,5,0.2,7.5c0.4,1.7-0.3,3.2-1.7,4.2c-1.4,1-2.8,2-4.3,2.8c-2.7,1.6-4,4-3.9,6.9C70.2,69.4,72.4,72.9,75.6,74.1z   M74.3,86.2c1.5,0,2.7-1.2,2.8-2.6c0-1.4-1.1-2.6-2.5-2.6c-1.5,0-2.7,1.2-2.7,2.8C72,85.3,72.9,86.2,74.3,86.2z M85.6,18.3  c2.9,0,5.4-2.2,5.4-4.8c0-2.9-3.3-6.1-6.2-6.2c-2.7-0.1-4.5,1.8-4.6,4.6C80.1,15.5,82.5,18.3,85.6,18.3z M10.4,90.4  c0.1,2,2.1,3.7,4.5,3.5c1-0.1,2-0.5,2.7-1.1c1.7-1.5,3.5-1.8,5.6-0.5c0.4,0.2,0.9,0.3,1.4,0.1c1.4-0.8,2.7-1.7,3.5-2.9  c0.7-1.2,0.5-2.5-0.6-3.4c-1.2-1-3.2-1.4-4.7-0.8c-0.7,0.3-1.3,0.7-1.9,1.1c-1,0.8-2.1,0.9-3.3,0.6c-0.9-0.2-1.7-0.5-2.6-0.5  C12.4,86.5,10.4,88.3,10.4,90.4z M85.6,83.4c-2.1,0.1-3.5,1.1-4.3,3.1c-0.8,2.1-0.2,3.8,1.3,5.2c1.5,1.4,3.1,1.3,4.9,0.6  c0.4-0.2,0.8-0.4,1.2-0.6c1.3-0.7,1.7-1.8,1.5-3.2c-0.2-1.4-1-2.5-1.6-3.7c-0.5-1.1-1.3-1.6-2.3-1.4C85.9,83.4,85.8,83.4,85.6,83.4z   M10.6,24.6c1.2,0.5,2.7-0.2,3.1-1.4c0.5-1.5-0.4-3.5-1.9-4c-1.2-0.4-2.4,0.1-2.9,1.4C8.3,22.2,9.1,24,10.6,24.6z M11.1,14.2  c0.4-1.1-0.1-2.4-1.2-2.8c-1-0.4-2.3,0.3-2.7,1.4c-0.4,1,0.1,2.1,1.3,2.5C9.5,15.7,10.6,15.3,11.1,14.2z M58.9,28.3  c-1.6-0.1-2.8,1.1-2.9,2.7c-0.1,1.6,1.6,3.1,3.5,3.2c1.4,0,2-0.7,2-2.5C61.6,29.6,60.6,28.3,58.9,28.3z" stroke="none" fill="#FCAF58" transform="matrix(3.1647335636191016, 0, 0, 3.128950705173272, 102.2520736725071, 35.21058825819987)"></path><path text="Animations" text-anchor="middle" font-size="100" letter-spacing="0" side="left" offset="0.5" dx="0" dy="0" space="preserve" href="" font-family="Baloo Bhai" font-scale="contain" transform="matrix(0.636406660079956, 0, 0, 0.6911172270774841, 260.52862548828125, 397.83404541015625)" x="0" y="0" fill="#FCAF58" data-fl-textpath="" id="_RHjB7hPsGP1C23ZERuBTz" d="M-241.85000000000005-58.8L-241.85000000000005-58.8Q-240.15000000000006-59.8 -236.70000000000005-60.7Q-233.25000000000006-61.6 -229.75000000000006-61.6L-229.75000000000006-61.6Q-224.75000000000006-61.6 -220.90000000000006-60.15Q-217.05000000000007-58.7 -215.95000000000005-55.6L-215.95000000000005-55.6Q-214.15000000000006-50.4 -212.05000000000007-43.5Q-209.95000000000005-36.6 -207.85000000000005-29.25Q-205.75000000000006-21.9 -203.75000000000006-14.75Q-201.75000000000006-7.6 -200.25000000000006-2.1L-200.25000000000006-2.1Q-201.45000000000005-0.7 -203.85000000000005 0.15Q-206.25000000000006 1 -209.55000000000007 1L-209.55000000000007 1Q-211.95000000000005 1 -213.60000000000005 0.6Q-215.25000000000006 0.2 -216.30000000000007-0.6Q-217.35000000000005-1.4 -218.00000000000006-2.7Q-218.65000000000006-4 -219.15000000000006-5.7L-219.15000000000006-5.7L-220.95000000000005-12.6L-239.05000000000007-12.6Q-239.85000000000005-9.6 -240.65000000000006-6.4Q-241.45000000000005-3.2 -242.25000000000006-0.2L-242.25000000000006-0.2Q-243.65000000000006 0.3 -245.20000000000005 0.65Q-246.75000000000006 1 -248.95000000000005 1L-248.95000000000005 1Q-254.05000000000007 1 -256.50000000000006-0.75Q-258.95000000000005-2.5 -258.95000000000005-5.6L-258.95000000000005-5.6Q-258.95000000000005-7 -258.55000000000007-8.4Q-258.15000000000003-9.8 -257.65000000000003-11.7L-257.65000000000003-11.7Q-256.95000000000005-14.4 -255.70000000000005-18.4Q-254.45000000000005-22.4 -252.95000000000005-27.05Q-251.45000000000005-31.7 -249.75000000000006-36.6Q-248.05000000000007-41.5 -246.55000000000007-45.85Q-245.05000000000007-50.2 -243.80000000000007-53.6Q-242.55000000000007-57 -241.85000000000005-58.8ZM-229.25000000000006-45.9L-229.85000000000005-45.9Q-231.25000000000006-41.7 -233.00000000000006-36.55Q-234.75000000000006-31.4 -236.15000000000006-26.1L-236.15000000000006-26.1L-223.75000000000006-26.1Q-225.15000000000006-31.5 -226.60000000000005-36.65Q-228.05000000000007-41.8 -229.25000000000006-45.9L-229.25000000000006-45.9ZM-162.55000000000007-7.2L-162.55000000000007-30.8Q-162.55000000000007-33.9 -164.30000000000007-35.35Q-166.05000000000007-36.8 -169.05000000000007-36.8L-169.05000000000007-36.8Q-171.05000000000007-36.8 -173.00000000000006-36.3Q-174.95000000000007-35.8 -176.35000000000008-34.8L-176.35000000000008-34.8L-176.35000000000008-0.1Q-177.35000000000008 0.2 -179.50000000000006 0.5Q-181.65000000000006 0.8 -183.95000000000007 0.8L-183.95000000000007 0.8Q-186.15000000000006 0.8 -187.90000000000006 0.5Q-189.65000000000006 0.2 -190.85000000000008-0.7Q-192.05000000000007-1.6 -192.70000000000007-3.15Q-193.35000000000008-4.7 -193.35000000000008-7.2L-193.35000000000008-7.2L-193.35000000000008-37.2Q-193.35000000000008-39.9 -192.20000000000007-41.6Q-191.05000000000007-43.3 -189.05000000000007-44.7L-189.05000000000007-44.7Q-185.65000000000006-47.1 -180.50000000000006-48.6Q-175.35000000000008-50.1 -169.05000000000007-50.1L-169.05000000000007-50.1Q-157.75000000000006-50.1 -151.65000000000006-45.15Q-145.55000000000007-40.2 -145.55000000000007-31.4L-145.55000000000007-31.4L-145.55000000000007-0.1Q-146.55000000000007 0.2 -148.70000000000007 0.5Q-150.85000000000008 0.8 -153.15000000000006 0.8L-153.15000000000006 0.8Q-155.35000000000008 0.8 -157.10000000000008 0.5Q-158.85000000000008 0.2 -160.05000000000007-0.7Q-161.25000000000006-1.6 -161.90000000000006-3.15Q-162.55000000000007-4.7 -162.55000000000007-7.2L-162.55000000000007-7.2ZM-135.45000000000005-62.1L-135.45000000000005-62.1Q-135.45000000000005-65.9 -132.90000000000006-68.5Q-130.35000000000005-71.1 -126.15000000000006-71.1L-126.15000000000006-71.1Q-121.95000000000006-71.1 -119.40000000000006-68.5Q-116.85000000000005-65.9 -116.85000000000005-62.1L-116.85000000000005-62.1Q-116.85000000000005-58.3 -119.40000000000006-55.7Q-121.95000000000006-53.1 -126.15000000000006-53.1L-126.15000000000006-53.1Q-130.35000000000005-53.1 -132.90000000000006-55.7Q-135.45000000000005-58.3 -135.45000000000005-62.1ZM-117.65000000000006-40.8L-117.65000000000006-0.1Q-118.75000000000006 0.1 -120.90000000000006 0.45Q-123.05000000000005 0.8 -125.25000000000006 0.8L-125.25000000000006 0.8Q-127.45000000000006 0.8 -129.20000000000005 0.5Q-130.95000000000005 0.2 -132.15000000000006-0.7Q-133.35000000000005-1.6 -134.00000000000006-3.15Q-134.65000000000006-4.7 -134.65000000000006-7.2L-134.65000000000006-7.2L-134.65000000000006-47.9Q-133.55000000000007-48.1 -131.40000000000006-48.45Q-129.25000000000006-48.8 -127.05000000000005-48.8L-127.05000000000005-48.8Q-124.85000000000005-48.8 -123.10000000000005-48.5Q-121.35000000000005-48.2 -120.15000000000006-47.3Q-118.95000000000006-46.4 -118.30000000000005-44.85Q-117.65000000000006-43.3 -117.65000000000006-40.8L-117.65000000000006-40.8ZM-83.55000000000007-50.1L-83.55000000000007-50.1Q-79.45000000000007-50.1 -75.50000000000007-48.95Q-71.55000000000007-47.8 -68.65000000000006-45.5L-68.65000000000006-45.5Q-65.65000000000006-47.5 -61.90000000000007-48.8Q-58.15000000000007-50.1 -52.850000000000065-50.1L-52.850000000000065-50.1Q-49.05000000000007-50.1 -45.40000000000006-49.1Q-41.75000000000007-48.1 -38.90000000000006-45.95Q-36.05000000000007-43.8 -34.350000000000065-40.25Q-32.65000000000006-36.7 -32.65000000000006-31.6L-32.65000000000006-31.6L-32.65000000000006-0.1Q-33.65000000000006 0.2 -35.80000000000007 0.5Q-37.950000000000074 0.8 -40.25000000000007 0.8L-40.25000000000007 0.8Q-42.450000000000074 0.8 -44.200000000000074 0.5Q-45.950000000000074 0.2 -47.15000000000006-0.7Q-48.350000000000065-1.6 -49.00000000000007-3.15Q-49.65000000000007-4.7 -49.65000000000007-7.2L-49.65000000000007-7.2L-49.65000000000007-31.1Q-49.65000000000007-34.1 -51.350000000000065-35.45Q-53.05000000000007-36.8 -55.95000000000007-36.8L-55.95000000000007-36.8Q-57.350000000000065-36.8 -58.95000000000007-36.15Q-60.55000000000007-35.5 -61.350000000000065-34.8L-61.350000000000065-34.8Q-61.25000000000007-34.4 -61.25000000000007-34.05Q-61.25000000000007-33.7 -61.25000000000007-33.4L-61.25000000000007-33.4L-61.25000000000007-0.1Q-62.350000000000065 0.2 -64.50000000000007 0.5Q-66.65000000000006 0.8 -68.85000000000007 0.8L-68.85000000000007 0.8Q-71.05000000000007 0.8 -72.80000000000007 0.5Q-74.55000000000007 0.2 -75.75000000000007-0.7Q-76.95000000000007-1.6 -77.60000000000007-3.15Q-78.25000000000007-4.7 -78.25000000000007-7.2L-78.25000000000007-7.2L-78.25000000000007-31.1Q-78.25000000000007-34.1 -80.10000000000007-35.45Q-81.95000000000007-36.8 -84.55000000000007-36.8L-84.55000000000007-36.8Q-86.35000000000007-36.8 -87.65000000000006-36.25Q-88.95000000000007-35.7 -89.85000000000007-35.2L-89.85000000000007-35.2L-89.85000000000007-0.1Q-90.85000000000007 0.2 -93.00000000000007 0.5Q-95.15000000000006 0.8 -97.45000000000007 0.8L-97.45000000000007 0.8Q-99.65000000000006 0.8 -101.40000000000006 0.5Q-103.15000000000006 0.2 -104.35000000000007-0.7Q-105.55000000000007-1.6 -106.20000000000007-3.15Q-106.85000000000007-4.7 -106.85000000000007-7.2L-106.85000000000007-7.2L-106.85000000000007-37.4Q-106.85000000000007-40.1 -105.70000000000007-41.7Q-104.55000000000007-43.3 -102.55000000000007-44.7L-102.55000000000007-44.7Q-99.15000000000006-47.1 -94.10000000000007-48.6Q-89.05000000000007-50.1 -83.55000000000007-50.1ZM-1.4500000000000455-10.8L-1.4500000000000455-10.8Q 0.24999999999995381-10.8  2.2999999999999545-11.15Q 4.349999999999955-11.5  5.349999999999952-12.1L 5.349999999999952-12.1L 5.349999999999952-20.1L-1.850000000000044-19.5Q-4.650000000000045-19.3 -6.4500000000000455-18.3Q-8.250000000000046-17.3 -8.250000000000046-15.3L-8.250000000000046-15.3Q-8.250000000000046-13.3 -6.7000000000000455-12.05Q-5.150000000000045-10.8 -1.4500000000000455-10.8ZM-2.250000000000046-50.1L-2.250000000000046-50.1Q 3.149999999999956-50.1  7.599999999999952-49Q 12.049999999999955-47.9  15.199999999999953-45.65Q 18.34999999999995-43.4  20.049999999999955-39.95Q 21.749999999999957-36.5  21.749999999999957-31.8L 21.749999999999957-31.8L 21.749999999999957-9.4Q 21.749999999999957-6.8  20.299999999999955-5.15Q 18.84999999999995-3.5  16.84999999999995-2.3L 16.84999999999995-2.3Q 10.349999999999952 1.6 -1.4500000000000455 1.6L-1.4500000000000455 1.6Q-6.750000000000046 1.6 -11.000000000000046 0.6Q-15.250000000000046-0.4 -18.300000000000047-2.4Q-21.350000000000044-4.4 -23.000000000000046-7.5Q-24.650000000000045-10.6 -24.650000000000045-14.7L-24.650000000000045-14.7Q-24.650000000000045-21.6 -20.550000000000047-25.3Q-16.450000000000045-29 -7.850000000000044-29.9L-7.850000000000044-29.9L 5.249999999999957-31.3L 5.249999999999957-32Q 5.249999999999957-34.9  2.699999999999953-36.15Q 0.14999999999995595-37.4 -4.650000000000045-37.4L-4.650000000000045-37.4Q-8.450000000000045-37.4 -12.050000000000045-36.6Q-15.650000000000045-35.8 -18.550000000000047-34.6L-18.550000000000047-34.6Q-19.850000000000044-35.5 -20.750000000000046-37.35Q-21.650000000000045-39.2 -21.650000000000045-41.2L-21.650000000000045-41.2Q-21.650000000000045-43.8 -20.400000000000045-45.35Q-19.150000000000045-46.9 -16.550000000000047-48L-16.550000000000047-48Q-13.650000000000045-49.1 -9.700000000000045-49.6Q-5.750000000000046-50.1 -2.250000000000046-50.1ZM 49.14999999999996-31.8L 49.14999999999996-16.7Q 49.14999999999996-14.1  50.79999999999996-13Q 52.44999999999996-11.9  55.44999999999996-11.9L 55.44999999999996-11.9Q 56.94999999999996-11.9  58.54999999999996-12.15Q 60.14999999999996-12.4  61.34999999999996-12.8L 61.34999999999996-12.8Q 62.24999999999996-11.7  62.89999999999996-10.35Q 63.54999999999996-9  63.54999999999996-7.1L 63.54999999999996-7.1Q 63.54999999999996-3.3  60.69999999999996-0.9Q 57.84999999999996 1.5  50.64999999999996 1.5L 50.64999999999996 1.5Q 41.84999999999996 1.5  37.09999999999996-2.5Q 32.34999999999996-6.5  32.34999999999996-15.5L 32.34999999999996-15.5L 32.34999999999996-58.3Q 33.44999999999996-58.6  35.49999999999996-58.95Q 37.54999999999996-59.3  39.84999999999996-59.3L 39.84999999999996-59.3Q 44.24999999999996-59.3  46.69999999999996-57.75Q 49.14999999999996-56.2  49.14999999999996-51.2L 49.14999999999996-51.2L 49.14999999999996-44.8L 62.24999999999996-44.8Q 62.84999999999996-43.7  63.39999999999996-42.05Q 63.94999999999996-40.4  63.94999999999996-38.4L 63.94999999999996-38.4Q 63.94999999999996-34.9  62.39999999999996-33.35Q 60.84999999999996-31.8  58.24999999999996-31.8L 58.24999999999996-31.8L 49.14999999999996-31.8ZM 71.74999999999996-62.1L 71.74999999999996-62.1Q 71.74999999999996-65.9  74.29999999999995-68.5Q 76.84999999999997-71.1  81.04999999999995-71.1L 81.04999999999995-71.1Q 85.24999999999996-71.1  87.79999999999995-68.5Q 90.34999999999997-65.9  90.34999999999997-62.1L 90.34999999999997-62.1Q 90.34999999999997-58.3  87.79999999999995-55.7Q 85.24999999999996-53.1  81.04999999999995-53.1L 81.04999999999995-53.1Q 76.84999999999997-53.1  74.29999999999995-55.7Q 71.74999999999996-58.3  71.74999999999996-62.1ZM 89.54999999999995-40.8L 89.54999999999995-0.1Q 88.44999999999996 0.1  86.29999999999995 0.45Q 84.14999999999996 0.8  81.94999999999996 0.8L 81.94999999999996 0.8Q 79.74999999999996 0.8  77.99999999999996 0.5Q 76.24999999999996 0.2  75.04999999999995-0.7Q 73.84999999999997-1.6  73.19999999999996-3.15Q 72.54999999999995-4.7  72.54999999999995-7.2L 72.54999999999995-7.2L 72.54999999999995-47.9Q 73.64999999999996-48.1  75.79999999999995-48.45Q 77.94999999999996-48.8  80.14999999999996-48.8L 80.14999999999996-48.8Q 82.34999999999997-48.8  84.09999999999997-48.5Q 85.84999999999997-48.2  87.04999999999995-47.3Q 88.24999999999996-46.4  88.89999999999996-44.85Q 89.54999999999995-43.3  89.54999999999995-40.8L 89.54999999999995-40.8ZM 150.64999999999998-24.3L 150.64999999999998-24.3Q 150.64999999999998-18.1  148.74999999999997-13.25Q 146.84999999999997-8.4  143.39999999999998-5.1Q 139.94999999999996-1.8  135.14999999999998-0.1Q 130.34999999999997 1.6  124.44999999999996 1.6L 124.44999999999996 1.6Q 118.54999999999995 1.6  113.74999999999997-0.2Q 108.94999999999996-2  105.49999999999996-5.35Q 102.04999999999997-8.7  100.14999999999996-13.5Q 98.24999999999996-18.3  98.24999999999996-24.3L 98.24999999999996-24.3Q 98.24999999999996-30.2  100.14999999999996-35Q 102.04999999999997-39.8  105.49999999999996-43.15Q 108.94999999999996-46.5  113.74999999999997-48.3Q 118.54999999999995-50.1  124.44999999999996-50.1L 124.44999999999996-50.1Q 130.34999999999997-50.1  135.14999999999998-48.25Q 139.94999999999996-46.4  143.39999999999998-43.05Q 146.84999999999997-39.7  148.74999999999997-34.9Q 150.64999999999998-30.1  150.64999999999998-24.3ZM 115.64999999999996-24.3L 115.64999999999996-24.3Q 115.64999999999996-18.2  117.99999999999997-14.95Q 120.34999999999997-11.7  124.54999999999995-11.7L 124.54999999999995-11.7Q 128.74999999999997-11.7  130.99999999999997-15Q 133.24999999999997-18.3  133.24999999999997-24.3L 133.24999999999997-24.3Q 133.24999999999997-30.3  130.94999999999996-33.55Q 128.64999999999998-36.8  124.44999999999996-36.8L 124.44999999999996-36.8Q 120.24999999999997-36.8  117.94999999999996-33.55Q 115.64999999999996-30.3  115.64999999999996-24.3ZM 189.74999999999997-7.2L 189.74999999999997-30.8Q 189.74999999999997-33.9  187.99999999999997-35.35Q 186.24999999999997-36.8  183.24999999999997-36.8L 183.24999999999997-36.8Q 181.24999999999997-36.8  179.29999999999998-36.3Q 177.34999999999997-35.8  175.94999999999996-34.8L 175.94999999999996-34.8L 175.94999999999996-0.1Q 174.94999999999996 0.2  172.79999999999998 0.5Q 170.64999999999998 0.8  168.34999999999997 0.8L 168.34999999999997 0.8Q 166.14999999999998 0.8  164.39999999999998 0.5Q 162.64999999999998 0.2  161.44999999999996-0.7Q 160.24999999999997-1.6  159.59999999999997-3.15Q 158.94999999999996-4.7  158.94999999999996-7.2L 158.94999999999996-7.2L 158.94999999999996-37.2Q 158.94999999999996-39.9  160.09999999999997-41.6Q 161.24999999999997-43.3  163.24999999999997-44.7L 163.24999999999997-44.7Q 166.64999999999998-47.1  171.79999999999998-48.6Q 176.94999999999996-50.1  183.24999999999997-50.1L 183.24999999999997-50.1Q 194.54999999999995-50.1  200.64999999999998-45.15Q 206.74999999999997-40.2  206.74999999999997-31.4L 206.74999999999997-31.4L 206.74999999999997-0.1Q 205.74999999999997 0.2  203.59999999999997 0.5Q 201.45 0.8  199.14999999999998 0.8L 199.14999999999998 0.8Q 196.95 0.8  195.2 0.5Q 193.45 0.2  192.24999999999997-0.7Q 191.04999999999995-1.6  190.39999999999998-3.15Q 189.74999999999997-4.7  189.74999999999997-7.2L 189.74999999999997-7.2ZM 258.25-14.5L 258.25-14.5Q 258.25-6.9  252.54999999999998-2.6Q 246.84999999999997 1.7  235.74999999999997 1.7L 235.74999999999997 1.7Q 231.54999999999998 1.7  227.95 1.1Q 224.35 0.5  221.79999999999998-0.75Q 219.24999999999997-2  217.79999999999998-3.9Q 216.35-5.8  216.35-8.4L 216.35-8.4Q 216.35-10.8  217.35-12.45Q 218.35-14.1  219.74999999999997-15.2L 219.74999999999997-15.2Q 222.64999999999998-13.6  226.39999999999998-12.35Q 230.14999999999998-11.1  235.04999999999998-11.1L 235.04999999999998-11.1Q 238.14999999999998-11.1  239.79999999999998-12Q 241.45-12.9  241.45-14.4L 241.45-14.4Q 241.45-15.8  240.24999999999997-16.6Q 239.04999999999998-17.4  236.24999999999997-17.9L 236.24999999999997-17.9L 233.24999999999997-18.5Q 224.54999999999998-20.2  220.29999999999998-23.85Q 216.04999999999998-27.5  216.04999999999998-34.3L 216.04999999999998-34.3Q 216.04999999999998-38  217.64999999999998-41Q 219.24999999999997-44  222.14999999999998-46Q 225.04999999999998-48  229.1-49.1Q 233.14999999999998-50.2  238.04999999999998-50.2L 238.04999999999998-50.2Q 241.74999999999997-50.2  245-49.65Q 248.25-49.1  250.64999999999998-48Q 253.04999999999998-46.9  254.45-45.15Q 255.84999999999997-43.4  255.84999999999997-41L 255.84999999999997-41Q 255.84999999999997-38.7  255-37.05Q 254.14999999999998-35.4  252.84999999999997-34.3L 252.84999999999997-34.3Q 252.04999999999998-34.8  250.45-35.35Q 248.84999999999997-35.9  246.95-36.35Q 245.04999999999998-36.8  243.1-37.1Q 241.14999999999998-37.4  239.54999999999998-37.4L 239.54999999999998-37.4Q 236.24999999999997-37.4  234.45-36.65Q 232.64999999999998-35.9  232.64999999999998-34.3L 232.64999999999998-34.3Q 232.64999999999998-33.2  233.64999999999998-32.5Q 234.64999999999998-31.8  237.45-31.2L 237.45-31.2L 240.54999999999998-30.5Q 250.14999999999998-28.3  254.2-24.45Q 258.25-20.6  258.25-14.5Z"></path></svg>