<svg xmlns="http://www.w3.org/2000/svg" width="512" height="512" viewBox="0 0 512 512" data-svgdocument="" id="_dpciDdP8iimocR3A-mTBp" class="fl-svgdocument" x="0" y="0" style="overflow: visible;" xmlns:xlink="http://www.w3.org/1999/xlink"><defs id="_28k45TpbTQ5kfqtcD2hmV" transform="matrix(1.1156715141650193, 0, 0, 1.1156715141650193, -29.921264052566457, 0.4916749007461121)"></defs><circle id="_dNF9KwObYRaWekxoTwFdV" cx="88.385" cy="88.385" r="88.385" fill="#141C27" transform="matrix(0.8959261003747134, 0, 0, 0.8959261003747134, 176.81358492273344, 128.99283775235563)"></circle><path id="_86uJ9SbKqOTNKeITXTapy" d="M62.659,60.01c-0.769-0.604-1.878-0.47-2.481,0.299c-0.426,0.546-1.128,1.131-2.069,1.64     c-0.939,0.509-2.113,0.943-3.438,1.247c-0.811,0.187-1.686,0.315-2.596,0.393v-5.101c1.899-1.7,4.323-3.464,5.699-5.205     c0.354-0.461,0.428-1.072,0.194-1.606c-0.234-0.532-0.735-0.891-1.314-0.944c-2.118-0.182-4.234-0.273-6.349-0.273     c-2.115,0-4.232,0.092-6.346,0.273c-0.577,0.054-1.082,0.417-1.314,0.944c-0.234,0.529-0.159,1.148,0.193,1.606     c1.377,1.741,3.803,3.506,5.7,5.207v5.099c-0.91-0.077-1.784-0.206-2.597-0.393c-1.326-0.304-2.5-0.738-3.441-1.25     c-0.939-0.506-1.643-1.091-2.067-1.637c-0.604-0.769-1.715-0.902-2.483-0.299c-0.77,0.601-0.904,1.711-0.301,2.479     c0.813,1.033,1.898,1.878,3.169,2.566c1.273,0.688,2.733,1.221,4.335,1.587c1.598,0.365,3.333,0.563,5.152,0.565     c1.816-0.002,3.554-0.2,5.152-0.565c1.599-0.366,3.062-0.898,4.333-1.584c1.272-0.691,2.357-1.536,3.172-2.569     C63.562,61.721,63.429,60.61,62.659,60.01z M66.164,35.892c-1.646-1.649-4.322-1.649-5.969-0.002     c-1.65,1.65-1.65,4.322-0.002,5.972l3.5,3.5c0.824,0.825,1.905,1.237,2.985,1.237s2.16-0.413,2.983-1.234     c1.65-1.651,1.65-4.326,0.003-5.973L66.164,35.892z M40.328,35.888c-1.65-1.647-4.321-1.647-5.971,0.002l-3.501,3.5     c-1.647,1.65-1.647,4.321,0.002,5.972c0.824,0.824,1.903,1.235,2.984,1.235s2.162-0.412,2.987-1.237l3.498-3.5     C41.978,40.212,41.978,37.538,40.328,35.888z M91.612,20.167c-3.189-4.98-8.276-7.917-13.312-7.931     c-2.186-0.002-4.358,0.574-6.267,1.793c-2.776,1.773-4.479,4.588-5.154,7.731c-4.922-2.731-10.457-4.284-16.272-4.294     c-0.12,0-0.227,0.003-0.322,0.003c-0.074-0.003-0.191-0.003-0.286-0.003c-6.057,0.012-11.811,1.695-16.883,4.643     c-0.624-3.285-2.373-6.24-5.253-8.08c-1.908-1.22-4.083-1.795-6.265-1.795c-5.037,0.017-10.125,2.954-13.312,7.933l0.002,0.001     c-1.913,2.996-2.856,6.303-2.859,9.458c-0.009,4.357,1.84,8.525,5.525,10.88c1.656,1.058,3.51,1.628,5.396,1.76     c-1.442,3.835-2.349,7.961-2.595,12.272c-0.043,0.721-0.062,1.439-0.062,2.146c-0.015,9.791,3.974,18.007,10.538,23.647     c6.557,5.651,15.616,8.765,25.763,8.765h0.616c10.147,0,19.204-3.113,25.764-8.765c6.562-5.641,10.552-13.854,10.539-23.646     c0-0.709-0.023-1.424-0.062-2.148c-0.248-4.344-1.166-8.5-2.628-12.361c1.65-0.209,3.264-0.74,4.719-1.669     c3.683-2.356,5.531-6.524,5.523-10.881C94.466,26.472,93.524,23.165,91.612,20.167z M50.612,85.562c-0.102,0-0.208,0-0.318,0.002     h-0.298c-18.895-0.097-32.724-11.319-32.766-28.878c0-0.638,0.018-1.285,0.059-1.939c1.063-18.871,15.807-33.74,32.653-33.741H50     c0.108,0,0.191,0,0.258,0.002c0.175-0.002,0.27-0.002,0.35-0.002c16.873-0.036,31.646,14.846,32.715,33.736h0.001     c0.037,0.659,0.054,1.304,0.054,1.946C83.334,74.244,69.506,85.465,50.612,85.562z" fill="#00A0FF" transform="matrix(1.1243471879406917, 0, 0, 1.1243471879406917, 199.84222426574053, 149.96101179981486)"></path><path text="Angela Hall" text-anchor="middle" font-size="100" letter-spacing="0" side="left" offset="0.5" dx="0" dy="0" space="preserve" href="" font-family="Pathway Gothic One" font-scale="contain" transform="matrix(0.8898394703865051, 0, 0, 0.8898394703865051, 256, 365.6553039550781)" x="0" y="0" fill="#FFFFFF" data-fl-textpath="" id="_T6wK3ZwX7BGnrc0hENBFT" d="M-135.65000000000003 0L-143.65000000000003 0L-146.75000000000006-18.2L-160.85000000000005-18.2L-163.85000000000005 0L-171.85000000000005 0L-159.05000000000004-70L-148.45000000000005-70L-135.65000000000003 0ZM-147.85000000000005-24.6L-153.75000000000006-59.9L-159.75000000000006-24.6L-147.85000000000005-24.6ZM-120.05000000000004-27.9L-120.05000000000004 0L-127.75000000000004 0L-127.75000000000004-54L-123.05000000000004-54L-121.05000000000004-45.4Q-118.95000000000005-55.5 -110.55000000000004-55.5L-110.55000000000004-55.5Q-105.35000000000004-55.5 -102.60000000000004-50.9Q-99.85000000000004-46.3 -99.85000000000004-34.1L-99.85000000000004-34.1L-99.85000000000004 0L-107.55000000000004 0L-107.55000000000004-36.8Q-107.55000000000004-49.3 -112.45000000000005-49.3L-112.45000000000005-49.3Q-119.85000000000004-49.3 -120.05000000000004-27.9L-120.05000000000004-27.9ZM-58.45000000000003-55.5L-57.35000000000003-55.5L-57.35000000000003-47.6L-63.25000000000003-47.6Q-61.550000000000026-43.3 -61.550000000000026-36.2L-61.550000000000026-36.2L-61.550000000000026-35.3Q-61.550000000000026-24.2 -65.00000000000003-20.1Q-68.45000000000003-16 -75.65000000000003-16L-75.65000000000003-16Q-78.45000000000003-16 -80.75000000000003-16.6L-80.75000000000003-16.6Q-82.95000000000003-15 -82.95000000000003-11.6L-82.95000000000003-11.6Q-82.95000000000003-5.6 -77.45000000000003-5.6L-77.45000000000003-5.6L-71.25000000000003-5.6Q-58.85000000000003-5.6 -58.85000000000003 6.95Q-58.85000000000003 19.5 -71.25000000000003 19.5L-71.25000000000003 19.5L-80.05000000000003 19.5Q-92.35000000000002 19.5 -92.35000000000002 6.9L-92.35000000000002 6.9Q-92.35000000000002-1.7 -86.55000000000003-4.4L-86.55000000000003-4.4Q-88.95000000000003-6.3 -88.95000000000003-11.3Q-88.95000000000003-16.3 -84.65000000000003-18.5L-84.65000000000003-18.5Q-89.55000000000003-22.6 -89.55000000000003-35.3L-89.55000000000003-35.3L-89.55000000000003-36.2Q-89.55000000000003-47.3 -86.15000000000003-51.4Q-82.75000000000003-55.5 -76.20000000000003-55.5Q-69.65000000000003-55.5 -66.25000000000003-52.4L-66.25000000000003-52.4L-58.45000000000003-55.5ZM-69.15000000000003-33.5L-69.15000000000003-33.5L-69.15000000000003-38Q-69.15000000000003-44.8 -70.80000000000003-47.3Q-72.45000000000003-49.8 -75.50000000000003-49.8Q-78.55000000000003-49.8 -80.25000000000003-47.3Q-81.95000000000003-44.8 -81.95000000000003-38L-81.95000000000003-38L-81.95000000000003-33.5Q-81.95000000000003-26.7 -80.25000000000003-24.2Q-78.55000000000003-21.7 -75.50000000000003-21.7Q-72.45000000000003-21.7 -70.80000000000003-24.2Q-69.15000000000003-26.7 -69.15000000000003-33.5ZM-70.65000000000003 0.6L-70.65000000000003 0.6L-80.65000000000003 0.6Q-85.15000000000003 0.6 -85.15000000000003 6.85Q-85.15000000000003 13.1 -80.65000000000003 13.1L-80.65000000000003 13.1L-70.65000000000003 13.1Q-66.15000000000003 13.1 -66.15000000000003 6.85Q-66.15000000000003 0.6 -70.65000000000003 0.6ZM-24.150000000000034-14Q-24.85000000000003-5.3 -28.250000000000032-1.9Q-31.65000000000003 1.5 -38.10000000000003 1.5Q-44.55000000000003 1.5 -48.30000000000003-3.05Q-52.05000000000003-7.6 -52.05000000000003-19.5L-52.05000000000003-19.5L-52.05000000000003-34.5Q-52.05000000000003-46.4 -48.30000000000003-50.95Q-44.55000000000003-55.5 -37.75000000000003-55.5Q-30.95000000000003-55.5 -27.45000000000003-51Q-23.95000000000003-46.5 -23.95000000000003-34.5L-23.95000000000003-34.5L-23.95000000000003-23.8L-44.45000000000003-23.8L-44.45000000000003-18.1Q-44.45000000000003-4.7 -38.05000000000003-4.7L-38.05000000000003-4.7Q-34.95000000000003-4.7 -33.25000000000003-6.9Q-31.550000000000033-9.1 -30.85000000000003-15.1L-30.85000000000003-15.1L-24.150000000000034-14ZM-44.45000000000003-35.9L-44.45000000000003-35.9L-44.45000000000003-30.2L-31.65000000000003-30.2L-31.65000000000003-35.9Q-31.65000000000003-49.3 -37.95000000000003-49.3L-37.95000000000003-49.3Q-44.45000000000003-49.3 -44.45000000000003-35.9ZM-5.050000000000026 0L-12.750000000000025 0L-12.750000000000025-74L-5.050000000000026-74L-5.050000000000026 0ZM 5.749999999999975-16.7Q 5.749999999999975-26.2  8.549999999999976-29.65Q 11.349999999999975-33.1  16.549999999999976-33.1Q 21.749999999999975-33.1  24.749999999999975-29.1L 24.749999999999975-29.1L 24.749999999999975-39.6Q 24.749999999999975-49.2  18.749999999999975-49.2L 18.749999999999975-49.2Q 13.649999999999975-49.2  9.049999999999976-43.3L 9.049999999999976-43.3L 6.349999999999975-48.9Q 8.649999999999975-51.7  12.199999999999974-53.6Q 15.749999999999975-55.5  19.449999999999974-55.5L 19.449999999999974-55.5Q 32.449999999999974-55.5  32.449999999999974-37.9L 32.449999999999974-37.9L 32.449999999999974 0L 27.749999999999975 0L 26.149999999999974-6.5Q 25.049999999999976-2.5  22.499999999999975-0.5Q 19.949999999999974 1.5  16.749999999999975 1.5L 16.749999999999975 1.5Q 11.349999999999975 1.5  8.549999999999976-1.95Q 5.749999999999975-5.4  5.749999999999975-14.9L 5.749999999999975-14.9L 5.749999999999975-16.7ZM 18.349999999999977-4.8L 18.349999999999977-4.8Q 21.249999999999975-4.8  22.899999999999974-6.9Q 24.549999999999976-9  24.749999999999975-14.5L 24.749999999999975-14.5L 24.749999999999975-17.2Q 24.549999999999976-23.1  22.899999999999974-25.4Q 21.249999999999975-27.7  18.349999999999977-27.7L 18.349999999999977-27.7Q 13.349999999999975-27.7  13.349999999999975-18.2L 13.349999999999975-18.2L 13.349999999999975-14.3Q 13.349999999999975-4.8  18.349999999999977-4.8ZM 89.74999999999999 0L 81.85 0L 81.85-31.7L 66.74999999999999-31.7L 66.74999999999999 0L 58.749999999999986 0L 58.749999999999986-70L 66.74999999999999-70L 66.74999999999999-38.1L 81.85-38.1L 81.85-70L 89.74999999999999-70L 89.74999999999999 0ZM 100.54999999999998-16.7Q 100.54999999999998-26.2  103.34999999999998-29.65Q 106.14999999999998-33.1  111.34999999999998-33.1Q 116.54999999999998-33.1  119.54999999999998-29.1L 119.54999999999998-29.1L 119.54999999999998-39.6Q 119.54999999999998-49.2  113.54999999999998-49.2L 113.54999999999998-49.2Q 108.44999999999999-49.2  103.84999999999998-43.3L 103.84999999999998-43.3L 101.14999999999998-48.9Q 103.44999999999999-51.7  106.99999999999999-53.6Q 110.54999999999998-55.5  114.24999999999999-55.5L 114.24999999999999-55.5Q 127.24999999999999-55.5  127.24999999999999-37.9L 127.24999999999999-37.9L 127.24999999999999 0L 122.54999999999998 0L 120.94999999999999-6.5Q 119.84999999999998-2.5  117.29999999999998-0.5Q 114.74999999999999 1.5  111.54999999999998 1.5L 111.54999999999998 1.5Q 106.14999999999998 1.5  103.34999999999998-1.95Q 100.54999999999998-5.4  100.54999999999998-14.9L 100.54999999999998-14.9L 100.54999999999998-16.7ZM 113.14999999999998-4.8L 113.14999999999998-4.8Q 116.04999999999998-4.8  117.69999999999999-6.9Q 119.34999999999998-9  119.54999999999998-14.5L 119.54999999999998-14.5L 119.54999999999998-17.2Q 119.34999999999998-23.1  117.69999999999999-25.4Q 116.04999999999998-27.7  113.14999999999998-27.7L 113.14999999999998-27.7Q 108.14999999999998-27.7  108.14999999999998-18.2L 108.14999999999998-18.2L 108.14999999999998-14.3Q 108.14999999999998-4.8  113.14999999999998-4.8ZM 146.85 0L 139.15 0L 139.15-74L 146.85-74L 146.85 0ZM 167.15 0L 159.45000000000002 0L 159.45000000000002-74L 167.15-74L 167.15 0Z"></path></svg>