<svg xmlns="http://www.w3.org/2000/svg" width="512" height="512" viewBox="0 0 512 512" data-svgdocument="" id="_JJxrrNaz3m2zYAWyKo2zE" class="fl-svgdocument" x="0" y="0" style="overflow: visible;" xmlns:xlink="http://www.w3.org/1999/xlink"><defs id="_AciFwvn6-ojogO3I2kyz1" transform="matrix(1.000000047344559, 0, 0, 1.000000047344559, -0.00001942177641930329, -0.000008134765191729705)"></defs><g id="_fkVHg5MEC3oDJ5naLfc4m" transform="matrix(0.846867024898529, 0, 0, 0.846867024898529, 39.54831314086914, 67.24812316894531)"><path id="_UVvwMSjLamyMlbQ3egaWv" d="M76,25l-8.6-12.83H32.63L24,25H3V87.83H97V25ZM89,79.83H11V33H28.3l8.6-12.83H63.1L71.7,33H89Z" stroke="none" fill="#2A353D" transform="matrix(1.6351394653320312, 0, 0, 1.6351394653320312, 174.388916015625, 94.73031616210938)"></path><circle id="_JskpybcFlSwX37jfx47yX" cx="88.385" cy="88.385" r="88.385" stroke="none" fill="#9276B5" transform="matrix(0.40444740653038025, 0, 0, 0.39866405725479126, 220.40261840820312, 148.34727478027344)"></circle><circle id="_tZxOVq8NZmZihZ3R8czwT" cx="88.385" cy="88.385" r="88.385" stroke="none" fill="#5B417A" transform="matrix(0.25382381677627563, 0, 0, 0.250225305557251, 290.66729736328125, 78.92356872558594)"></circle><circle id="_wWBKN3-cSb98_M4kCVt44" cx="88.385" cy="88.385" r="88.385" stroke="none" fill="#9276B5" transform="matrix(0.1818535178899765, 0, 0, 0.17928320169448853, 248.0758056640625, 65.59159088134766)"></circle><circle id="_ojBkuWnc-Vfs--lO1yGYg" cx="88.385" cy="88.385" r="88.385" stroke="none" fill="#5B417A" transform="matrix(0.29379308223724365, 0, 0, 0.2895519435405731, 230.1849822998047, 157.94876098632812)"></circle><circle id="_bIiJBuWSc2vpC79Bmh61O" cx="88.385" cy="88.385" r="88.385" stroke="none" fill="#FFFFFF" transform="matrix(0.11065433919429779, 0, 0, 0.10911212116479874, 234.8665313720703, 159.76124572753906)"></circle></g><path text="Image Accessibility " text-anchor="middle" font-size="100" letter-spacing="0" side="left" offset="0.5" dx="0" dy="0" space="preserve" href="" font-family="Bree Serif" font-scale="contain" transform="matrix(0.4736132025718689, 0, 0, 0.6087192296981812, 263.1804504394531, 329.0009460449219)" x="0" y="0" fill="#2A353D" data-fl-textpath="" id="_uXjD9pQNlbU4eudmFz1em" d="M-433.1000000000001-11.7L-433.1000000000001-11.7L-433.1000000000001-57.7L-438.80000000000007-58L-438.80000000000007-66.5L-414.6000000000001-66.5L-414.6000000000001-58.4L-417.90000000000003-58.1Q-420.80000000000007-57.8 -420.80000000000007-54.9L-420.80000000000007-54.9L-420.80000000000007-8.8L-415.1000000000001-8.5L-415.1000000000001 0L-439.30000000000007 0L-439.30000000000007-8.1L-436.00000000000006-8.4Q-434.50000000000006-8.6 -433.80000000000007-9.25Q-433.1000000000001-9.9 -433.1000000000001-11.7ZM-404.9000000000001-41.9L-409.1000000000001-42.2L-409.1000000000001-50.3L-392.20000000000005-50.3L-392.20000000000005-43.8Q-386.6000000000001-51.8 -376.8500000000001-51.8Q-367.1000000000001-51.8 -363.70000000000005-43.8L-363.70000000000005-43.8Q-358.1000000000001-51.8 -348.50000000000006-51.8L-348.50000000000006-51.8Q-341.30000000000007-51.8 -337.4000000000001-47.45Q-333.50000000000006-43.1 -333.50000000000006-34.4L-333.50000000000006-34.4L-333.50000000000006-8.3L-327.80000000000007-8L-327.80000000000007 0L-351.6000000000001 0L-351.6000000000001-7.6L-348.30000000000007-7.9Q-346.80000000000007-8.1 -346.1500000000001-8.75Q-345.50000000000006-9.4 -345.4000000000001-11.1L-345.4000000000001-11.1L-345.4000000000001-31.8Q-345.4000000000001-37.3 -346.6500000000001-39.95Q-347.9000000000001-42.6 -352.50000000000006-42.6Q-357.1000000000001-42.6 -359.55000000000007-39.8Q-362.00000000000006-37 -362.00000000000006-32.3L-362.00000000000006-32.3L-362.00000000000006-8.3L-356.50000000000006-8L-356.50000000000006 0L-380.1000000000001 0L-380.1000000000001-7.6L-376.80000000000007-7.9Q-375.30000000000007-8.1 -374.6000000000001-8.75Q-373.9000000000001-9.4 -373.9000000000001-11.2L-373.9000000000001-11.2L-373.9000000000001-31.8Q-373.9000000000001-37.3 -375.1500000000001-39.95Q-376.4000000000001-42.6 -381.05000000000007-42.6Q-385.70000000000005-42.6 -388.1000000000001-39.7Q-390.50000000000006-36.8 -390.50000000000006-32.5L-390.50000000000006-32.5L-390.50000000000006-8.3L-385.1000000000001-8L-385.1000000000001 0L-408.70000000000005 0L-408.70000000000005-7.6L-405.4000000000001-7.9Q-403.9000000000001-8.1 -403.20000000000005-8.75Q-402.50000000000006-9.4 -402.50000000000006-11.2L-402.50000000000006-11.2L-402.4000000000001-11.2L-402.4000000000001-38.8Q-402.4000000000001-40.5 -402.95000000000005-41.15Q-403.50000000000006-41.8 -404.9000000000001-41.9L-404.9000000000001-41.9ZM-277.00000000000006-48.3L-277.00000000000006-48.3L-277.00000000000006-11.1Q-277.00000000000006-9.5 -276.45000000000005-8.9Q-275.90000000000003-8.3 -274.50000000000006-8.2L-274.50000000000006-8.2L-271.30000000000007-8L-271.30000000000007 0L-287.20000000000005 0L-287.20000000000005-5.8L-287.50000000000006-5.9Q-292.50000000000006 1.3 -301.20000000000005 1.3L-301.20000000000005 1.3Q-311.40000000000003 1.3 -316.30000000000007-5.2Q-321.20000000000005-11.7 -321.20000000000005-23L-321.20000000000005-23Q-321.20000000000005-36.6 -314.6-44.2Q-308.00000000000006-51.8 -294.80000000000007-51.8L-294.80000000000007-51.8Q-286.30000000000007-51.8 -277.00000000000006-48.3ZM-288.6-15.9L-288.6-15.9L-288.6-41.8Q-291.40000000000003-43.1 -296.30000000000007-43.1L-296.30000000000007-43.1Q-303.00000000000006-43.1 -306.00000000000006-37.7Q-309.00000000000006-32.3 -309.00000000000006-23.4L-309.00000000000006-23.4Q-309.00000000000006-7.2 -298.6-7.2L-298.6-7.2Q-294.20000000000005-7.2 -291.40000000000003-9.85Q-288.6-12.5 -288.6-15.9ZM-220.70000000000005-0.1Q-221.60000000000005 11 -227.10000000000005 16.2Q-232.60000000000005 21.4 -244.30000000000007 21.4Q-256.00000000000006 21.4 -262.6000000000001 18.1L-262.6000000000001 18.1L-262.6000000000001 4.2L-253.10000000000005 3.4L-253.10000000000005 8.2Q-253.10000000000005 10.9 -250.60000000000005 11.85Q-248.10000000000005 12.8 -243.70000000000005 12.8L-243.70000000000005 12.8Q-237.30000000000007 12.8 -234.70000000000005 8.95Q-232.10000000000005 5.1 -232.10000000000005-1.9L-232.10000000000005-1.9L-232.10000000000005-7.4Q-236.90000000000006-1.8 -245.40000000000006-1.8L-245.40000000000006-1.8Q-250.60000000000005-1.8 -254.55000000000007-3.8Q-258.50000000000006-5.8 -260.70000000000005-9.2L-260.70000000000005-9.2Q-265.00000000000006-16 -265.00000000000006-25.2L-265.00000000000006-25.2Q-265.00000000000006-38.3 -257.90000000000003-45.05Q-250.80000000000007-51.8 -239.00000000000006-51.8L-239.00000000000006-51.8Q-229.20000000000005-51.8 -220.50000000000006-48.1L-220.50000000000006-48.1L-220.50000000000006-11Q-220.50000000000006-2.5 -220.70000000000005-0.1L-220.70000000000005-0.1ZM-232.10000000000005-20.4L-232.10000000000005-20.4L-232.10000000000005-41.9Q-235.60000000000005-43.1 -240.10000000000005-43.1L-240.10000000000005-43.1Q-246.20000000000005-43.1 -249.45000000000005-38.6Q-252.70000000000005-34.1 -252.70000000000005-26.4L-252.70000000000005-26.4Q-252.70000000000005-10.6 -242.30000000000007-10.6L-242.30000000000007-10.6Q-238.00000000000006-10.6 -235.05000000000007-13.25Q-232.10000000000005-15.9 -232.10000000000005-20.4ZM-185.70000000000002-51.8L-185.70000000000002-51.8Q-178.20000000000002-51.8 -173.8-48.15Q-169.40000000000003-44.5 -169.40000000000003-37.9L-169.40000000000003-37.9Q-169.40000000000003-33.5 -171.3-30.15Q-173.20000000000002-26.8 -176.00000000000003-24.9Q-178.8-23 -182.8-21.8L-182.8-21.8Q-189.50000000000003-19.8 -197.90000000000003-19.8L-197.90000000000003-19.8Q-197.60000000000002-14.5 -194.60000000000002-11.25Q-191.60000000000002-8 -185.40000000000003-8Q-179.20000000000002-8 -173.00000000000003-12.4L-173.00000000000003-12.4L-169.20000000000002-4.3Q-171.20000000000002-2.5 -175.95000000000002-0.6Q-180.70000000000002 1.3 -186.8 1.3L-186.8 1.3Q-199.00000000000003 1.3 -204.70000000000002-5.45Q-210.40000000000003-12.2 -210.40000000000003-24Q-210.40000000000003-35.8 -203.90000000000003-43.8Q-197.40000000000003-51.8 -185.70000000000002-51.8ZM-190.25000000000003-28.95Q-186.60000000000002-29.6 -183.50000000000003-31.85Q-180.40000000000003-34.1 -180.40000000000003-37.2L-180.40000000000003-37.2Q-180.40000000000003-43.3 -186.40000000000003-43.3L-186.40000000000003-43.3Q-192.00000000000003-43.3 -195.00000000000003-38.85Q-198.00000000000003-34.4 -198.3-28.2L-198.3-28.2Q-193.90000000000003-28.3 -190.25000000000003-28.95ZM-138.90000000000003-11.2L-138.90000000000003-11.2L-122.80000000000004-57.8L-129.10000000000005-58.4L-129.10000000000005-66.5L-106.20000000000005-66.5L-85.80000000000004-8.8L-85.70000000000005-8.8L-80.00000000000004-8.5L-80.00000000000004 0L-105.80000000000004 0L-105.80000000000004-8.1L-102.00000000000004-8.4Q-100.30000000000004-8.6 -99.70000000000005-9.2Q-99.10000000000005-9.8 -99.60000000000005-11.4L-99.60000000000005-11.4L-101.70000000000005-17.6L-125.10000000000005-17.6L-128.10000000000005-8.8L-122.10000000000005-8.5L-122.10000000000005 0L-145.20000000000005 0L-145.20000000000005-8.1L-141.90000000000003-8.4Q-139.80000000000004-8.6 -138.90000000000003-11.2ZM-113.10000000000005-55.3L-113.40000000000005-55.3L-122.70000000000005-26.8L-104.10000000000005-26.8L-113.10000000000005-55.3ZM-64.10000000000004-25.7Q-64.10000000000004-17.2 -60.90000000000004-12.5Q-57.700000000000045-7.8 -51.65000000000004-7.8Q-45.600000000000044-7.8 -39.700000000000045-12.1L-39.700000000000045-12.1L-35.40000000000004-4.4Q-42.50000000000004 1.4 -53.200000000000045 1.4Q-63.90000000000004 1.4 -70.05000000000004-5.35Q-76.20000000000005-12.1 -76.20000000000005-25.3Q-76.20000000000005-38.5 -69.15000000000005-45.15Q-62.100000000000044-51.8 -53.25000000000004-51.8Q-44.40000000000004-51.8 -36.80000000000004-47.7L-36.80000000000004-47.7L-36.80000000000004-34.7L-46.00000000000004-34L-46.00000000000004-38.8Q-46.00000000000004-41.5 -47.950000000000045-42.15Q-49.90000000000004-42.8 -52.00000000000004-42.8L-52.00000000000004-42.8Q-64.10000000000004-42.8 -64.10000000000004-25.7L-64.10000000000004-25.7ZM-17.000000000000043-25.7Q-17.000000000000043-17.2 -13.80000000000004-12.5Q-10.60000000000004-7.8 -4.55000000000004-7.8Q 1.4999999999999574-7.8  7.399999999999956-12.1L 7.399999999999956-12.1L 11.69999999999996-4.4Q 4.599999999999959 1.4 -6.1000000000000405 1.4Q-16.80000000000004 1.4 -22.950000000000042-5.35Q-29.10000000000004-12.1 -29.10000000000004-25.3Q-29.10000000000004-38.5 -22.05000000000004-45.15Q-15.000000000000043-51.8 -6.150000000000041-51.8Q 2.69999999999996-51.8  10.299999999999962-47.7L 10.299999999999962-47.7L 10.299999999999962-34.7L 1.0999999999999588-34L 1.0999999999999588-38.8Q 1.0999999999999588-41.5 -0.8500000000000405-42.15Q-2.80000000000004-42.8 -4.900000000000041-42.8L-4.900000000000041-42.8Q-17.000000000000043-42.8 -17.000000000000043-25.7L-17.000000000000043-25.7ZM 43.09999999999996-51.8L 43.09999999999996-51.8Q 50.59999999999996-51.8  54.99999999999996-48.15Q 59.39999999999996-44.5  59.39999999999996-37.9L 59.39999999999996-37.9Q 59.39999999999996-33.5  57.49999999999996-30.15Q 55.59999999999996-26.8  52.79999999999996-24.9Q 49.99999999999996-23  45.99999999999996-21.8L 45.99999999999996-21.8Q 39.29999999999996-19.8  30.89999999999996-19.8L 30.89999999999996-19.8Q 31.19999999999996-14.5  34.19999999999996-11.25Q 37.19999999999996-8  43.39999999999996-8Q 49.59999999999996-8  55.79999999999996-12.4L 55.79999999999996-12.4L 59.59999999999996-4.3Q 57.59999999999996-2.5  52.84999999999996-0.6Q 48.09999999999996 1.3  41.99999999999996 1.3L 41.99999999999996 1.3Q 29.79999999999996 1.3  24.09999999999996-5.45Q 18.39999999999996-12.2  18.39999999999996-24Q 18.39999999999996-35.8  24.89999999999996-43.8Q 31.39999999999996-51.8  43.09999999999996-51.8ZM 38.54999999999996-28.95Q 42.19999999999996-29.6  45.29999999999996-31.85Q 48.39999999999996-34.1  48.39999999999996-37.2L 48.39999999999996-37.2Q 48.39999999999996-43.3  42.39999999999996-43.3L 42.39999999999996-43.3Q 36.79999999999996-43.3  33.79999999999996-38.85Q 30.79999999999996-34.4  30.49999999999996-28.2L 30.49999999999996-28.2Q 34.89999999999996-28.3  38.54999999999996-28.95ZM 92.59999999999997-42.7L 92.59999999999997-42.7Q 90.19999999999996-43.6  86.79999999999997-43.6Q 83.39999999999996-43.6  81.34999999999997-42.05Q 79.29999999999997-40.5  79.29999999999997-38.25Q 79.29999999999997-36  80.04999999999997-34.75Q 80.79999999999997-33.5  82.39999999999996-32.6L 82.39999999999996-32.6Q 84.89999999999996-31.3  88.39999999999996-30.35Q 91.89999999999996-29.4  93.59999999999997-28.85Q 95.29999999999997-28.3  97.84999999999997-27Q 100.39999999999996-25.7  101.69999999999996-24.2L 101.69999999999996-24.2Q 105.19999999999996-20.5  105.19999999999996-14.7L 105.19999999999996-14.7Q 105.19999999999996-7.2  99.74999999999997-2.95Q 94.29999999999997 1.3  85.89999999999996 1.3L 85.89999999999996 1.3Q 73.69999999999996 1.3  67.49999999999997-1.8L 67.49999999999997-1.8L 67.49999999999997-15.7L 76.49999999999997-16.4L 76.49999999999997-11.6Q 76.49999999999997-7.2  84.89999999999996-7.2Q 93.29999999999997-7.2  93.29999999999997-13.3L 93.29999999999997-13.3Q 93.29999999999997-15.5  91.84999999999997-16.9Q 90.39999999999996-18.3  88.99999999999997-18.8Q 87.59999999999997-19.3  85.64999999999996-19.8Q 83.69999999999996-20.3  81.84999999999997-20.8Q 79.99999999999997-21.3  77.84999999999997-22.15Q 75.69999999999996-23  73.09999999999997-24.6L 73.09999999999997-24.6Q 67.99999999999997-27.9  67.99999999999997-35.65Q 67.99999999999997-43.4  73.49999999999997-47.6Q 78.99999999999997-51.8  87.34999999999997-51.8Q 95.69999999999996-51.8  103.89999999999996-47.8L 103.89999999999996-47.8L 103.89999999999996-35.8L 94.89999999999996-35.1L 94.89999999999996-39.3Q 94.89999999999996-41.8  92.59999999999997-42.7ZM 137.7-42.7L 137.7-42.7Q 135.29999999999998-43.6  131.89999999999998-43.6Q 128.49999999999997-43.6  126.44999999999997-42.05Q 124.39999999999998-40.5  124.39999999999998-38.25Q 124.39999999999998-36  125.14999999999998-34.75Q 125.89999999999998-33.5  127.49999999999997-32.6L 127.49999999999997-32.6Q 129.99999999999997-31.3  133.49999999999997-30.35Q 136.99999999999997-29.4  138.7-28.85Q 140.39999999999998-28.3  142.95-27Q 145.49999999999997-25.7  146.79999999999998-24.2L 146.79999999999998-24.2Q 150.29999999999998-20.5  150.29999999999998-14.7L 150.29999999999998-14.7Q 150.29999999999998-7.2  144.84999999999997-2.95Q 139.39999999999998 1.3  130.99999999999997 1.3L 130.99999999999997 1.3Q 118.79999999999997 1.3  112.59999999999998-1.8L 112.59999999999998-1.8L 112.59999999999998-15.7L 121.59999999999998-16.4L 121.59999999999998-11.6Q 121.59999999999998-7.2  129.99999999999997-7.2Q 138.39999999999998-7.2  138.39999999999998-13.3L 138.39999999999998-13.3Q 138.39999999999998-15.5  136.95-16.9Q 135.49999999999997-18.3  134.09999999999997-18.8Q 132.7-19.3  130.74999999999997-19.8Q 128.79999999999998-20.3  126.94999999999997-20.8Q 125.09999999999997-21.3  122.94999999999997-22.15Q 120.79999999999997-23  118.19999999999997-24.6L 118.19999999999997-24.6Q 113.09999999999998-27.9  113.09999999999998-35.65Q 113.09999999999998-43.4  118.59999999999998-47.6Q 124.09999999999998-51.8  132.45-51.8Q 140.79999999999998-51.8  148.99999999999997-47.8L 148.99999999999997-47.8L 148.99999999999997-35.8L 139.99999999999997-35.1L 139.99999999999997-39.3Q 139.99999999999997-41.8  137.7-42.7ZM 156.79999999999995-50.3L 174.69999999999996-50.3L 174.69999999999996-8.3L 180.39999999999995-8L 180.39999999999995 0L 156.59999999999997 0L 156.59999999999997-7.6L 159.89999999999995-7.9Q 162.79999999999995-8.2  162.79999999999995-11.1L 162.79999999999995-11.1L 162.79999999999995-38.9Q 162.79999999999995-40.6  162.24999999999994-41.2Q 161.69999999999996-41.8  160.29999999999995-41.8L 160.29999999999995-41.8L 156.79999999999995-42L 156.79999999999995-50.3ZM 162.09999999999997-58.95Q 159.99999999999994-61  159.99999999999994-64.2Q 159.99999999999994-67.4  162.09999999999997-69.55Q 164.19999999999996-71.7  167.59999999999997-71.7Q 170.99999999999994-71.7  173.14999999999995-69.55Q 175.29999999999995-67.4  175.29999999999995-64.2Q 175.29999999999995-61  173.14999999999995-58.95Q 170.99999999999994-56.9  167.59999999999997-56.9Q 164.19999999999996-56.9  162.09999999999997-58.95ZM 190.59999999999994-3L 190.59999999999994-3L 190.59999999999994-60.4Q 190.59999999999994-62.7  188.09999999999994-62.8L 188.09999999999994-62.8L 184.59999999999994-63L 184.59999999999994-71.3L 202.19999999999996-71.3L 202.19999999999996-47.6Q 206.69999999999996-51.8  214.29999999999995-51.8L 214.29999999999995-51.8Q 223.69999999999993-51.8  229.19999999999993-45.45Q 234.69999999999993-39.1  234.69999999999993-27.6L 234.69999999999993-27.6Q 234.69999999999993 1.3  210.49999999999994 1.3L 210.49999999999994 1.3Q 205.29999999999995 1.3  199.54999999999995 0.05Q 193.79999999999995-1.2  190.59999999999994-3ZM 202.19999999999996-35.4L 202.19999999999996-35.4L 202.19999999999996-9.5Q 205.99999999999994-7.5  210.99999999999994-7.5L 210.99999999999994-7.5Q 222.39999999999995-7.5  222.39999999999995-26L 222.39999999999995-26Q 222.39999999999995-42.9  211.19999999999996-42.9L 211.19999999999996-42.9Q 207.59999999999994-42.9  204.89999999999995-40.8Q 202.19999999999996-38.7  202.19999999999996-35.4ZM 241.99999999999994-50.3L 259.8999999999999-50.3L 259.8999999999999-8.3L 265.59999999999997-8L 265.59999999999997 0L 241.79999999999995 0L 241.79999999999995-7.6L 245.09999999999994-7.9Q 247.99999999999994-8.2  247.99999999999994-11.1L 247.99999999999994-11.1L 247.99999999999994-38.9Q 247.99999999999994-40.6  247.44999999999993-41.2Q 246.89999999999995-41.8  245.49999999999994-41.8L 245.49999999999994-41.8L 241.99999999999994-42L 241.99999999999994-50.3ZM 247.29999999999995-58.95Q 245.19999999999993-61  245.19999999999993-64.2Q 245.19999999999993-67.4  247.29999999999995-69.55Q 249.39999999999995-71.7  252.79999999999995-71.7Q 256.19999999999993-71.7  258.34999999999997-69.55Q 260.49999999999994-67.4  260.49999999999994-64.2Q 260.49999999999994-61  258.34999999999997-58.95Q 256.19999999999993-56.9  252.79999999999995-56.9Q 249.39999999999995-56.9  247.29999999999995-58.95ZM 271.4-71.3L 289.29999999999995-71.3L 289.29999999999995-8.3L 294.99999999999994-8L 294.99999999999994 0L 271.2 0L 271.2-7.6L 274.49999999999994-7.9Q 277.4-8.2  277.4-11.1L 277.4-11.1L 277.4-60.4Q 277.4-62.6  274.9-62.8L 274.9-62.8L 271.4-63L 271.4-71.3ZM 301.4-50.3L 319.29999999999995-50.3L 319.29999999999995-8.3L 325-8L 325 0L 301.2 0L 301.2-7.6L 304.5-7.9Q 307.4-8.2  307.4-11.1L 307.4-11.1L 307.4-38.9Q 307.4-40.6  306.84999999999997-41.2Q 306.29999999999995-41.8  304.9-41.8L 304.9-41.8L 301.4-42L 301.4-50.3ZM 306.7-58.95Q 304.59999999999997-61  304.59999999999997-64.2Q 304.59999999999997-67.4  306.7-69.55Q 308.79999999999995-71.7  312.2-71.7Q 315.59999999999997-71.7  317.75-69.55Q 319.9-67.4  319.9-64.2Q 319.9-61  317.75-58.95Q 315.59999999999997-56.9  312.2-56.9Q 308.79999999999995-56.9  306.7-58.95ZM 341.9-60.9L 341.9-60.9L 348.4-60.9L 348.4-50.3L 361.7-50.3L 360.7-41.9L 348.4-41.9L 348.4-15.6Q 348.4-11.2  350-9.45Q 351.6-7.7  354.95-7.7Q 358.3-7.7  361.7-9.8L 361.7-9.8L 364.7-2.1Q 359.7 1.4  352 1.4L 352 1.4Q 347.5 1.4  344.4 0.25Q 341.3-0.9  339.8-2.3Q 338.3-3.7  337.5-6.4Q 336.7-9.1  336.6-10.65Q 336.5-12.2  336.5-15.2L 336.5-15.2L 336.5-41.9L 329.4-41.9L 330.4-49.2Q 335.1-49.6  337.5-52.55Q 339.9-55.5  341.9-60.9ZM 405.3-1.9L 405.3-1.9L 405.3-9.5Q 399.8-1.7  389.09999999999997-1.7L 389.09999999999997-1.7Q 373.59999999999997-1.7  373.59999999999997-19L 373.59999999999997-19L 373.59999999999997-39.1Q 373.59999999999997-41.8  371.09999999999997-41.9L 371.09999999999997-41.9L 367.9-42.1L 367.9-50.3L 385.5-50.3L 385.5-21.6Q 385.5-16.3  387-13.6Q 388.5-10.9  393.2-10.9Q 397.9-10.9  400.75-13.8Q 403.59999999999997-16.7  403.59999999999997-20.8L 403.59999999999997-20.8L 403.59999999999997-38.9Q 403.59999999999997-40.6  403.05-41.25Q 402.5-41.9  401.09999999999997-41.9L 401.09999999999997-41.9L 397.9-42.1L 397.9-50.3L 415.5-50.3L 415.5-1.9Q 415.5 10.2  409.65 15.8Q 403.8 21.4  391.95 21.4Q 380.09999999999997 21.4  373.5 18.1L 373.5 18.1L 373.5 4.2L 383 3.4L 383 8.2Q 383 10.9  385.5 11.85Q 388 12.8  392.4 12.8L 392.4 12.8Q 405.3 12.8  405.3-1.9Z"></path><path text="Chrome Ext" text-anchor="middle" font-size="100" letter-spacing="0" side="left" offset="0.5" dx="0" dy="0" space="preserve" href="" font-family="Bree Serif" font-scale="contain" transform="matrix(0.9167416095733643, 0, 0, 0.9167416095733643, 254.3957061767578, 407.3912048339844)" x="0" y="0" fill="#5B417A" data-fl-textpath="" id="_whTTKCN97RQ1gOJIYdiqp" d="M-215.50000000000003-55.9L-215.50000000000003-55.9Q-216.60000000000002-57.8 -223.70000000000002-57.8L-223.70000000000002-57.8Q-233.00000000000003-57.8 -237.8-51.5Q-242.60000000000002-45.2 -242.60000000000002-33.3L-242.60000000000002-33.3Q-242.60000000000002-8.6 -224.10000000000002-8.6L-224.10000000000002-8.6Q-223.8-8.6 -221.45000000000002-8.6Q-219.10000000000002-8.6 -217.00000000000003-9.25Q-214.90000000000003-9.9 -214.50000000000003-10.6Q-214.10000000000002-11.3 -214.10000000000002-12.8L-214.10000000000002-12.8L-214.10000000000002-20.8L-203.90000000000003-20.1L-203.90000000000003-2.8Q-211.70000000000002 1.3 -223.70000000000002 1.3L-223.70000000000002 1.3Q-239.00000000000003 1.3 -247.05-7.3Q-255.10000000000002-15.9 -255.10000000000002-32.9L-255.10000000000002-32.9Q-255.10000000000002-42.3 -252.40000000000003-49.3Q-249.70000000000002-56.3 -245.10000000000002-60.2L-245.10000000000002-60.2Q-236.10000000000002-67.7 -223.70000000000002-67.7L-223.70000000000002-67.7Q-213.70000000000002-67.7 -204.90000000000003-63.6L-204.90000000000003-63.6L-204.90000000000003-46.6L-215.10000000000002-45.9L-215.10000000000002-53.7Q-215.10000000000002-55.2 -215.50000000000003-55.9ZM-189.50000000000003-11.2L-189.50000000000003-11.2L-189.50000000000003-59.9Q-189.50000000000003-61.5 -190.05000000000004-62.1Q-190.60000000000002-62.7 -192.00000000000003-62.8L-192.00000000000003-62.8L-195.50000000000003-63L-195.50000000000003-71.3L-177.70000000000005-71.3L-177.70000000000005-44.4Q-172.50000000000003-51.8 -163.10000000000002-51.8L-163.10000000000002-51.8Q-155.50000000000003-51.8 -151.35000000000002-47.45Q-147.20000000000005-43.1 -147.20000000000005-34.4L-147.20000000000005-34.4L-147.20000000000005-8.3L-141.50000000000003-8L-141.50000000000003 0L-165.30000000000004 0L-165.30000000000004-7.6L-162.00000000000003-7.9Q-160.50000000000003-8.1 -159.80000000000004-8.75Q-159.10000000000002-9.4 -159.10000000000002-11.2L-159.10000000000002-11.2L-159.10000000000002-31.8Q-159.10000000000002-37 -160.75000000000003-39.8Q-162.40000000000003-42.6 -167.15000000000003-42.6Q-171.90000000000003-42.6 -174.75000000000003-39.65Q-177.60000000000002-36.7 -177.60000000000002-32.5L-177.60000000000002-32.5L-177.60000000000002-8.3L-171.90000000000003-8L-171.90000000000003 0L-195.70000000000005 0L-195.70000000000005-7.6L-192.40000000000003-7.9Q-190.90000000000003-8.1 -190.20000000000005-8.75Q-189.50000000000003-9.4 -189.50000000000003-11.2ZM-129.40000000000003-11.2L-129.40000000000003-11.2L-129.40000000000003-38.9Q-129.40000000000003-40.5 -129.95000000000005-41.15Q-130.50000000000003-41.8 -131.90000000000003-41.9L-131.90000000000003-41.9L-136.10000000000002-42.2L-136.10000000000002-50.3L-119.20000000000003-50.3L-119.20000000000003-42.8Q-117.40000000000003-46.7 -113.60000000000004-49.25Q-109.80000000000004-51.8 -104.85000000000004-51.8Q-99.90000000000003-51.8 -95.40000000000003-49.6L-95.40000000000003-49.6L-95.40000000000003-34.7L-104.70000000000003-34L-104.70000000000003-38.6Q-104.70000000000003-40.6 -105.70000000000003-41.1L-105.70000000000003-41.1Q-106.80000000000004-41.6 -108.40000000000003-41.6L-108.40000000000003-41.6Q-112.40000000000003-41.6 -114.95000000000003-38.75Q-117.50000000000003-35.9 -117.50000000000003-31.5L-117.50000000000003-31.5L-117.50000000000003-8.3L-108.80000000000004-7.9L-108.80000000000004 0L-135.60000000000002 0L-135.60000000000002-7.6L-132.30000000000004-7.9Q-130.80000000000004-8.1 -130.10000000000002-8.75Q-129.40000000000003-9.4 -129.40000000000003-11.2ZM-68.40000000000003-7.3L-68.40000000000003-7.3Q-57.50000000000003-7.3 -57.50000000000003-24.9L-57.50000000000003-24.9Q-57.50000000000003-33.8 -59.95000000000003-38.4Q-62.400000000000034-43 -68.15000000000003-43Q-73.90000000000003-43 -76.60000000000002-38.6Q-79.30000000000003-34.2 -79.30000000000003-26.6L-79.30000000000003-26.6Q-79.30000000000003-12.5 -74.10000000000002-8.9L-74.10000000000002-8.9Q-71.80000000000004-7.3 -68.40000000000003-7.3ZM-91.40000000000003-25.2L-91.40000000000003-25.2Q-91.40000000000003-32.6 -89.20000000000003-38.05Q-87.00000000000003-43.5 -83.30000000000003-46.4L-83.30000000000003-46.4Q-76.20000000000003-51.8 -67.60000000000002-51.8L-67.60000000000002-51.8Q-61.60000000000003-51.8 -57.45000000000003-49.85Q-53.30000000000003-47.9 -50.95000000000003-45.35Q-48.60000000000003-42.8 -46.95000000000003-37.95Q-45.30000000000003-33.1 -45.30000000000003-26.5L-45.30000000000003-26.5Q-45.30000000000003-12.7 -52.00000000000003-5.6Q-58.70000000000003 1.5 -69.15000000000003 1.5Q-79.60000000000004 1.5 -85.50000000000003-5.25Q-91.40000000000003-12 -91.40000000000003-25.2ZM-35.00000000000003-41.9L-39.200000000000024-42.2L-39.200000000000024-50.3L-22.300000000000026-50.3L-22.300000000000026-43.8Q-16.700000000000028-51.8 -6.950000000000024-51.8Q 2.799999999999976-51.8  6.199999999999974-43.8L 6.199999999999974-43.8Q 11.799999999999976-51.8  21.39999999999997-51.8L 21.39999999999997-51.8Q 28.599999999999973-51.8  32.49999999999998-47.45Q 36.39999999999997-43.1  36.39999999999997-34.4L 36.39999999999997-34.4L 36.39999999999997-8.3L 42.09999999999997-8L 42.09999999999997 0L 18.299999999999976 0L 18.299999999999976-7.6L 21.599999999999973-7.9Q 23.099999999999973-8.1  23.74999999999998-8.75Q 24.39999999999997-9.4  24.49999999999998-11.1L 24.49999999999998-11.1L 24.49999999999998-31.8Q 24.49999999999998-37.3  23.24999999999998-39.95Q 21.99999999999997-42.6  17.39999999999997-42.6Q 12.799999999999976-42.6  10.349999999999973-39.8Q 7.89999999999997-37  7.89999999999997-32.3L 7.89999999999997-32.3L 7.89999999999997-8.3L 13.39999999999997-8L 13.39999999999997 0L-10.200000000000028 0L-10.200000000000028-7.6L-6.900000000000027-7.9Q-5.400000000000027-8.1 -4.700000000000024-8.75Q-4.000000000000028-9.4 -4.000000000000028-11.2L-4.000000000000028-11.2L-4.000000000000028-31.8Q-4.000000000000028-37.3 -5.250000000000028-39.95Q-6.500000000000028-42.6 -11.150000000000027-42.6Q-15.800000000000026-42.6 -18.200000000000028-39.7Q-20.600000000000026-36.8 -20.600000000000026-32.5L-20.600000000000026-32.5L-20.600000000000026-8.3L-15.200000000000028-8L-15.200000000000028 0L-38.800000000000026 0L-38.800000000000026-7.6L-35.50000000000003-7.9Q-34.00000000000003-8.1 -33.300000000000026-8.75Q-32.60000000000002-9.4 -32.60000000000002-11.2L-32.60000000000002-11.2L-32.50000000000003-11.2L-32.50000000000003-38.8Q-32.50000000000003-40.5 -33.050000000000026-41.15Q-33.60000000000002-41.8 -35.00000000000003-41.9L-35.00000000000003-41.9ZM 73.09999999999997-51.8L 73.09999999999997-51.8Q 80.59999999999997-51.8  84.99999999999997-48.15Q 89.39999999999998-44.5  89.39999999999998-37.9L 89.39999999999998-37.9Q 89.39999999999998-33.5  87.49999999999997-30.15Q 85.59999999999997-26.8  82.79999999999998-24.9Q 79.99999999999997-23  75.99999999999997-21.8L 75.99999999999997-21.8Q 69.29999999999998-19.8  60.89999999999998-19.8L 60.89999999999998-19.8Q 61.199999999999974-14.5  64.19999999999997-11.25Q 67.19999999999997-8  73.39999999999998-8Q 79.59999999999997-8  85.79999999999998-12.4L 85.79999999999998-12.4L 89.59999999999997-4.3Q 87.59999999999997-2.5  82.84999999999997-0.6Q 78.09999999999997 1.3  71.99999999999997 1.3L 71.99999999999997 1.3Q 59.799999999999976 1.3  54.09999999999997-5.45Q 48.39999999999998-12.2  48.39999999999998-24Q 48.39999999999998-35.8  54.89999999999998-43.8Q 61.39999999999998-51.8  73.09999999999997-51.8ZM 68.54999999999998-28.95Q 72.19999999999997-29.6  75.29999999999998-31.85Q 78.39999999999998-34.1  78.39999999999998-37.2L 78.39999999999998-37.2Q 78.39999999999998-43.3  72.39999999999998-43.3L 72.39999999999998-43.3Q 66.79999999999998-43.3  63.799999999999976-38.85Q 60.799999999999976-34.4  60.49999999999997-28.2L 60.49999999999997-28.2Q 64.89999999999998-28.3  68.54999999999998-28.95ZM 164-17.8L 164 0L 116.50000000000001 0L 116.50000000000001-8.1L 119.80000000000001-8.4Q 122.7-8.7  122.7-11.2L 122.7-11.2L 122.7-57.7L 117.00000000000001-58L 117.00000000000001-66.5L 162.8-66.5L 162.8-49.9L 152.60000000000002-49.2L 152.60000000000002-53.2Q 152.60000000000002-54.9  152.10000000000002-55.6Q 151.60000000000002-56.3  149.70000000000002-56.3L 149.70000000000002-56.3L 134.9-56.3L 134.9-39.2L 158-39.2L 158-29L 134.9-29L 134.9-10.3L 151-10.3Q 152.8-10.3  153.3-11.05Q 153.8-11.8  153.8-13.5L 153.8-13.5L 153.8-18.5L 164-17.8ZM 199.9-10.6L 199.9-10.6L 193.8-18.6L 185.5-8.3L 190.2-8L 190.2 0L 169.4 0L 169.4-7.9L 172.5-8.2Q 174.8-8.5  176.5-10.6L 176.5-10.6L 188-25L 175.7-42L 170.6-42.6L 170.6-50.3L 193.9-50.3L 193.9-42.4L 191-42.2Q 189.8-42.1  189.45-41.3Q 189.1-40.5  189.8-39.6L 189.8-39.6L 195.5-32L 203.2-42L 199.1-42.3L 199.1-50.3L 219.4-50.3L 219.4-42.5L 216.4-42.3Q 214.3-42.2  212.4-39.8L 212.4-39.8L 201.4-25.9L 214.5-8.5L 219.6-7.9L 219.6 0L 195.8 0L 195.8-7.9L 198.9-8.1Q 200.2-8.2  200.45-8.95Q 200.7-9.7  199.9-10.6ZM 235.8-60.9L 235.8-60.9L 242.3-60.9L 242.3-50.3L 255.60000000000002-50.3L 254.60000000000002-41.9L 242.3-41.9L 242.3-15.6Q 242.3-11.2  243.9-9.45Q 245.5-7.7  248.85-7.7Q 252.20000000000002-7.7  255.60000000000002-9.8L 255.60000000000002-9.8L 258.6-2.1Q 253.60000000000002 1.4  245.9 1.4L 245.9 1.4Q 241.4 1.4  238.3 0.25Q 235.20000000000002-0.9  233.70000000000002-2.3Q 232.20000000000002-3.7  231.4-6.4Q 230.6-9.1  230.5-10.65Q 230.4-12.2  230.4-15.2L 230.4-15.2L 230.4-41.9L 223.3-41.9L 224.3-49.2Q 229-49.6  231.4-52.55Q 233.8-55.5  235.8-60.9Z"></path></svg>