<svg xmlns:xlink="http://www.w3.org/1999/xlink" xmlns="http://www.w3.org/2000/svg" viewBox="166.98796289813527 306.76543683159343 178.63458199000343 84.37217419993885" width="178.63458199000343"  height="84.37217419993885" ><path xmlns="http://www.w3.org/2000/svg" fill="#304552" transform="matrix(1.2210155725479126, 0, 0, 1.2210155725479126, 256, 389.9165954589844)" text="ART" text-anchor="middle" font-size="100" letter-spacing="0" side="left" offset="0.5" dx="0" dy="0" space="preserve" href="" font-family="Glass Antiqua" font-scale="contain" x="0" y="0" data-fl-textpath="" d="M-24.200000000000003-5.2L-21.700000000000003-5.2Q-19.400000000000006-5.2 -19.400000000000006-2.6Q-19.400000000000006 0 -21.700000000000003 0L-21.700000000000003 0L-32.7 0Q-35.10000000000001 0 -35.10000000000001-2.6Q-35.10000000000001-5.2 -32.7-5.2L-32.7-5.2L-30.400000000000006-5.2L-33.300000000000004-14.3L-60.00000000000001-14.3L-62.800000000000004-5.2L-60.400000000000006-5.2Q-58.00000000000001-5.2 -58.00000000000001-2.6Q-58.00000000000001 0 -60.400000000000006 0L-60.400000000000006 0L-70.5 0Q-72.9 0 -72.9-2.6Q-72.9-5.2 -70.5-5.2L-70.5-5.2L-68-5.2L-51.400000000000006-58.5L-55.400000000000006-58.5Q-57.7-58.5 -57.7-61.15Q-57.7-63.8 -55.400000000000006-63.8L-55.400000000000006-63.8L-45.10000000000001-63.8Q-42.900000000000006-63.8 -42.400000000000006-62.4L-42.400000000000006-62.4L-24.200000000000003-5.2ZM-46.7-58.1L-58.7-19.1L-34.50000000000001-19.1L-46.7-58.1ZM 20.799999999999997-3.1Q 20.799999999999997-5.6  22.39999999999999-7.6Q 23.999999999999993-9.6  25.699999999999996-9.6L 25.699999999999996-9.6Q 29.099999999999994-9.6  29.099999999999994-6.1L 29.099999999999994-6.1Q 29.099999999999994-3.3  26.749999999999993-1.15Q 24.39999999999999 1  20.89999999999999 1L 20.89999999999999 1Q 13.599999999999994 1  8.799999999999994-8.2L 8.799999999999994-8.2Q 6.799999999999994-12.1  5.299999999999994-13.8L 5.299999999999994-13.8Q 2.6999999999999957-16.6 -1.350000000000005-16.6Q-5.400000000000006-16.6 -5.400000000000006-15.9L-5.400000000000006-15.9L-5.400000000000006-5.2L-2.7000000000000064-5.2Q-0.30000000000000426-5.2 -0.30000000000000426-2.6Q-0.30000000000000426 0 -2.7000000000000064 0L-2.7000000000000064 0L-13.500000000000005 0Q-15.900000000000006 0 -15.900000000000006-2.6Q-15.900000000000006-5.2 -13.500000000000005-5.2L-13.500000000000005-5.2L-11.100000000000005-5.2L-11.100000000000005-58.5L-13.500000000000005-58.5Q-15.900000000000006-58.5 -15.900000000000006-61.15Q-15.900000000000006-63.8 -13.500000000000005-63.8L-13.500000000000005-63.8L-3.2000000000000064-63.8Q 10.499999999999993-63.8  18.999999999999993-57.8Q 27.499999999999993-51.8  27.499999999999993-40.8L 27.499999999999993-40.8Q 27.499999999999993-31.5  21.849999999999994-24.95Q 16.199999999999996-18.4  7.199999999999996-17.7L 7.199999999999996-17.7Q 13.099999999999994-16  15.199999999999996-10L 15.199999999999996-10Q 16.499999999999993-6.3  17.549999999999997-4.85Q 18.599999999999994-3.4  20.799999999999997-3.1L 20.799999999999997-3.1ZM 2.9499999999999957-21.5Q 11.299999999999994-21.5  16.699999999999996-26.75Q 22.099999999999994-32  22.099999999999994-40.8Q 22.099999999999994-49.6  15.299999999999997-54.45Q 8.499999999999993-59.3 -1.100000000000005-59.3L-1.100000000000005-59.3Q-5.400000000000006-59.3 -5.400000000000006-58L-5.400000000000006-58L-5.400000000000006-22.6Q-5.400000000000006-21.5  2.9499999999999957-21.5ZM 33.099999999999994-68.1Q 34.3-68.1  35.099999999999994-67.35Q 35.9-66.6  35.9-65.8Q 35.9-65  35.199999999999996-63.8L 35.199999999999996-63.8L 67.3-63.8L 67.6-64.7Q 68.5-67.5  70.6-67.5L 70.6-67.5Q 71.7-67.5  72.55-66.75Q 73.39999999999999-66  73.39999999999999-65Q 73.39999999999999-64  72.89999999999999-63L 72.89999999999999-63L 69.2-56.1Q 68.3-54.4  67.3-54.4L 67.3-54.4Q 65.2-54.4  65.2-56.3L 65.2-56.3Q 65.2-56.9  65.39999999999999-57.3L 65.39999999999999-57.3L 65.89999999999999-59L 52.3-59L 52.3-5.2L 54.9-5.2Q 57.3-5.2  57.3-2.6Q 57.3 0  54.9 0L 54.9 0L 44.099999999999994 0Q 41.699999999999996 0  41.699999999999996-2.6Q 41.699999999999996-5.2  44.099999999999994-5.2L 44.099999999999994-5.2L 46.599999999999994-5.2L 46.599999999999994-59L 33.099999999999994-59L 31.5-56.4Q 30.7-55.2  29.7-55.2Q 28.7-55.2  28.15-55.75Q 27.599999999999998-56.3  27.599999999999998-57.05Q 27.599999999999998-57.8  27.9-58.5L 27.9-58.5L 30.299999999999997-65.6Q 31.099999999999998-68.1  33.099999999999994-68.1L 33.099999999999994-68.1Z"></path></svg>