<svg xmlns:xlink="http://www.w3.org/1999/xlink" xmlns="http://www.w3.org/2000/svg" viewBox="174.6380753518515 120.61818732477013 165.13986997255415 165.17543540986298" width="165.13986997255415"  height="165.17543540986298" ><g xmlns="http://www.w3.org/2000/svg" transform="matrix(0.8736193776130676, 0, 0, 0.8736193776130676, 33.44235610961914, 41.034915924072266)"><path id="_1arn7w_6btufp2oK_nF13" d="M80.632,19.368C72.45,11.186,61.571,6.679,50,6.68c-11.571,0-22.45,4.506-30.632,12.688   c-4.959,4.961-8.543,10.841-10.651,17.477c-0.167,0.526,0.124,1.088,0.65,1.256c0.524,0.166,1.088-0.124,1.256-0.65   c2.01-6.328,5.429-11.936,10.159-16.668C28.586,12.978,38.963,8.68,50,8.68c11.037,0,21.414,4.298,29.218,12.102   c3.29,3.291,5.896,7.007,7.843,10.968c-1.917-1.884-4.527-2.705-7.485-2.311c-2.505,0.333-4.014,1.754-5.474,3.129   c-0.107,0.102-0.216,0.204-0.325,0.306c-1.814-1.962-4.042-3.881-8.316-3.438c-4.299,0.443-7.369,4.021-7.992,9.2   c-0.932-0.147-1.914-0.161-2.938-0.024c-2.069,0.275-3.457,1.295-4.7,2.416v-4.252c4.287-0.328,7.676-3.912,7.676-8.28v-6.551   c0-4.584-3.729-8.314-8.314-8.314c-4.584,0-8.313,3.73-8.313,8.314v6.551c0,4.119,3.015,7.539,6.952,8.191v4.45   c-1.678-1.597-3.824-2.901-7.416-2.528c-0.033,0.003-0.063,0.011-0.096,0.015L27.056,25.361l8.801,0.978l0.221-1.987l-12.563-1.396   l1.115,12.817l1.992-0.173l-0.747-8.592l12.197,12.197c-3.001,1.265-5.082,4.314-5.628,8.391c-1.458-2.41-4.096-4.03-7.113-4.03   c-4.584,0-8.313,3.73-8.313,8.314v6.551c0,4.119,3.015,7.538,6.952,8.191v2.162c-1.687-2.155-4.567-4.578-9.005-4.578   c-0.76,0-1.552,0.072-2.351,0.215l-0.971,0.173l0.159,0.973c0.015,0.094,0.039,0.196,0.059,0.295   c-2.406-5.787-3.505-12.107-3.098-18.503c0.035-0.551-0.383-1.026-0.935-1.062c-0.551-0.043-1.027,0.383-1.062,0.935   c-0.792,12.427,3.8,24.602,12.6,33.402C27.55,88.814,38.429,93.32,50,93.32s22.45-4.506,30.632-12.688   C97.522,63.742,97.522,36.259,80.632,19.368z M73.878,57.076c-0.278,0-1.313-0.236-4.901-2.425   c-6.76-4.134-9.989-9.196-9.596-15.046c0.234-3.499,2.021-7.741,6.284-8.181c0.349-0.036,0.68-0.053,0.996-0.053   c3.094,0,4.651,1.74,6.3,3.583l0.657,0.734l0.744-0.646c0.385-0.335,0.751-0.679,1.111-1.018c1.341-1.263,2.499-2.354,4.365-2.603   c2.466-0.327,4.521,0.335,6.027,1.947c1.735,1.856,2.603,4.822,2.379,8.139c-0.332,4.967-3.561,9.354-9.596,13.038   c-0.229,0.141-0.492,0.306-0.775,0.484c-1.117,0.705-3.198,2.019-3.992,2.048 M51.429,34.39c-2.457-1.08-3.502-4.251-3.916-6.208   c0.54,0.128,1.1,0.203,1.678,0.203c2.699,0,5.055-1.479,6.314-3.664v3.773C55.505,31.187,53.807,33.484,51.429,34.39z    M47.686,16.053c0.446,0.296,1.077,0.764,1.669,1.36c-0.056-0.002-0.108-0.017-0.164-0.017c-2.041,0-3.701,1.66-3.701,3.701   s1.66,3.701,3.701,3.701c1.994,0,3.614-1.588,3.688-3.565l0.004,0c0.005-0.032,0.002-0.062,0.006-0.093   c0-0.015,0.004-0.028,0.004-0.043c0-0.004-0.001-0.008-0.001-0.012c0.22-2.042-0.834-3.745-2.021-4.979   c2.09,0.707,3.609,2.664,3.609,4.99c0,2.916-2.372,5.287-5.288,5.287c-2.916,0-5.288-2.372-5.288-5.287   C43.903,18.708,45.506,16.707,47.686,16.053z M50.892,21.098c0,0.938-0.763,1.701-1.701,1.701s-1.701-0.763-1.701-1.701   s0.763-1.701,1.701-1.701S50.892,20.16,50.892,21.098z M42.877,28.494v-3.772c0.596,1.034,1.438,1.906,2.446,2.541   c0.18,1.377,0.873,5.141,3.206,7.509C45.357,34.44,42.877,31.752,42.877,28.494z M34.334,48.777   c0.235-3.499,2.021-7.741,6.284-8.18c3.791-0.391,5.415,1.426,7.297,3.529l0.657,0.734l0.744-0.646   c0.385-0.335,0.75-0.678,1.11-1.018c1.341-1.263,2.5-2.354,4.367-2.603c0.907-0.121,1.763-0.105,2.557,0.043   c0.017,4.45,1.886,8.444,5.568,11.936c-0.449,2.025-1.424,3.947-2.895,5.756L51.096,49.4l-1.414,1.414l8.998,8.998   c-0.685,0.68-1.448,1.34-2.285,1.982c-1.303-0.848-2.854-1.346-4.521-1.346c-2.969,0-5.571,1.569-7.042,3.916   c-0.335-0.198-0.644-0.386-0.9-0.542C37.171,59.692,33.941,54.63,34.334,48.777z M56.465,90.788   c-1.312,0.206-2.63,0.35-3.952,0.429v-1.04l0.332,0.087C54.117,90.599,55.332,90.771,56.465,90.788z M54.538,88.594   c1.012-1.852,3.633-5.504,8.565-5.504c0.306,0,0.619,0.014,0.937,0.042c-0.589,1.867-2.401,5.663-7.396,5.663   C55.981,88.795,55.275,88.728,54.538,88.594z M46.587,67.918c0-2.39,1.603-4.392,3.783-5.044c0.446,0.296,1.076,0.764,1.668,1.359   c-0.056-0.003-0.108-0.017-0.164-0.017c-2.041,0-3.701,1.66-3.701,3.701s1.66,3.701,3.701,3.701c1.995,0,3.614-1.589,3.688-3.566   l0.004,0.001c0.004-0.031,0.002-0.061,0.005-0.093c0.001-0.015,0.005-0.028,0.005-0.043c0-0.004-0.001-0.008-0.001-0.012   c0.22-2.042-0.834-3.745-2.021-4.979c2.091,0.707,3.609,2.664,3.609,4.99c0,2.915-2.372,5.287-5.288,5.287   C48.958,73.205,46.587,70.833,46.587,67.918z M53.575,67.918c0,0.938-0.763,1.701-1.701,1.701c-0.938,0-1.701-0.763-1.701-1.701   s0.763-1.701,1.701-1.701C52.813,66.217,53.575,66.979,53.575,67.918z M45.561,71.541c0.596,1.034,1.437,1.906,2.445,2.541   c0.18,1.377,0.873,5.142,3.206,7.51c-3.171-0.332-5.651-3.021-5.651-6.277V71.541z M54.111,81.21   c-2.456-1.08-3.501-4.251-3.916-6.208c0.54,0.128,1.1,0.203,1.678,0.203c2.699,0,5.055-1.479,6.314-3.664v3.773   C58.188,78.007,56.49,80.305,54.111,81.21z M27.569,64.326c-2.456-1.08-3.501-4.251-3.915-6.207c0.54,0.127,1.1,0.202,1.678,0.202   c2.699,0,5.056-1.479,6.315-3.665v3.774C31.646,61.123,29.948,63.421,27.569,64.326z M23.823,45.991   c0.442,0.296,1.067,0.764,1.657,1.357c-0.051-0.002-0.098-0.015-0.149-0.015c-2.041,0-3.701,1.66-3.701,3.701   s1.66,3.701,3.701,3.701c1.995,0,3.615-1.589,3.688-3.566l0.004,0.001c0.005-0.035,0.002-0.068,0.006-0.104   c0-0.011,0.003-0.021,0.003-0.032c0-0.003-0.001-0.006-0.001-0.009c0.221-2.043-0.833-3.748-2.021-4.981   c2.09,0.707,3.609,2.664,3.609,4.99c0,2.915-2.372,5.287-5.288,5.287c-2.916,0-5.288-2.372-5.288-5.287   C20.044,48.646,21.646,46.646,23.823,45.991z M27.033,51.034c0,0.938-0.763,1.701-1.701,1.701s-1.701-0.763-1.701-1.701   c0-0.938,0.763-1.701,1.701-1.701S27.033,50.096,27.033,51.034z M19.018,58.431v-3.772c0.596,1.034,1.438,1.906,2.446,2.541   c0.18,1.377,0.873,5.141,3.206,7.509C21.499,64.376,19.018,61.688,19.018,58.431z M14.965,66.206c4.981,0,7.576,3.646,8.574,5.502   c-0.741,0.135-1.449,0.203-2.115,0.203h0c-4.966-0.001-6.792-3.797-7.39-5.664C14.35,66.22,14.661,66.206,14.965,66.206z    M14.254,70.714c1.53,1.774,3.838,3.196,7.169,3.197c0,0,0,0,0.001,0c0.807,0,1.661-0.09,2.545-0.255v8.437   c-1.1-0.894-2.165-1.851-3.188-2.874C18.22,76.656,16.037,73.791,14.254,70.714z M25.97,83.608V73.542   c1.086,0.241,2.129,0.369,3.105,0.369c6.531,0,9.149-5.458,9.622-8.345l0.159-0.973l-0.971-0.173   c-0.799-0.143-1.591-0.215-2.351-0.215c-4.97,0-7.99,3.039-9.564,5.338v-2.833c4.287-0.328,7.676-3.912,7.676-8.28v-2.448   c1.621,3.578,4.703,6.774,9.242,9.548c0.304,0.186,0.68,0.413,1.087,0.652c-0.267,0.813-0.415,1.68-0.415,2.581v6.551   c0,4.119,3.015,7.538,6.952,8.191v3.391c-1.469-2.329-4.547-5.807-9.867-5.807c-0.76,0-1.552,0.072-2.351,0.215l-0.971,0.173   l0.159,0.973c0.472,2.886,3.09,8.344,9.621,8.345c0,0,0,0,0.001,0c1.066,0,2.212-0.153,3.408-0.439v0.935   C41.904,91.396,33.272,88.836,25.97,83.608z M26.969,71.71c1.012-1.852,3.633-5.504,8.565-5.504c0.304,0,0.615,0.014,0.931,0.041   c-0.599,1.869-2.425,5.664-7.39,5.664C28.412,71.911,27.707,71.844,26.969,71.71z M49.22,88.592   c-0.741,0.135-1.449,0.203-2.115,0.203h0c-4.966-0.001-6.792-3.797-7.39-5.664c0.316-0.027,0.627-0.041,0.931-0.041   C45.626,83.09,48.222,86.735,49.22,88.592z M79.218,79.219c-5.238,5.238-11.547,8.762-18.226,10.594   c3.4-1.702,4.926-5.23,5.274-7.362l0.159-0.973l-0.971-0.173c-0.8-0.143-1.591-0.215-2.352-0.215   c-6.437,0-9.602,5.096-10.591,7.081v-4.576c4.287-0.328,7.676-3.912,7.676-8.28v-6.551c0-2.182-0.851-4.163-2.229-5.647   c0.772-0.612,1.484-1.242,2.136-1.889l0.676,0.676l0.954,10.965l1.992-0.174l-0.748-8.593l1.337,1.337l0.954,10.965l1.992-0.174   l-0.748-8.593l1.339,1.339l0.952,10.963l1.992-0.174l-0.746-8.591l1.337,1.337l0.952,10.963l1.992-0.174l-0.746-8.591l3.266,3.266   l1.414-1.414l-3.498-3.498l8.8,0.979l0.221-1.988l-11.285-1.255l-1.271-1.271l8.8,0.977l0.221-1.988l-11.285-1.253l-1.271-1.271   l8.8,0.977l0.221-1.988l-11.285-1.253l-1.272-1.272l8.802,0.979l0.221-1.988L61.886,60.19l-0.44-0.44   c1.492-1.794,2.552-3.703,3.156-5.721c1.01,0.805,2.114,1.584,3.333,2.329c3.123,1.905,4.9,2.718,5.943,2.718l0.079-0.002   c1.23-0.045,2.985-1.093,4.984-2.354c0.274-0.173,0.528-0.333,0.751-0.469c6.621-4.042,10.17-8.958,10.549-14.611   c0.019-0.282,0.016-0.556,0.021-0.834C93.297,54.196,89.622,68.814,79.218,79.219z" stroke="none" fill="#B50B0B" transform="matrix(2.182251214981079, 0, 0, 2.182251214981079, 147.0481414794922, 76.51860809326172)"></path><path id="_xw3xsulmN7TXqoJszYzwr" d="M8.014,44.579c0.051,0.008,0.102,0.011,0.152,0.011c0.485,0,0.912-0.354,0.987-0.849c0.123-0.806,0.273-1.624,0.446-2.43   c0.116-0.54-0.228-1.072-0.768-1.188c-0.542-0.119-1.071,0.228-1.188,0.768c-0.182,0.846-0.339,1.703-0.468,2.548   C7.093,43.985,7.468,44.496,8.014,44.579z" stroke="none" fill="#B50B0B" transform="matrix(2.182251214981079, 0, 0, 2.182251214981079, 148.17083740234375, 77.78407287597656)"></path><path id="_99xe9x2CNpf11UyGtr7u9" d="M69.807,52.413c2.136,1.302,3.285,1.818,4.052,1.818c0.021,0,0.042,0,0.063-0.001l-0.057-1.998   c-0.174-0.013-0.817-0.187-3.016-1.526c-4.28-2.618-6.325-5.804-6.078-9.471l-1.996-0.134   C62.479,45.507,64.909,49.418,69.807,52.413z" stroke="none" fill="#B50B0B" transform="matrix(2.182251214981079, 0, 0, 2.182251214981079, 147.97845458984375, 76.68962097167969)"></path><path id="_OCUjvIMsrKWpIGA-yHUom" d="M63.969,18.026c-0.962-1.339-2.522-2.22-4.293-2.22v2c1.815,0,3.292,1.477,3.292,3.292h0.001h1.999h0.001   c0-1.815,1.477-3.292,3.292-3.292v-2C66.49,15.806,64.93,16.688,63.969,18.026z" stroke="none" fill="#B50B0B" transform="matrix(2.182251214981079, 0, 0, 2.182251214981079, 147.05104064941406, 77.33456420898438)"></path><path id="_izijQak9__aV0UqEG3CyK" d="M67.193,23.37c1.815,0,3.292,1.477,3.292,3.292h0.001h1.999h0.001c0-1.815,1.477-3.292,3.292-3.292v-2   c-1.771,0-3.331,0.881-4.292,2.22c-0.962-1.339-2.522-2.22-4.293-2.22V23.37z" stroke="none" fill="#B50B0B" transform="matrix(2.182251214981079, 0, 0, 2.182251214981079, 148.1049041748047, 78.2857666015625)"></path></g></svg>