<svg xmlns="http://www.w3.org/2000/svg" width="512" height="512" viewBox="0 0 512 512" data-svgdocument="" id="_-GCchwVp3rjOUd5wVEqar" class="fl-svgdocument" x="0" y="0" style="overflow: visible;" xmlns:xlink="http://www.w3.org/1999/xlink"><defs id="_D7rPpXjCrLbiGTkvnNAs4" transform="matrix(1.000000071584713, 0, 0, 1.000000071584713, 0.0000015904091742963096, -5.947792755540571e-7)"><linearGradient id="g__JZbN743QkdZjn0HflOwVC" x1="49%" y1="0%" x2="50%" y2="100%"><stop id="_snHwJ6CjNAFhxMjrm_Hw7" offset="0.2542269431938559%" style="stop-color: rgb(255, 255, 255); stop-opacity: 1;"></stop><stop id="_GezkENNphez20D8XSeNxD" offset="49.57627118644068%" style="stop-color: rgb(0, 160, 255); stop-opacity: 1;"></stop><stop id="_mZ-_Ds2k9_b0hcrJ_F5gN" offset="100%" style="stop-color: rgb(255, 255, 255); stop-opacity: 1;"></stop></linearGradient><linearGradient id="g__JZbN743QkdZjn0HflOwVC" x1="49%" y1="0%" x2="50%" y2="100%"><stop id="_snHwJ6CjNAFhxMjrm_Hw7" offset="0.2542269431938559%" style="stop-color: rgb(255, 255, 255); stop-opacity: 1;"></stop><stop id="_GezkENNphez20D8XSeNxD" offset="49.57627118644068%" style="stop-color: rgb(0, 160, 255); stop-opacity: 1;"></stop><stop id="_mZ-_Ds2k9_b0hcrJ_F5gN" offset="100%" style="stop-color: rgb(255, 255, 255); stop-opacity: 1;"></stop></linearGradient><linearGradient id="g__JZbN743QkdZjn0HflOwVC" x1="49%" y1="0%" x2="50%" y2="100%"><stop id="_snHwJ6CjNAFhxMjrm_Hw7" offset="0.2542269431938559%" style="stop-color: rgb(255, 255, 255); stop-opacity: 1;"></stop><stop id="_GezkENNphez20D8XSeNxD" offset="49.57627118644068%" style="stop-color: rgb(0, 160, 255); stop-opacity: 1;"></stop><stop id="_mZ-_Ds2k9_b0hcrJ_F5gN" offset="100%" style="stop-color: rgb(255, 255, 255); stop-opacity: 1;"></stop></linearGradient></defs><circle id="_5keo1WeF_iuljjA_Gw4td" cx="88.385" cy="88.385" r="88.385" stroke="none" fill="#0B3F59" transform="matrix(2.3533406452145305, 0, 0, 2.3533406452145305, 48, 48)"></circle><path id="_cdpBPm7GYXzZyUdptTW0O" fill="#00A0FF" transform="matrix(0.45712772011756897, 0, 0, 0.44586366415023804, 107.33219909667969, 118.44987487792969)" text="Team Synergy" text-anchor="middle" font-size="100" letter-spacing="20" side="left" offset="0.5" dx="0" dy="0" space="preserve" font-family="Oswald" font-scale="contain" path="M9.663854576896398,308.0738605487546 C41.87626873493654,-115.96288196365931 612.6812757697365,-125.20977370586748 640.3839984473261,310.71579236884656" x="0" y="0" data-fl-textpath="" d="M 48.6502013600131 160.692022781177L-15.795976964804105 127.2637398559973L-22.1040689217595 139.42507102748485L-29.560651537854064 135.55733581300126L-11.925620738482408 101.55886983723681L-4.469038122387843 105.4266050517204L-10.592952211986876 117.23286086053676L 53.85322611283033 150.66114378571646L 48.6502013600131 160.692022781177ZM 84.71275564239409 105.28158306942481Q 80.57026654073762 110.54749078250309  76.2784345490244 111.87891038387107Q 71.98660255731117 113.2103299852391  67.12939774867294 111.29785477051298Q 62.27219294003473 109.38537955578688  55.98454193934424 104.43912391201795L 55.98454193934424 104.43912391201795L 45.609917788204925 96.27780209979923Q 36.17844128716919 88.85841863414585  34.13494073845686 82.47961737470749Q 32.09144018974452 76.10081611526914  38.02694696226722 68.55563491444056L 38.02694696226722 68.55563491444056Q 42.35492065056503 63.05394028883638  46.829095080237785 62.0568128281462Q 51.30326950991055 61.05968536745604  56.14056472790547 63.401815802330134Q 60.977859945900384 65.74394623720424  67.97287168416854 71.24665564089716L 67.97287168416854 71.24665564089716L 71.6668666470742 74.1525808316114L 57.570038062332785 92.07238618357928L 66.687132013334 99.24445686704422Q 70.85270080129143 102.52135123104114  73.65803531372448 102.75608144501447Q 76.46336982615755 102.99081165898781  78.56552847475933 100.31855998369436L 78.56552847475933 100.31855998369436Q 80.66768712336113 97.6463083084009  79.56262798847364 95.2501980629402Q 78.45756885358615 92.85408781747951  74.68497825317186 89.88633443121816L 74.68497825317186 89.88633443121816L 71.93413094036978 87.72234758706927L 78.36426327726937 79.54840128617163L 80.09336730245924 80.90862158820806Q 87.24557031574469 86.53498738299523  88.60686128982162 92.56797063209319Q 89.96815226389857 98.60095388119117  84.71275564239409 105.28158306942481L 84.71275564239409 105.28158306942481ZM 53.01149108683218 88.48635084184681L 60.61635913912689 78.81908742828519L 56.52938598867808 75.60402125983539Q 51.89224337566885 71.95615772255582  49.17703037040697 71.28338856745373Q 46.461817365145095 70.61061941235164  44.174174129901964 73.51865800017099L 44.174174129901964 73.51865800017099Q 42.566641045677066 75.5621445753954  42.67510805589464 77.36512402832726Q 42.7835750661122 79.16810348125911  44.635814119863994 81.26135704634784Q 46.488053173615796 83.35461061143656  50.57502632406462 86.56967677988636L 50.57502632406462 86.56967677988636L 53.01149108683218 88.48635084184681ZM 123.36918079288625 64.39723151546795Q 120.85146879031147 66.53056840215295  117.60138488378882 66.79411080967512Q 114.3513009772662 67.05765321719728  111.20284268860387 65.66222840569598Q 108.05438439994154 64.26680359419467  105.85640094093274 61.67279728851156L 105.85640094093274 61.67279728851156Q 101.46043402291514 56.48478467714534  100.92548948929563 51.3675261976516Q 100.3905449556761 46.250267718157865  102.2076242874561 41.43381438587923Q 104.0247036192361 36.6173610536006  108.05955755354103 29.004217568231105L 108.05955755354103 29.004217568231105L 105.4090480882657 25.876151140789695Q 101.72419346580978 21.527375863615077  99.32761453045501 20.47789532229296Q 96.93103559510024 19.428414780970854  94.2607349863088 21.69104481230344L 94.2607349863088 21.69104481230344Q 89.60678249670087 25.634485724054514  94.90780142725148 31.890618578937293L 94.90780142725148 31.890618578937293L 96.78255202464135 34.10315336907878L 88.43676960586356 40.650512822967Q 82.38328726899655 33.19696657992006  82.64622895881392 27.010419750892105Q 82.90917064863129 20.823872921864137  89.62306932216404 15.134974557370782L 89.62306932216404 15.134974557370782Q 95.95549648015516 9.769309054496368  101.75795188744976 10.816453383783177Q 107.56040729474438 11.863597713069986  113.50789194853289 18.882673599036053L 113.50789194853289 18.882673599036053L 130.57458704201295 39.0243696196343Q 134.77661424305916 43.98349932167554  140.32340362610276 48.982812028453836L 140.32340362610276 48.982812028453836L 132.84656192148674 55.318176116185064Q 128.32246996483923 51.68051313457212  126.28348303044817 49.73821236451033L 126.28348303044817 49.73821236451033Q 127.889167713776 53.48944905362053  127.38394322482264 57.4564691210971Q 126.87871873586928 61.42348918857369  123.36918079288625 64.39723151546795L 123.36918079288625 64.39723151546795ZM 120.62605686964746 54.66299959190277Q 122.22823723492232 53.30542157310322  122.68745485374636 50.75363412534007Q 123.14667247257039 48.20184667757691  122.86362261568851 46.475612980037916L 122.86362261568851 46.475612980037916L 112.26158475458726 33.963347270272344Q 110.53244745670013 38.57421315479506  109.87084634932074 41.4285579087998Q 109.20924524194135 44.28290266280454  109.51355470720941 47.039693505314766Q 109.81786417247747 49.796484347825015  111.88655448683869 52.237902047291456L 111.88655448683869 52.237902047291456Q 114.21383109049506 54.98449695919122  116.46626519121719 55.63183042959435Q 118.71869929193929 56.27916389999747  120.62605686964746 54.66299959190277L 120.62605686964746 54.66299959190277ZM 164.21570769623466 31.701211135048112L 138.66957974130696-20.146984074722326L 147.55015296927803-24.52253194243486L 149.98101289578497-19.588880149117607Q 151.1680744295664-23.741094608296763  153.53356166742242-26.746002282009947Q 155.8990489052784-29.750909955723117  159.30775378066124-31.430413177673387L 159.30775378066124-31.430413177673387Q 165.9457580116699-34.701024715155484  170.9662272935127-29.03667230820966L 170.9662272935127-29.03667230820966Q 173.12197880194958-38.23682097189288  180.65701063174316-41.94940704146714L 180.65701063174316-41.94940704146714Q 184.69363482627548-43.93829243588192  188.70867943871679-42.237728776354274Q 192.7237240511581-40.53716511682663  195.72915086938488-34.43737744508893L 195.72915086938488-34.43737744508893L 215.7947946263696 6.287675539748065L 207.00392415827702 10.619025954251384L 187.24766257375683-29.478107711436138Q 185.47976444538813-33.06621810657596  183.62856804222483-33.88204399297282Q 181.77737163906153-34.69786987936967  179.62450540197761-33.63713100234845L 179.62450540197761-33.63713100234845Q 177.65104468465074-32.66478703174567  176.05064661268204-30.48276365624325Q 174.45024854071337-28.300740280740833  173.62853731374622-25.44333049922958L 173.62853731374622-25.44333049922958L 174.37989401830293-23.91838358129516L 194.44553777528765 16.806669403541832L 185.6546673071951 21.138019818045137L 165.8984057226749-18.959113847642385Q 164.1305075943062-22.547224242782207  162.27931119114288-23.363050129179065Q 160.42811478797955-24.178876015575902  158.2752485508957-23.118137138554694L 158.2752485508957-23.118137138554694Q 156.39149059344726-22.189990621161122  154.79109252147862-20.00796724565872Q 153.19069444950992-17.8259438701563  152.27928046266427-14.924336635435836L 152.27928046266427-14.924336635435836L 173.0962809242057 27.325663267335578L 164.21570769623466 31.701211135048112ZM 307.3236171095773-11.489615733099525Q 297.15063764776244-10.747666361852874  291.35654733800135-16.641817486682676Q 285.5624570282402-22.535968611512473  284.16390499286746-33.46318473476887L 284.16390499286746-33.46318473476887L 293.9410159061795-36.88343358372639Q 295.0070644185943-29.14046641543889  297.8994619293406-24.5386693056318Q 300.79185944008685-19.936872195824716  306.6762299130974-20.366038988996795L 306.6762299130974-20.366038988996795Q 311.0645739946646-20.686095580514962  313.1304002524616-23.293270655686662Q 315.19622651025855-25.90044573085836  314.8616218918532-30.48825999795133L 314.8616218918532-30.48825999795133Q 314.49792121967346-35.475014636095864  312.1634418280141-38.61351841495577Q 309.8289624363548-41.75202219381568  304.950187631518-45.40682128592594L 304.950187631518-45.40682128592594L 290.51333340253353-56.385766589143955Q 286.1623301152856-59.67799537742064  284.015359341263-63.682432478374096Q 281.86838856724034-67.68686957932756  281.43194776062467-73.670975145101L 281.43194776062467-73.670975145101Q 280.7845605641447-82.54739840099828  285.51462363631595-87.80539263200325Q 290.2446867084873-93.06338686300822  299.0213748716217-93.70350004604455L 299.0213748716217-93.70350004604455Q 308.59594377685914-94.40180533662962  313.85393800786414-89.67174226445832Q 319.1119322388691-84.94167919228704  320.88760260496264-74.34276440109369L 320.88760260496264-74.34276440109369L 311.5021580492586-71.05134669867346Q 310.4870276309489-78.0961682176207  307.9629385262055-81.77230398651112Q 305.43884942146207-85.44843975540154  299.65421404121446-85.02654697567306L 299.65421404121446-85.02654697567306Q 295.3656050524101-84.71376439759848  293.23536322134447-82.30242250123077Q 291.10512139027884-79.89108060486305  291.425177981797-75.50273652329585L 291.425177981797-75.50273652329585Q 291.6870424657664-71.91227318383179  293.0620769082892-69.5560515724641Q 294.437111350812-67.19982996109641  297.51127937702563-64.9173990318884L 297.51127937702563-64.9173990318884L 312.047868698773-53.94572774211399Q 317.6757072470552-49.643701094768645  321.21743340848394-44.38740241628288Q 324.7591595699127-39.13110373779713  325.2683405109643-32.149647244394785L 325.2683405109643-32.149647244394785Q 325.91572770744426-23.273223988497517  320.9082813973151-17.694202438873088Q 315.9008350871859-12.115180889248668  307.3236171095773-11.489615733099525L 307.3236171095773-11.489615733099525ZM 351.79492351805413 1.9300529627607048L 352.84771142953184-6.202083141206472Q 358.7980549202395-5.431750523052045  361.14498362197804-6.035427314850288Q 363.49191232371663-6.6391041066485315  363.81288424794764-9.1184138944434L 363.81288424794764-9.1184138944434Q 363.9669507715785-10.308482592584937  362.9920125934276-19.91314268801694L 362.9920125934276-19.91314268801694L 357.8047426469257-70.19526904025186L 368.51536093019956-68.80867032757388L 370.7044126174077-24.964764790877787L 383.6887368315042-66.8443221512801L 394.399355114778-65.45772343860213L 372.88185013491363-6.7343296381624995Q 370.7102651586248-0.864558033512381  365.9136967393938 1.1361746821784493Q 361.1171283201628 3.136907397869301  353.08416460770746 2.0969583633608266L 353.08416460770746 2.0969583633608266L 351.79492351805413 1.9300529627607048ZM 412.8213632707898-1.9486100435569966L 431.50525722691356-56.64552135156707L 441.6308100123065-53.18673821436076L 439.78828067753307-47.792752151114115Q 448.41897269725746-51.71335864254684  455.232428777148-49.38595316704354L 455.232428777148-49.38595316704354Q 459.6801014959654-47.86667459275665  460.4736755991696-44.0027077007241Q 461.2672497023737-40.13874080869152  459.6509958999409-35.4071740865453L 459.6509958999409-35.4071740865453L 444.52286030916935 8.880290432743124L 434.3973075237765 5.421507295536799L 448.52336575703964-35.93238585602103Q 449.5900932666453-39.055219892637496  449.1609811389946-40.89257200421085Q 448.73186901134386-42.7299241157842  446.27145431582784-43.570376093049276L 446.27145431582784-43.570376093049276Q 443.24325161365425-44.60477852660634  438.0104014948569-42.58802875675329L 438.0104014948569-42.58802875675329L 422.9469160561827 1.510173093649314L 412.8213632707898-1.9486100435569966ZM 485.4239110626182 30.711722721281774Q 479.6771906913583 27.26713203811684  477.8146296269418 23.177710773277596Q 475.9520685625252 19.088289508438322  477.23607943699307 14.028515197834338Q 478.520090311461 8.968740887230325  482.6330344107624 2.1069852200543266L 482.6330344107624 2.1069852200543266L 489.41939217460964-9.21491163078602Q 495.58880832356175-19.50754513154999  501.65861126144085-22.3399455791058Q 507.72841419931996-25.172346026661614  515.962520999931-20.236813107499955L 515.962520999931-20.236813107499955Q 521.9665572087101-16.637987020611234  523.5205190500227-12.325481647194977Q 525.0744808913353-8.012976273778662  523.3617387033253-2.9187134029198205Q 521.6489965153153 2.175549467939021  517.0733462048426 9.809252647672281L 517.0733462048426 9.809252647672281L 514.6569915465029 13.840534102138179L 495.10098789505133 2.118643419129171L 489.1372189510643 12.068189136534357Q 486.41239348527716 16.61410226603843  486.53368131662273 19.42662591251107Q 486.65496914796825 22.239149558983655  489.57121530651807 23.987150801186743L 489.57121530651807 23.987150801186743Q 492.4874614650678 25.73515204338983  494.72490214431406 24.336452931052122Q 496.9623428235603 22.937753818714327  499.43010928314106 18.820700418408762L 499.43010928314106 18.820700418408762L 501.2295223265854 15.81868231401927L 510.14980469391423 21.16550964311108L 509.01874506660636 23.05249245158447Q 504.340271153651 30.85773952299715  498.52739880632186 32.96973267489332Q 492.7145264589927 35.081725826789494  485.4239110626182 30.711722721281774L 485.4239110626182 30.711722721281774ZM 498.08287236704484-2.8561294395733796L 508.63282170532796 3.4675221131025182L 511.3062353698739-0.9926190705619149Q 514.3395316431087-6.05316387510419  514.6641551976044-8.831584208291133Q 514.9887787521002-11.610004541478077  511.8152167560313-13.512241187404953L 511.8152167560313-13.512241187404953Q 509.58514616419905-14.84894801967792  507.81028328046796-14.513743986358548Q 506.03542039673675-14.17853995303932  504.1927361334034-12.076870448653892Q 502.35005187007005-9.975200944268494  499.6766382055241-5.515059760604117L 499.6766382055241-5.515059760604117L 498.08287236704484-2.8561294395733796ZM 523.6850486395683 56.81442755261784L 562.3816742323648 13.879463156092186L 570.3298423818947 21.043025333305366L 564.8400096853388 27.134144849767438Q 570.3489778271083 25.502804905743517  574.0278426892995 26.12606514491756Q 577.7067075514906 26.74932538409155  580.3065756377855 29.092546657011724L 580.3065756377855 29.092546657011724Q 580.9751131456899 29.695089270048356  581.5024195290453 30.304964649181443L 581.5024195290453 30.304964649181443L 573.6024163803429 39.070234197261016Q 572.0287842807317 36.03647711814722  570.0231717570185 34.22884927903738L 570.0231717570185 34.22884927903738Q 568.0918411786281 32.48817061915378  565.732196559184 32.04423676154863Q 563.3725519397398 31.600302903943486  559.8857704225932 32.631008803647944L 559.8857704225932 32.631008803647944L 531.6332167890982 63.97798972983102L 523.6850486395683 56.81442755261784ZM 555.1955454169608 116.03011393511593Q 550.1432271696857 109.31937028569445  549.2529747214228 103.73099390445799Q 548.3627222731598 98.1426175232215  552.8365513727742 94.77440535837141L 552.8365513727742 94.77440535837141Q 555.872363976084 92.48883281793744  559.5227247022121 92.68213716124345Q 563.1730854283403 92.87544150454937  566.6964913681268 94.72898151854338L 566.6964913681268 94.72898151854338Q 565.7116503743048 92.09078360767938  566.1976507011461 89.90988845148539Q 566.6836510279875 87.7289932952915  568.2814471349926 86.52606037927362L 568.2814471349926 86.52606037927362Q 570.6781412955003 84.7216610052468  573.3379167002192 84.59678187788094Q 575.9976921049383 84.47190275051511  580.5192620280267 85.32361011259613L 580.5192620280267 85.32361011259613Q 580.551411009903 81.04354393986415  582.7146386655234 77.34956964244958Q 584.8778663211436 73.65559534503504  590.2304832796108 69.62577007637515L 590.2304832796108 69.62577007637515Q 598.2993536199866 63.55095885048479  604.9896542016122 63.70868686797343Q 611.6799547832377 63.86641488546212  616.4916864473093 70.25759931348261L 616.4916864473093 70.25759931348261Q 619.2584321541505 73.93253035959441  619.7244479967721 77.21168104756612Q 620.1904638393942 80.49083173553788  618.5361897551993 83.61387148142029L 618.5361897551993 83.61387148142029Q 619.8360041346584 83.51148701506224  622.6672650641583 84.19629468812644Q 625.4985259936581 84.8811023611907  628.0210164486843 86.23647755068657L 628.0210164486843 86.23647755068657L 629.5425914189505 87.09368791568443L 625.654154286407 93.400831220403Q 624.1316621489881 92.04362169660152  620.9578887535031 89.98944000207905Q 617.784115358018 87.93525830755658  616.8038601999599 87.79705619071103L 616.8038601999599 87.79705619071103Q 615.7868702242615 89.43892445257893  613.5612030049583 91.8030110476339Q 611.3355357856551 94.16709764268899  609.4181804572488 95.61061714191044L 609.4181804572488 95.61061714191044Q 601.8286489489745 101.32454849299543  595.4090082734531 101.52632459958289Q 588.9893675979315 101.72810070617041  583.8167560590546 94.8575774460484L 583.8167560590546 94.8575774460484Q 582.1927966224305 92.70055270159148  581.0679191774573 90.04261163117803L 581.0679191774573 90.04261163117803Q 577.6882183574331 90.20881141194823  576.409981471829 91.17115774476255L 576.409981471829 91.17115774476255Q 575.5311936129762 91.83277084857241  575.7035963049098 93.1424568078061Q 575.8759989968435 94.45214276703987  577.2198855311652 96.5696811923981L 577.2198855311652 96.5696811923981L 581.9939652104438 104.24093684032826Q 585.604598292803 110.034323478951  584.7932944169736 114.77581965854074Q 583.9819905411441 119.51731583813046  578.7891531933774 123.42684781518861L 578.7891531933774 123.42684781518861Q 567.2850212229406 132.08796481051735  555.1955454169608 116.03011393511593L 555.1955454169608 116.03011393511593ZM 589.8084914603238 90.34657901098132Q 592.3947972297623 93.78184064104232  595.5733977856815 93.0160087365688Q 598.7519983416009 92.25017683209532  604.1845051054183 88.16020491763453L 604.1845051054183 88.16020491763453Q 609.6969016745859 84.01008635737281  611.4315241477074 81.07689954509124Q 613.1661466208288 78.14371273280983  610.6399874971912 74.78834090809909L 610.6399874971912 74.78834090809909Q 608.1138283735537 71.43296908338834  604.7251731409076 72.1691862485377Q 601.3365179082616 72.90540341368722  595.824121339094 77.05552197394894L 595.824121339094 77.05552197394894Q 590.8709534073781 80.78461401360434  589.1067161949326 83.92785550261257Q 587.3424789824871 87.07109699162083  589.8084914603238 90.34657901098132L 589.8084914603238 90.34657901098132ZM 562.3874622327895 111.6169141306429Q 565.8158210434405 116.17063303560747  568.5182928522931 117.51567806175234Q 571.2207646611457 118.86072308789716  573.6174588216534 117.05632371387031L 573.6174588216534 117.05632371387031Q 575.8543733714605 115.37221763144527  575.9103927650738 113.20211122217884Q 575.966412158687 111.03200481291245  573.5793723190478 107.19637698894732L 573.5793723190478 107.19637698894732L 568.7451459939684 99.44523153566692Q 565.8043805197943 99.03062518513033  563.8645305303804 99.11418365909182Q 561.9246805409665 99.19774213305328  560.4067742393116 100.3405284032703L 560.4067742393116 100.3405284032703Q 558.2497494948547 101.96448783989442  558.6044264584966 104.51384153278639Q 558.9591034221385 107.06319522567833  562.3874622327895 111.6169141306429L 562.3874622327895 111.6169141306429ZM 582.5699805821688 151.42296306855323L 589.9377646478881 147.82355228886536Q 592.5714798525378 153.21461380036726  594.3677822810066 154.841204586483Q 596.1640847094756 156.4677953725988  598.410360339268 155.3704140373281L 598.410360339268 155.3704140373281Q 599.4885726415685 154.84367099639817  606.9688734345499 148.740794621563L 606.9688734345499 148.740794621563L 646.0837284332094 116.72161102119878L 650.8244158015788 126.42552174190223L 615.4326026848097 152.39665118033224L 657.5403895734354 140.1727285962321L 662.2810769418048 149.8766393169355L 601.4144066041746 164.253302421086Q 595.3189605197294 165.67299852646266  591.007547461258 162.77097898151774Q 586.6961344027866 159.86895943657285  583.1406188765095 152.5910263960453L 583.1406188765095 152.5910263960453L 582.5699805821688 151.42296306855323Z" font-weight="400" font-style="normal"></path><path id="_5QAPkfojcKBfFTUeGvo1H" fill="#00A0FF" transform="matrix(0.45712772011756897, 0, 0, 0.45712772011756897, 107.24147033691406, 323.7516174316406)" text="Simulator" text-anchor="middle" font-size="100" letter-spacing="20" side="left" offset="0.5" dx="0" dy="0" space="preserve" font-family="Oswald" font-scale="contain" path="M8.375294357536125,-99.06039043449006 C3.8655012517568546,377.68413698151403 672.5963492517311,349.3371960492173 637.8068495134486,-99.70461306321718" x="0" y="0" data-fl-textpath="" d="M 114.44626644509792 170.64151580183193Q 106.8589944407985 163.8243827143255  107.08997809063072 155.5624733373407Q 107.32096174046293 147.30056396035582  114.22646181497183 138.71720397017964L 114.22646181497183 138.71720397017964L 123.46949900901708 143.39227225091057Q 118.62832233446802 149.52847697417414  117.31707770612809 154.80324118925046Q 116.00583307778817 160.07800540432677  120.39454923713782 164.02124905298245L 120.39454923713782 164.02124905298245Q 123.66749010173757 166.961973129946  126.97860167762622 166.6433195060593Q 130.28971325351486 166.32466588217264  133.364106606704 162.9029549782729L 133.364106606704 162.9029549782729Q 136.7058385123444 159.18370399577321  137.34929615741723 155.32547094695445Q 137.99275380249 151.46723789813564  137.2444284231026 145.41744375894672L 137.2444284231026 145.41744375894672L 135.14822232424032 127.40173061760557Q 134.50448349065167 121.98364974758066  135.9019981088083 117.66023062701895Q 137.29951272696493 113.33681150645725  141.3095910137334 108.8737103274576L 141.3095910137334 108.8737103274576Q 147.2578738057733 102.25344357860813  154.3264070754506 102.01714415951162Q 161.3949403451279 101.78084474041512  167.94082207432737 107.6622928943422L 167.94082207432737 107.6622928943422Q 175.08178396072682 114.07841815317177  175.3180833798233 121.14695142284904Q 175.55438279891982 128.21548469252633  169.1469267173493 136.8430281762038L 169.1469267173493 136.8430281762038L 160.26826424001686 132.36091342827407Q 164.64159844777626 126.74540384256046  165.5410690729945 122.3778012284975Q 166.44053969821275 118.01019861443456  162.12620855851307 114.1337896038917L 162.12620855851307 114.1337896038917Q 158.92765271356333 111.25990016504096  155.7130179040753 111.39636643057125Q 152.49838309458724 111.53283269610152  149.5576590176237 114.80577356070127L 149.5576590176237 114.80577356070127Q 147.15161204556262 117.48363426810106  146.40678364759876 120.10808290687962Q 145.66195524963487 122.73253154565815  146.14825486666453 126.53036154217943L 146.14825486666453 126.53036154217943L 148.31884598517678 144.61290932163342Q 149.1200240353245 151.65124106516197  147.78724705809486 157.8477082464651Q 146.45447008086524 164.04417542776818  141.77604541296867 169.25112680326777L 141.77604541296867 169.25112680326777Q 135.82776262092878 175.87139355211724  128.3355703779631 176.13034411582532Q 120.8433781349974 176.3892946795334  114.44626644509792 170.64151580183193L 114.44626644509792 170.64151580183193ZM 187.86368677905477 142.10372481078198L 193.68581305868585 132.53592226348678L 202.82648156369112 138.09813219134864L 197.00435528406004 147.66593473864384L 187.86368677905477 142.10372481078198ZM 153.34679526409897 198.82712562688937L 183.39312552862376 149.4504303381694L 192.53379403362902 155.01264026603127L 162.48746376910424 204.38933555475126L 153.34679526409897 198.82712562688937ZM 190.01983160995098 220.00716800337236L 209.10874070088735 165.4502843889469L 218.45325882861766 168.71983802216954L 216.63684014349394 173.91123698201972Q 220.43094864821418 171.8485347120812  224.23229723765732 171.43050492661283Q 228.03364582710043 171.01247514114448  231.6204305629969 172.2674553235936L 231.6204305629969 172.2674553235936Q 238.60522189079535 174.71136409994185  238.08212034866762 182.2622822412425L 238.08212034866762 182.2622822412425Q 246.1563476505774 177.35342764193996  254.0850296983486 180.12759436103795L 254.0850296983486 180.12759436103795Q 258.332537938226 181.6137551034119  259.9327752790741 185.66982961615884Q 261.5330126199223 189.72590412890577  259.2872586092239 196.14436102472052L 259.2872586092239 196.14436102472052L 244.29354800838462 238.9969997114838L 235.04341895265162 235.76047187253613L 249.80594899356606 193.5685566897538Q 251.12698076456513 189.79299380986276  250.41182263986263 187.90062786833028Q 249.69666451516017 186.0082619267978  247.43132678722557 185.21564286419837L 247.43132678722557 185.21564286419837Q 245.35476720328543 184.48907539014886  242.67660704691366 184.8763197275154Q 239.99844689054186 185.26356406488193  237.38409797654685 186.67960776332245L 237.38409797654685 186.67960776332245L 236.82265947387225 188.28422198727614L 221.82894887303297 231.1368606740394L 212.57881981729992 227.90033283509172L 227.34134985821436 185.70841765230938Q 228.66238162921343 181.93285477241835  227.947223504511 180.04048883088586Q 227.23206537980852 178.1481228893534  224.9667276518739 177.355503826754L 224.9667276518739 177.355503826754Q 222.98455713993107 176.66196214697948  220.3063969835593 177.049206484346Q 217.62823682718744 177.4364508217125  214.91949884119518 178.8194687258781L 214.91949884119518 178.8194687258781L 199.3643497376813 223.27672163659503L 190.01983160995098 220.00716800337236ZM 282.6851107001948 245.90390496725826Q 278.0113248216764 245.40819783420315  276.3810764164318 241.81622203567701Q 274.7508280111872 238.22424623715088  275.2781760250756 233.25213360042912L 275.2781760250756 233.25213360042912L 280.214153435071 186.7131593207137L 290.8544744776555 187.84168407043487L 286.2559997965487 231.1985062626484Q 285.9079501073823 234.48010060288473  286.7283477901435 236.2263673757806Q 287.5487454729047 237.97263414867643  290.134244044 238.24685511589843L 290.134244044 238.24685511589843Q 293.3163961315019 238.58435784478698  297.97210356908226 235.4579560382914L 297.97210356908226 235.4579560382914L 302.88698705852215 189.11786626404478L 313.52730810110666 190.24639101376596L 307.43116506055674 247.72401309426922L 296.79084401797223 246.59548834454807L 297.392020753805 240.92727993868527Q 289.8449528970741 246.66328610725753  282.6851107001948 245.90390496725826L 282.6851107001948 245.90390496725826ZM 339.3556254965461 247.6794763562067L 335.18464257397346 166.78693713620441L 345.8704471376035 166.23595544149418L 350.04143006017614 247.1284946614965L 339.3556254965461 247.6794763562067ZM 391.43745287686596 242.54457845718872Q 388.20725704505276 243.21973391198168  385.2245860394735 241.90209448008966Q 382.2419150338942 240.58445504819767  380.13940725887056 237.8569175038245Q 378.0368994838469 235.12937995945134  377.3412847728481 231.80129940546198L 377.3412847728481 231.80129940546198Q 375.9500553508505 225.14513829748336  377.9191939052106 220.39171917502705Q 379.88833245957056 215.63830005257077  383.78166355235146 212.2705154689037Q 387.67499464513236 208.90273088523668  394.8510762206378 204.13367927913174L 394.8510762206378 204.13367927913174L 394.01224671619804 200.12040566990936Q 392.84606911246476 194.5409765058684  391.23960228660155 192.47596698109595Q 389.63313546073834 190.41095745632344  386.20717018457276 191.1270314235281L 386.20717018457276 191.1270314235281Q 380.2362021318272 192.3750460520848  381.91386114070673 200.40159327052973L 381.91386114070673 200.40159327052973L 382.5071795706763 203.2402502136383L 372.0495619951802 205.01739248275356Q 370.2812428437712 195.57954064143073  373.46150501780374 190.26649702176994Q 376.64176719183627 184.9534534021092  385.2556227433381 183.15303885599462L 385.2556227433381 183.15303885599462Q 393.38005468395914 181.4549205909093  397.9816279229311 185.14145334220512Q 402.5832011619031 188.82798609350104  404.4654527328411 197.83338053370747L 404.4654527328411 197.83338053370747L 409.8666963711848 223.67494718821305Q 411.1965480245649 230.03745412966325  413.68938020555913 237.0763310086404L 413.68938020555913 237.0763310086404L 404.0966774322958 239.08133811681347Q 401.85376788462474 233.72696077103683  400.98725454433253 231.04756631872198L 400.98725454433253 231.04756631872198Q 400.6105488702467 235.11058155806222  398.275349483608 238.357017114891Q 395.9401500969692 241.60345267171977  391.43745287686596 242.54457845718872L 391.43745287686596 242.54457845718872ZM 393.6663596373266 232.6798952563367Q 395.7219388030259 232.25025087601392  397.3420555191526 230.22596783599033Q 398.96217223527924 228.2016847959668  399.5362458917769 226.5492806574718L 399.5362458917769 226.5492806574718L 396.18092787401787 210.496186220582Q 392.4629069693835 213.72516756966127  390.5206529818462 215.91894272858138Q 388.57839899430877 218.11271788750156  387.5317486933128 220.68118496874385Q 386.48509839231684 223.24965204998608  387.139794590904 226.38196315962313L 387.139794590904 226.38196315962313Q 387.87632781431444 229.90581315796476  389.54778469861856 231.54859490972382Q 391.2192415829227 233.19137666148288  393.6663596373266 232.6798952563367L 393.6663596373266 232.6798952563367ZM 455.4480033181635 223.34007737975654Q 443.82786635051593 227.94685682456506  438.7419818434473 215.11822561228215L 438.7419818434473 215.11822561228215L 424.8479350379048 180.07189251785704L 419.17730819769275 182.3200008869236L 416.5606574730415 175.71976308929976L 422.2312843132536 173.4716547202332L 416.0029185038725 157.7612295399737L 425.94975574817875 153.8178263352176L 432.17812155755985 169.5282515154771L 440.8235034614896 166.10080760853958L 443.4401541861409 172.70104540616342L 434.7947722822111 176.12848931310094L 448.4308394388444 210.5240947373378Q 449.7207376833907 213.7777330882791  451.2592690343623 214.67379183751245Q 452.7978003853338 215.5698505867459  455.6795943533104 214.42736928443338L 455.6795943533104 214.42736928443338Q 457.53881626813404 213.69028457326402  459.194514380541 212.7111708104296L 459.194514380541 212.7111708104296L 462.10599898965995 220.05509737398282Q 458.6086805733636 222.08703337076864  455.4480033181635 223.34007737975654L 455.4480033181635 223.34007737975654ZM 501.10439753312465 199.74867678451565Q 493.3073681598656 204.6319475073545  487.1516737548091 202.0565977463402Q 480.99597934975264 199.48124798532578  475.4757602717609 190.66721478077207L 475.4757602717609 190.66721478077207L 466.5584832996203 176.42916114264685Q 461.03826422162854 167.61512793809314  461.40834440071285 160.95269289818097Q 461.7784245797971 154.2902578582688  469.5754539530562 149.40698713542994L 469.5754539530562 149.40698713542994Q 477.28773300704063 144.57679544218715  483.4434274120971 147.1521452032015Q 489.59912181715356 149.7274949642159  495.11934089514534 158.54152816876962L 495.11934089514534 158.54152816876962L 504.03661786728594 172.77958180689484Q 509.5568369452777 181.59361501144855  509.1867567661934 188.25605005136075Q 508.8166765871091 194.91848509127286  501.10439753312465 199.74867678451565L 501.10439753312465 199.74867678451565ZM 496.9111541950347 193.05340156182578Q 499.3689134539968 191.51410970353962  499.5683241014327 189.38332689112323Q 499.7677347488687 187.25254407870682  498.6950099667905 184.97454900805468Q 497.62228518471227 182.69655393740265  495.33988691208106 179.05229020859673L 495.33988691208106 179.05229020859673L 485.7325825551916 163.7124824199023Q 483.4501842825603 160.06821869109643  481.84241807003673 158.0663226383835Q 480.23465185751314 156.06442658567056  478.2305542038107 155.31369854275206Q 476.2264565501082 154.56297049983365  473.7686972911461 156.10226235811982L 473.7686972911461 156.10226235811982Q 471.31093803218397 157.641554216406  471.06915222511077 159.7988765436204Q 470.8273664180375 161.95619887083487  471.92663071491376 164.27656910112427Q 473.02589501179006 166.5969393314136  475.3082932844213 170.24120306021948L 475.3082932844213 170.24120306021948L 484.9155976413108 185.5810108489139Q 487.197995913942 189.22527457771983  488.7792226116675 191.18479547079545Q 490.36044930939306 193.14431636387113  492.4069221227329 193.86850489199156Q 494.4533949360726 194.59269342011197  496.9111541950347 193.05340156182578L 496.9111541950347 193.05340156182578ZM 538.4337450842181 171.2951764986453L 498.85788736412667 129.1692760843031L 506.6562806934253 121.84294948214085L 512.2708487436805 127.81928829524821Q 511.10226740137216 122.19395118122486  512.0286492502476 118.57949179286891Q 512.9550310991228 114.96503240451301  515.5059074217907 112.56857043184311L 515.5059074217907 112.56857043184311Q 516.1618470476195 111.95233735315654  516.813374834877 111.47745679719395L 516.813374834877 111.47745679719395L 524.8928751998783 120.07755411361671Q 521.7390013142381 121.39401889228597  519.7711824367516 123.24271812834562L 519.7711824367516 123.24271812834562Q 517.8762457399126 125.02294702232896  517.2380403125894 127.33761629298834Q 516.5998348852661 129.6522855636478  517.3376540573254 133.2125696631744L 517.3376540573254 133.2125696631744L 546.2321384135167 163.96884989648305L 538.4337450842181 171.2951764986453Z" font-weight="400" font-style="normal"></path><g id="_7tEHcMS9komrffv841Jp4" transform="matrix(0.44834083318710327, 0, 0, 0.4278348684310913, 121.68082232271581, 125.90979153580724)" fill="url(&quot;#g__JZbN743QkdZjn0HflOwVC&quot;)"><svg id="_LUDInU25uFTT4SrsPYBHN" xmlns="http://www.w3.org/2000/svg" version="1.0" viewBox="0 0 600.000000 600.000000" preserveAspectRatio="xMidYMid meet" x="0px" y="0px" width="600" height="600" fill="url(&quot;#g__JZbN743QkdZjn0HflOwVC&quot;)"><defs><linearGradient id="g__JZbN743QkdZjn0HflOwVC" x1="49%" y1="0%" x2="50%" y2="100%"><stop id="_snHwJ6CjNAFhxMjrm_Hw7" offset="0.2542269431938559%" style="stop-color: rgb(255, 255, 255); stop-opacity: 1;"></stop><stop id="_GezkENNphez20D8XSeNxD" offset="49.57627118644068%" style="stop-color: rgb(0, 160, 255); stop-opacity: 1;"></stop><stop id="_mZ-_Ds2k9_b0hcrJ_F5gN" offset="100%" style="stop-color: rgb(255, 255, 255); stop-opacity: 1;"></stop></linearGradient><linearGradient id="g__JZbN743QkdZjn0HflOwVC" x1="49%" y1="0%" x2="50%" y2="100%"><stop id="_snHwJ6CjNAFhxMjrm_Hw7" offset="0.2542269431938559%" style="stop-color: rgb(255, 255, 255); stop-opacity: 1;"></stop><stop id="_GezkENNphez20D8XSeNxD" offset="49.57627118644068%" style="stop-color: rgb(0, 160, 255); stop-opacity: 1;"></stop><stop id="_mZ-_Ds2k9_b0hcrJ_F5gN" offset="100%" style="stop-color: rgb(255, 255, 255); stop-opacity: 1;"></stop></linearGradient><linearGradient id="g__JZbN743QkdZjn0HflOwVC" x1="49%" y1="0%" x2="50%" y2="100%"><stop id="_snHwJ6CjNAFhxMjrm_Hw7" offset="0.2542269431938559%" style="stop-color: rgb(255, 255, 255); stop-opacity: 1;"></stop><stop id="_GezkENNphez20D8XSeNxD" offset="49.57627118644068%" style="stop-color: rgb(0, 160, 255); stop-opacity: 1;"></stop><stop id="_mZ-_Ds2k9_b0hcrJ_F5gN" offset="100%" style="stop-color: rgb(255, 255, 255); stop-opacity: 1;"></stop></linearGradient><linearGradient id="g__JZbN743QkdZjn0HflOwVC" x1="49%" y1="0%" x2="50%" y2="100%"><stop id="_snHwJ6CjNAFhxMjrm_Hw7" offset="0.2542269431938559%" style="stop-color: rgb(255, 255, 255); stop-opacity: 1;"></stop><stop id="_GezkENNphez20D8XSeNxD" offset="49.57627118644068%" style="stop-color: rgb(0, 160, 255); stop-opacity: 1;"></stop><stop id="_mZ-_Ds2k9_b0hcrJ_F5gN" offset="100%" style="stop-color: rgb(255, 255, 255); stop-opacity: 1;"></stop></linearGradient><linearGradient id="g__JZbN743QkdZjn0HflOwVC" x1="49%" y1="0%" x2="50%" y2="100%"><stop id="_snHwJ6CjNAFhxMjrm_Hw7" offset="0.2542269431938559%" style="stop-color: rgb(255, 255, 255); stop-opacity: 1;"></stop><stop id="_GezkENNphez20D8XSeNxD" offset="49.57627118644068%" style="stop-color: rgb(0, 160, 255); stop-opacity: 1;"></stop><stop id="_mZ-_Ds2k9_b0hcrJ_F5gN" offset="100%" style="stop-color: rgb(255, 255, 255); stop-opacity: 1;"></stop></linearGradient><linearGradient id="g__JZbN743QkdZjn0HflOwVC" x1="49%" y1="0%" x2="50%" y2="100%"><stop id="_snHwJ6CjNAFhxMjrm_Hw7" offset="0.2542269431938559%" style="stop-color: rgb(255, 255, 255); stop-opacity: 1;"></stop><stop id="_GezkENNphez20D8XSeNxD" offset="49.57627118644068%" style="stop-color: rgb(0, 160, 255); stop-opacity: 1;"></stop><stop id="_mZ-_Ds2k9_b0hcrJ_F5gN" offset="100%" style="stop-color: rgb(255, 255, 255); stop-opacity: 1;"></stop></linearGradient><linearGradient id="g__JZbN743QkdZjn0HflOwVC" x1="49%" y1="0%" x2="50%" y2="100%"><stop id="_snHwJ6CjNAFhxMjrm_Hw7" offset="0.2542269431938559%" style="stop-color: rgb(255, 255, 255); stop-opacity: 1;"></stop><stop id="_GezkENNphez20D8XSeNxD" offset="49.57627118644068%" style="stop-color: rgb(0, 160, 255); stop-opacity: 1;"></stop><stop id="_mZ-_Ds2k9_b0hcrJ_F5gN" offset="100%" style="stop-color: rgb(255, 255, 255); stop-opacity: 1;"></stop></linearGradient><linearGradient id="g__JZbN743QkdZjn0HflOwVC" x1="49%" y1="0%" x2="50%" y2="100%"><stop id="_snHwJ6CjNAFhxMjrm_Hw7" offset="0.2542269431938559%" style="stop-color: rgb(255, 255, 255); stop-opacity: 1;"></stop><stop id="_GezkENNphez20D8XSeNxD" offset="49.57627118644068%" style="stop-color: rgb(0, 160, 255); stop-opacity: 1;"></stop><stop id="_mZ-_Ds2k9_b0hcrJ_F5gN" offset="100%" style="stop-color: rgb(255, 255, 255); stop-opacity: 1;"></stop></linearGradient></defs><metadata id="_Da73-9AJDTzSgnUCdvpXz" fill="url(&quot;#g__JZbN743QkdZjn0HflOwVC&quot;)"></metadata><g id="_DaoFwpMI74tgyrTDXiMRP" transform="matrix(0.10000000149011612, 0, 0, -0.10000000149011612, 0, 600)" stroke="none" fill="url(&quot;#g__JZbN743QkdZjn0HflOwVC&quot;)"><path id="_8mflqixbfp76yv1NIOZ3d" d="M2650 5675 c-356 -47 -648 -168 -875 -361 -46 -38 -98 -71 -150 -93 -479 -204 -920 -660 -1144 -1183 -62 -144 -95 -248 -128 -406 -34 -164 -38 -407 -9 -541 16 -77 17 -97 6 -212 -55 -553 141 -1172 517 -1636 198 -244 464 -440 706 -517 46 -15 95 -40 120 -60 187 -151 474 -287 761 -361 185 -47 314 -65 516 -72 363 -12 665 46 949 182 123 60 217 122 297 197 31 30 76 58 115 74 449 181 871 585 1113 1063 200 395 271 809 191 1121 -10 39 -11 68 -5 100 5 25 13 108 16 185 27 571 -220 1216 -630 1644 -184 191 -406 337 -609 400 -45 13 -88 38 -139 77 -238 184 -566 318 -945 385 -154 28 -516 35 -673 14z m577 -80 c326 -43 661 -159 888 -309 l70 -46 -55 0 c-123 -1 -275 -41 -378 -102 -87 -50 -238 -208 -291 -302 -61 -108 -109 -239 -139 -381 -45 -214 -35 -565 25 -803 9 -34 13 -66 9 -69 -18 -18 -572 40 -594 62 -2 2 19 62 47 132 56 144 92 278 117 433 22 140 15 391 -15 499 -94 347 -321 560 -652 612 -71 11 -265 7 -334 -7 -27 -5 -26 -3 20 31 69 51 251 138 363 175 100 32 246 64 358 79 118 15 432 12 561 -4z m-877 -375 c106 -30 184 -75 264 -150 125 -117 206 -277 236 -464 33 -207 -2 -497 -89 -735 -50 -137 -82 -201 -101 -201 -31 0 -244 78 -351 128 -129 60 -221 116 -324 197 -431 337 -536 773 -271 1132 40 55 52 64 98 77 176 51 395 57 538 16z m1963 -87 c37 -22 149 -148 203 -231 129 -193 164 -415 100 -617 -114 -360 -550 -632 -1107 -690 l-67 -7 -21 88 c-77 331 -64 696 33 955 52 140 111 234 206 330 144 145 293 202 508 195 87 -3 120 -9 145 -23z m-2737 -74 c-63 -118 -81 -197 -81 -349 0 -155 17 -225 87 -365 151 -302 503 -572 928 -712 63 -21 117 -39 119 -41 9 -5 -33 -80 -104 -187 -73 -110 -229 -305 -243 -305 -4 1 -34 37 -67 82 -125 169 -332 359 -498 456 -197 115 -332 156 -522 156 -231 1 -393 -63 -546 -217 -91 -90 -181 -235 -219 -352 -13 -38 -14 -39 -21 -15 -12 44 -9 211 6 320 79 553 450 1123 953 1462 73 49 234 140 239 134 1 -1 -13 -31 -31 -67z m3004 -20 c572 -311 1004 -1110 988 -1829 l-3 -135 -39 60 c-80 123 -210 237 -333 291 -192 85 -470 87 -723 4 -228 -75 -459 -213 -678 -408 -87 -77 -72 -86 -170 108 -87 173 -161 368 -143 379 7 5 45 11 84 15 344 32 718 195 923 403 153 156 244 365 244 563 0 174 -80 380 -206 536 -24 30 -39 54 -32 54 7 0 47 -19 88 -41z m-3235 -1338 c225 -46 432 -168 640 -376 88 -88 218 -246 232 -282 9 -23 -178 -184 -332 -286 -262 -173 -521 -254 -780 -245 -143 6 -239 31 -343 90 -120 68 -242 214 -292 348 l-23 62 23 81 c53 184 123 310 240 428 69 70 101 94 170 127 146 71 296 88 465 53z m1476 -150 c135 -28 264 -41 423 -44 l140 -2 36 -105 c51 -143 115 -286 183 -404 l57 -99 -28 -32 c-129 -155 -166 -203 -236 -309 -45 -67 -90 -140 -100 -164 -17 -37 -23 -42 -43 -38 -130 33 -479 71 -593 64 l-55 -3 -41 115 c-53 150 -109 274 -179 395 -37 64 -54 103 -49 111 5 6 42 49 82 95 74 85 226 304 272 392 14 26 28 47 31 47 4 0 49 -9 100 -19z m2225 -161 c214 -54 383 -200 465 -404 l31 -75 -26 -92 c-86 -299 -264 -508 -499 -585 -72 -24 -97 -27 -212 -27 -100 0 -148 5 -207 21 -207 56 -401 176 -589 362 -98 98 -239 272 -239 295 0 19 156 154 278 241 180 128 410 231 597 268 110 22 306 20 401 -4z m-2718 -522 c28 -51 65 -124 83 -163 36 -81 111 -286 106 -291 -2 -2 -52 -10 -111 -19 -589 -82 -1004 -365 -1118 -762 -19 -63 -23 -102 -22 -208 0 -120 2 -137 32 -225 40 -114 87 -203 154 -288 27 -35 47 -66 44 -69 -8 -8 -154 74 -239 135 -428 308 -755 897 -827 1492 -5 46 -10 151 -10 233 l0 149 50 -75 c58 -87 163 -189 246 -240 33 -20 103 -51 155 -69 93 -33 95 -33 274 -32 161 0 190 3 277 26 266 72 522 215 758 423 46 41 87 75 91 75 3 0 29 -42 57 -92z m1447 -131 c79 -107 257 -286 369 -369 226 -169 494 -261 710 -244 316 24 570 225 696 548 l28 72 7 -80 c23 -241 -66 -609 -217 -894 -198 -374 -527 -723 -864 -913 -55 -32 -105 -57 -111 -57 -7 0 -1 19 12 42 13 24 39 86 56 138 31 88 33 105 33 225 1 152 -18 234 -85 367 -69 137 -202 295 -344 409 -155 124 -439 267 -650 329 -34 10 -59 23 -57 29 15 65 319 483 350 481 4 -1 34 -38 67 -83z m-881 -408 c114 -10 323 -43 333 -53 2 -2 -16 -55 -41 -118 -249 -626 -158 -1191 233 -1443 171 -109 389 -147 636 -110 l40 7 -70 -47 c-145 -98 -356 -179 -575 -222 -173 -34 -489 -42 -670 -19 -341 45 -675 159 -903 308 l-69 45 89 6 c366 27 637 277 747 690 40 151 50 233 50 412 0 176 -12 296 -45 450 -10 49 -19 93 -19 97 0 11 122 10 264 -3z m-331 -66 c40 -167 51 -266 51 -468 0 -169 -3 -216 -22 -303 -80 -369 -258 -607 -522 -697 -76 -26 -98 -29 -215 -29 -167 0 -180 6 -282 123 -302 346 -311 732 -26 1032 95 100 231 196 354 252 168 77 451 149 610 156 l36 1 16 -67z m835 -29 c135 -39 328 -125 460 -205 157 -96 334 -259 416 -384 57 -85 115 -217 133 -298 21 -101 13 -249 -20 -343 -33 -94 -50 -127 -110 -206 -49 -65 -51 -67 -126 -87 -319 -84 -591 -35 -776 141 -150 141 -219 295 -246 545 -24 221 35 524 156 796 28 64 30 65 113 41z" fill="url(&quot;#g__JZbN743QkdZjn0HflOwVC&quot;)"></path></g></svg></g><g id="_QWah_6dX5dLcEoyHAiAOS" transform="matrix(0.630659818649292, 0, 0, 0.5705018043518066, 200.17762047511042, 210.23076020609915)" fill="#DE6464"><svg id="_DBVw3sTM0leAYkrZtbINF" viewBox="0 11 176 160" xmlns="http://www.w3.org/2000/svg" xmlns:xlink="http://www.w3.org/1999/xlink" width="176" height="160" fill="#DE6464"><path id="_sc4O1jdYFJU3NITVKTa4G" d="M142.229,13.913C110.522,3.17,89.287,34.37,88.537,35.49h-0.046C87.741,34.37,66.505,3.17,34.8,13.913 C2.517,24.852-16.424,69.407,22.794,106.757c0,0,55.135,46.423,65.719,64.03h0.001c10.583-17.607,65.72-64.03,65.72-64.03 C193.453,69.407,174.511,24.852,142.229,13.913z" fill="#DE6464"></path></svg></g></svg>