<svg xmlns="http://www.w3.org/2000/svg" width="512" height="512" viewBox="0 0 512 512" data-svgdocument="" id="_E_f_VOvDivG14QywRzPEA" class="fl-svgdocument" x="0" y="0" style="overflow: visible;" xmlns:xlink="http://www.w3.org/1999/xlink"><defs id="_7WF_nTD2qmH-KoyNLeTOH" transform="matrix(1.1833438873291016, 0, 0, 1.1833438873291016, -41.52793502807617, -59.9752311706543)"></defs><g id="_p8hyz9C9vcPDwpnh7ZC05" transform="matrix(1.192205548286438, 0, 0, 1.192205548286438, -43.416412353515625, -117.74182891845703)"><path id="_FGm0FJ7KVnnbiIWbBDz-J" d="M94.5,84.05h0a2,2,0,0,1-2-2V70.42a6.34,6.34,0,0,0-2.72-5.34,6,6,0,0,0-2-.64,15.2,15.2,0,0,1-2.15-.54,7.39,7.39,0,0,1-4-4.22,7.31,7.31,0,0,1,.11-6.05,14.86,14.86,0,0,1,1.27-2A14.61,14.61,0,0,0,86.07,42a2,2,0,1,1,4,0,18.52,18.52,0,0,1-3.85,12,12.26,12.26,0,0,0-.95,1.46,3.37,3.37,0,0,0,0,2.78,3.71,3.71,0,0,0,1.65,2,11.92,11.92,0,0,0,1.6.39A9.21,9.21,0,0,1,92,61.75a10.32,10.32,0,0,1,4.5,8.67V82.05A2,2,0,0,1,94.5,84.05Z" stroke="none" fill="#963CBA" transform="matrix(2.0505692958831787, 0, 0, 2.0505692958831787, 149.111083984375, 124.6722183227539)"></path><path id="_i4OfRa6G7rhJMbdgxYkKt" d="M77.89,59.94c-2.92,0-6-2.11-7.67-5.25l-.09-.19A11.42,11.42,0,0,0,69,52.6,17.47,17.47,0,0,1,65.69,42a2,2,0,0,1,2-2,2,2,0,0,1,2,2,13.45,13.45,0,0,0,2.65,8.46,15.27,15.27,0,0,1,1.45,2.51c1,1.74,2.71,3,4.09,3A5.12,5.12,0,0,0,82,53.07a2,2,0,1,1,3.54,1.87A9,9,0,0,1,77.89,59.94Z" stroke="none" fill="#963CBA" transform="matrix(2.0505692958831787, 0, 0, 2.0505692958831787, 148.78770446777344, 123.6412353515625)"></path><path id="_cV3lxi1zB1bHduoDscypW" d="M88.07,44a2,2,0,0,1-2-2,8.79,8.79,0,0,0-8.4-8.72c-4.32,0-8,4-8,8.72a2,2,0,0,1-4,0c0-6.9,5.48-12.72,12-12.72S90.07,35.18,90.07,42A2,2,0,0,1,88.07,44Z" stroke="none" fill="#963CBA" transform="matrix(2.0505692958831787, 0, 0, 2.0505692958831787, 148.82093811035156, 124.09243774414062)"></path><path id="_imaU4DuykT_r8mBxsaMxH" d="M77.7,71.52a2,2,0,0,1-1.4-.57l-3.52-3.44a2,2,0,0,1,2.79-2.86l2.14,2.09,6.25-6a2,2,0,1,1,2.77,2.89L79.09,71A2,2,0,0,1,77.7,71.52Z" stroke="none" fill="#963CBA" transform="matrix(2.0505692958831787, 0, 0, 2.0505692958831787, 148.6737060546875, 123.26756286621094)"></path><path id="_680-ihDdLXzPfhdgUaaFH" d="M38.74,84.05h0a2,2,0,0,1-2-2V70.42A6.34,6.34,0,0,0,34,65.08a6,6,0,0,0-2-.64,15.2,15.2,0,0,1-2.15-.54,5.25,5.25,0,0,1-2.26-1.68,2,2,0,0,1,3.09-2.54,1.66,1.66,0,0,0,.51.46,11.77,11.77,0,0,0,1.6.39,9.21,9.21,0,0,1,3.48,1.23,10.32,10.32,0,0,1,4.5,8.67V82.05A2,2,0,0,1,38.74,84.05Z" stroke="none" fill="#1898D9" transform="matrix(2.0505692958831787, 0, 0, 2.0505692958831787, 151.6647491455078, 124.28520202636719)"></path><path id="_lEDg_D_Rrta3Aun7li2DU" d="M28.29,55.27a2,2,0,0,1-1.7-3c.29-.47.61-.9.95-1.36,1.3-1.76,2.78-3.75,2.78-8.91a2,2,0,1,1,4,0c0,6.48-2.15,9.37-3.57,11.29-.28.37-.53.71-.75,1.06A2,2,0,0,1,28.29,55.27Z" stroke="none" fill="#1898D9" transform="matrix(2.0505692958831787, 0, 0, 2.0505692958831787, 152.31980895996094, 124.20315551757812)"></path><path id="_XGUFEChfWfGgdztiygqYu" d="M16.23,55.75a2,2,0,0,1-1.77-1.06c-.23-.44-.55-.94-.88-1.46A19.91,19.91,0,0,1,9.94,42a2,2,0,0,1,2-2,2,2,0,0,1,2,2,16,16,0,0,0,3,9.18c.37.59.72,1.15,1,1.71a2,2,0,0,1-1.76,2.94Z" stroke="none" fill="#1898D9" transform="matrix(2.0505692958831787, 0, 0, 2.0505692958831787, 153.09744262695312, 124.19703674316406)"></path><path id="_wtUjRS8pkIK3Euq-gDPvm" d="M5.5,84.05a2,2,0,0,1-2-2V70.39a10.23,10.23,0,0,1,2.69-7.09,10.59,10.59,0,0,1,5.23-2.66c.52-.15,1-.29,1.58-.48a13.4,13.4,0,0,0,2.4-3.53,2,2,0,0,1,3.71,1.51c-.24.6-2.48,5-4.64,5.75-.67.24-1.33.42-2,.6A7.31,7.31,0,0,0,9.11,66,6.25,6.25,0,0,0,7.5,70.38V82.05a2,2,0,0,1-2,2Z" stroke="none" fill="#1898D9" transform="matrix(2.0505692958831787, 0, 0, 2.0505692958831787, 152.9777069091797, 124.43875885009766)"></path><path id="_K4lwgPrM_UYI9q-B1vKFd" d="M61,84a2,2,0,0,1-2-2V70.34A10.21,10.21,0,0,1,69.1,60h0a8.84,8.84,0,0,0,1.63-3.07l.12-.3a2,2,0,1,1,3.71,1.51l-.11.28c-.78,2-2.23,5.59-5.16,5.59H69.1A6.21,6.21,0,0,0,63,70.33V82a2,2,0,0,1-2,2Z" stroke="none" fill="#963CBA" transform="matrix(2.0505692958831787, 0, 0, 2.0505692958831787, 149.17120361328125, 123.883056640625)"></path><path id="_d0Igw4swoNx1DixXUw5r2" d="M22,60c-2.93,0-5.73-2-7.51-5.32A2,2,0,0,1,18,52.81c1,2,2.57,3.2,4,3.2s3.29-1.31,4.29-3.19a2,2,0,1,1,3.54,1.87C28.08,57.92,25,60,22,60Z" stroke="none" fill="#1898D9" transform="matrix(2.0505692958831787, 0, 0, 2.0505692958831787, 152.74159240722656, 122.56593322753906)"></path><path id="_VaSbMKImhPTERxZMQvfgF" d="M32.31,44a2,2,0,0,1-2-2c0-4.65-3.9-8.72-8.34-8.72s-8,4-8,8.72a2,2,0,1,1-4,0c0-6.9,5.51-12.72,12-12.72,6.69,0,12.34,5.83,12.34,12.72A2,2,0,0,1,32.31,44Z" stroke="none" fill="#1898D9" transform="matrix(2.0505692958831787, 0, 0, 2.0505692958831787, 153.0362091064453, 124.64813232421875)"></path><path id="_Z2_skZp-d7-Jy2acLdVEp" d="M22,69.38A2,2,0,0,1,20.77,69l-7-5.38a2,2,0,1,1,2.43-3.17l5.76,4.42,2-1.61a2,2,0,1,1,2.54,3.09l-3.19,2.62A2,2,0,0,1,22,69.38Z" stroke="none" fill="#1898D9" transform="matrix(2.0505692958831787, 0, 0, 2.0505692958831787, 153.1805877685547, 124.25889587402344)"></path><path id="_1Ir19u9zKnFuVOpKgSWIS" d="M17.39,45a2,2,0,0,1-.13-4A8.48,8.48,0,0,0,23.4,37.8a2.07,2.07,0,0,1,3.2,0c1,1.32,3,3.13,4.09,3.06a2,2,0,0,1,2.1,1.89,2,2,0,0,1-1.89,2.1C28.53,45,26.36,43.35,25,42a12.68,12.68,0,0,1-7.43,3Z" stroke="none" fill="#1898D9" transform="matrix(2.0505692958831787, 0, 0, 2.0505692958831787, 153.34178161621094, 126.15848541259766)"></path><path id="_S8TonVAo1qF3UbkugnUOH" d="M40.58,59.72a2,2,0,0,1-.67-3.89,3.71,3.71,0,0,0,1.64-2,3.36,3.36,0,0,0,0-2.78,16.23,16.23,0,0,0-.84-1.41A21,21,0,0,1,37,37.15a2,2,0,0,1,4,0,17.19,17.19,0,0,0,3.13,10.39,18.83,18.83,0,0,1,1.06,1.8,7.32,7.32,0,0,1,.11,6.05,7.39,7.39,0,0,1-4,4.22A2,2,0,0,1,40.58,59.72Z" stroke="none" fill="#64B350" transform="matrix(2.0505692958831787, 0, 0, 2.0505692958831787, 150.76658630371094, 124.92093658447266)"></path><path id="_YtK2fVrrPb94AbR5Zy5zc" d="M61.58,60.78a2,2,0,0,1-.89-.21,8.14,8.14,0,0,0-3.14-.85c-2.36-.15-4.75-3.66-5.36-5.1a2,2,0,1,1,3.69-1.55A8,8,0,0,0,58,55.74,12.23,12.23,0,0,1,62.47,57a2,2,0,0,1-.89,3.79Z" stroke="none" fill="#64B350" transform="matrix(2.0505692958831787, 0, 0, 2.0505692958831787, 149.66238403320312, 125.54349517822266)"></path><path id="_HJAwcA6-chpZv6R6ZfJEJ" d="M49.15,55.72a9.25,9.25,0,0,1-7.89-5.14,2,2,0,0,1,3.54-1.87,5.38,5.38,0,0,0,4.35,3c2,0,3.14-.61,3.93-2a23.62,23.62,0,0,1,1.22-2.36,19.7,19.7,0,0,0,3.05-10.2,2,2,0,0,1,2-2,2,2,0,0,1,2,2,23.46,23.46,0,0,1-3.56,12.08,19.47,19.47,0,0,0-1,2l-.09.19C55.16,54.29,52.64,55.72,49.15,55.72Z" stroke="none" fill="#64B350" transform="matrix(2.0505692958831787, 0, 0, 2.0505692958831787, 150.6997833251953, 124.91454315185547)"></path><path id="_xLR2XBmhVVwwok_vW8UXv" d="M49.15,63.23a10.18,10.18,0,0,1-8.54-5.06,2,2,0,1,1,3.45-2,6.28,6.28,0,0,0,5.09,3.09,6.31,6.31,0,0,0,5.09-3.1,2,2,0,0,1,3.44,2A10.35,10.35,0,0,1,49.15,63.23Z" stroke="none" fill="#64B350" transform="matrix(2.0505692958831787, 0, 0, 2.0505692958831787, 151.255126953125, 125.15000915527344)"></path><path id="_WyK5veORmOTReZGZixYDX" d="M59.35,39.15a2,2,0,0,1-2-2,8.2,8.2,0,1,0-16.4,0,2,2,0,0,1-4,0,12.2,12.2,0,1,1,24.4,0A2,2,0,0,1,59.35,39.15Z" stroke="none" fill="#64B350" transform="matrix(2.0505692958831787, 0, 0, 2.0505692958831787, 150.85348510742188, 125.3622055053711)"></path><path id="_tz6HrTtBy6isRFGHlDqfC" d="M85,45.18a20.71,20.71,0,0,1-11.16-3.76,2,2,0,1,1,2.21-3.34c3.87,2.56,8,3.62,11.13,2.83a2,2,0,0,1,1,3.88A12.82,12.82,0,0,1,85,45.18Z" stroke="none" fill="#963CBA" transform="matrix(2.0505692958831787, 0, 0, 2.0505692958831787, 150.31251525878906, 124.15885925292969)"></path><path id="_5Jm75ggW2KjHBO2dWsHhW" d="M85.78,63A2,2,0,0,1,85,59.19a6.58,6.58,0,0,0,3.8-8.08l-2.66-8.56A2,2,0,0,1,90,41.36l2.66,8.56a10.56,10.56,0,0,1-6.1,13A2,2,0,0,1,85.78,63Z" stroke="none" fill="#963CBA" transform="matrix(2.0505692958831787, 0, 0, 2.0505692958831787, 149.48611450195312, 123.7773666381836)"></path><path id="_ZhwOaN-OoFxlgcpi0qmQN" d="M66.7,58.3h-.14a2,2,0,0,1-1.86-2.13l1-14.34a2,2,0,0,1,4,.28l-1,14.34A2,2,0,0,1,66.7,58.3Z" stroke="none" fill="#963CBA" transform="matrix(2.0505692958831787, 0, 0, 2.0505692958831787, 148.68307495117188, 124.74359130859375)"></path><path id="_QHH1DfI8QD-IBud67l3r6" d="M44.28,40.87a2,2,0,0,1-.2-4c1.3-.13,1.8-.94,2.71-2.89.14-.3.28-.6.42-.88a2,2,0,1,1,3.58,1.79c-.13.25-.25.52-.37.78-.89,1.92-2.24,4.81-5.93,5.18Z" stroke="none" fill="#64B350" transform="matrix(2.0505692958831787, 0, 0, 2.0505692958831787, 150.39329528808594, 125.23526763916016)"></path><path id="_cxlGH-vYJqRj7ejVAAXBO" d="M59,41c-8.13,0-10.27-3-11.63-5.79l-.16-.32a2,2,0,1,1,3.58-1.79l.17.35c.81,1.66,1.72,3.54,8,3.54a2,2,0,0,1,0,4Z" stroke="none" fill="#64B350" transform="matrix(2.0505692958831787, 0, 0, 2.0505692958831787, 150.84620666503906, 124.2102279663086)"></path><path id="_RdyLdTX3T9CBbvK4BzAmr" d="M22,84a2,2,0,0,1-1.41-3.41,2,2,0,0,1,2.82,0,2,2,0,0,1,0,2.82,1.46,1.46,0,0,1-.3.25,1.67,1.67,0,0,1-.35.19,1.62,1.62,0,0,1-.37.11A1.7,1.7,0,0,1,22,84Z" stroke="none" fill="#1898D9" transform="matrix(2.0505692958831787, 0, 0, 2.0505692958831787, 153.04946899414062, 126.2293472290039)"></path><path id="_9xK4TmjPoqIsFBCHC9nU9" d="M22,79.14a2,2,0,0,1-2-2V77a2,2,0,0,1,4,0v.14A2,2,0,0,1,22,79.14Z" stroke="none" fill="#1898D9" transform="matrix(2.0505692958831787, 0, 0, 2.0505692958831787, 152.97445678710938, 125.22718811035156)"></path><path id="_9eju3tSFHwop7Tx9YPc4s" d="M22,74a2,2,0,1,1,2-2h0A2,2,0,0,1,22,74Z" stroke="none" fill="#1898D9" transform="matrix(2.0505692958831787, 0, 0, 2.0505692958831787, 153.15284729003906, 125.22135162353516)"></path><path id="_0Fo6oeC8PT44zF2RbD4s3" d="M69,83a2,2,0,0,1-2-2V74a2,2,0,0,1,4,0v7A2,2,0,0,1,69,83Z" stroke="none" fill="#963CBA" transform="matrix(2.0505692958831787, 0, 0, 2.0505692958831787, 150.19505310058594, 123.64628601074219)"></path></g><path id="_EhOlWw22ZZg_KFuSD8JhE" fill="#3D424D" transform="matrix(0.5660440325737, 0, 0, 0.6301722526550293, 256.48114013671875, 293.6792297363281)" text="Team Synergy" text-anchor="middle" font-size="100" letter-spacing="0" side="left" offset="0.5" dx="0" dy="0" space="preserve" href="" font-family="Lemon" font-scale="contain" x="0" y="0" data-fl-textpath="" d="M-407.2-55.2L-407.2-55.2Q-407.2-63.3 -403-67.4Q-398.8-71.5 -392.95-71.5Q-387.1-71.5 -377-69.5Q-366.9-67.5 -361.8-67.4L-361.8-67.4Q-353.3-69 -345.6-71.3L-345.6-71.3Q-344.8-68.7 -344.8-64.8L-344.8-64.8Q-344.8-56.7 -349.45-52.6Q-354.1-48.5 -361.3-48.5L-361.3-48.5Q-363.1-48.5 -366.1-48.7L-366.1-48.7Q-371.6-19.8 -371.6-16.4L-371.6-16.4Q-371.6-6.7 -368.6-1.9L-368.6-1.9Q-374.6 2.6 -381.1 2.6Q-387.6 2.6 -390.4-1.15Q-393.2-4.9 -393.2-12.35Q-393.2-19.8 -387.4-52.1L-387.4-52.1Q-398.7-50.6 -406.4-48.7L-406.4-48.7Q-407.2-51.2 -407.2-55.2ZM-315.9 2.5L-315.9 2.5Q-329.6 2.5 -337.05-4.6Q-344.5-11.7 -344.5-23.8L-344.5-23.8Q-344.5-39.9 -333.45-49.95Q-322.4-60 -305.7-60L-305.7-60Q-296.4-60 -291.6-55.85Q-286.8-51.7 -286.8-44.9L-286.8-44.9Q-286.8-35.6 -295.85-29.45Q-304.9-23.3 -323.8-23.2L-323.8-23.2Q-323.5-16.8 -320.9-13.15Q-318.3-9.5 -314.4-9.5Q-310.5-9.5 -307.65-12.1Q-304.8-14.7 -304.8-20.6L-304.8-20.6Q-290.2-20.6 -290.2-13.7L-290.2-13.7Q-290.2-7.8 -297.4-2.65Q-304.6 2.5 -315.9 2.5ZM-307.4-48.3L-307.4-48.3Q-312.5-48.3 -316.75-43.2Q-321-38.1 -322.9-31.2L-322.9-31.2Q-312.9-32 -307.85-35.75Q-302.8-39.5 -302.8-43.7L-302.8-43.7Q-302.8-45.7 -304.05-47Q-305.3-48.3 -307.4-48.3ZM-240.60000000000002-12.3L-240.60000000000002-12.3L-241.60000000000002-12.8Q-244.3-5.6 -249.35000000000002-1.55Q-254.4 2.5 -260.6 2.5L-260.6 2.5Q-269.1 2.5 -274.2-3.9Q-279.3-10.3 -279.3-21L-279.3-21Q-279.3-37.6 -268.15000000000003-48.8Q-257-60 -240.4-60L-240.4-60Q-236.10000000000002-60 -232.5-59.2L-232.5-59.2Q-231.9-56.4 -231.8-54.3L-231.8-54.3Q-226.8-57.5 -221.5-57.5L-221.5-57.5Q-214.20000000000002-57.5 -214.20000000000002-49.6L-214.20000000000002-49.6Q-214.20000000000002-46.8 -217.35000000000002-32.7Q-220.5-18.6 -220.5-11.8Q-220.5-5 -217.4-2.4L-217.4-2.4Q-223 2.5 -229.05 2.5Q-235.10000000000002 2.5 -237.85000000000002-1.1Q-240.60000000000002-4.7 -240.60000000000002-12.3ZM-260.5-25.9L-260.5-25.9Q-260.5-21 -258.45-18.35Q-256.40000000000003-15.7 -252.60000000000002-15.7Q-248.8-15.7 -245.10000000000002-18.5Q-241.4-21.3 -238.9-26.2L-238.9-26.2Q-238-36.3 -235-50.1L-235-50.1Q-245.10000000000002-50.1 -252.8-42.8Q-260.5-35.5 -260.5-25.9ZM-140.39999999999998-42.2L-140.39999999999998-42.2L-139.39999999999998-41.7Q-128.7-60 -113.19999999999999-60L-113.19999999999999-60Q-101.1-60 -101.1-47.9L-101.1-47.9Q-101.1-42.7 -104.04999999999998-30.3Q-106.99999999999999-17.9 -106.99999999999999-11.6Q-106.99999999999999-5.3 -104.89999999999999-2.4L-104.89999999999999-2.4Q-110.19999999999999 2.5 -116.1 2.5L-116.1 2.5Q-127.6 2.5 -127.6-9.9L-127.6-9.9Q-127.6-14.5 -124.6-25.5Q-121.6-36.5 -121.6-39.8L-121.6-39.8Q-121.6-44.3 -124.99999999999999-44.3L-124.99999999999999-44.3Q-127.79999999999998-44.3 -131.25-41.85Q-134.7-39.4 -137.85-35.25Q-141-31.1 -143.14999999999998-24.75Q-145.29999999999998-18.4 -145.29999999999998-11.85Q-145.29999999999998-5.3 -143.2-2.4L-143.2-2.4Q-148.5 2.5 -154.39999999999998 2.5L-154.39999999999998 2.5Q-165.89999999999998 2.5 -165.89999999999998-9.9L-165.89999999999998-9.9Q-165.89999999999998-14.5 -162.89999999999998-25.5Q-159.89999999999998-36.5 -159.89999999999998-39.8L-159.89999999999998-39.8Q-159.89999999999998-44.3 -163.29999999999998-44.3L-163.29999999999998-44.3Q-166.1-44.3 -169.54999999999998-41.85Q-173-39.4 -176.14999999999998-35.25Q-179.29999999999998-31.1 -181.45-24.75Q-183.6-18.4 -183.6-11.85Q-183.6-5.3 -181.5-2.4L-181.5-2.4Q-186.79999999999998 2.5 -192.7 2.5L-192.7 2.5Q-204.2 2.5 -204.2-9.9L-204.2-9.9Q-204.2-13.9 -202.14999999999998-25.4Q-200.1-36.9 -197.89999999999998-46.4L-197.89999999999998-46.4L-203.1-54.4Q-193.2-60 -184.79999999999998-60Q-176.39999999999998-60 -176.39999999999998-52.4L-176.39999999999998-52.4Q-176.39999999999998-47.4 -178.7-42.2L-178.7-42.2L-177.7-41.7Q-167-60 -151.5-60L-151.5-60Q-145.89999999999998-60 -142.64999999999998-57.2Q-139.39999999999998-54.4 -139.39999999999998-48.8L-139.39999999999998-48.8Q-139.39999999999998-45.8 -140.39999999999998-42.2ZM-25.19999999999998-72.5L-25.19999999999998-72.5Q-11.999999999999979-72.5 -5.399999999999977-69.45Q 1.200000000000017-66.4  1.200000000000017-59.75Q 1.200000000000017-53.1 -2.84999999999998-49.65Q-6.899999999999977-46.2 -12.09999999999998-46.2Q-17.299999999999983-46.2 -21.44999999999998-48.85Q-25.59999999999998-51.5 -27.19999999999998-55.9L-27.19999999999998-55.9Q-30.899999999999977-55.9 -34.24999999999998-53.45Q-37.59999999999998-51 -38.49999999999998-47.1L-38.49999999999998-47.1Q-18.69999999999998-42.3 -10.09999999999998-35.9Q-1.4999999999999858-29.5 -1.4999999999999858-19.5Q-1.4999999999999858-9.5 -10.549999999999983-3.5Q-19.59999999999998 2.5 -34.94999999999998 2.5Q-50.29999999999998 2.5 -56.69999999999998-1.7Q-63.09999999999998-5.9 -63.09999999999998-12.8Q-63.09999999999998-19.7 -58.79999999999998-25.5L-58.79999999999998-25.5Q-56.69999999999998-21 -50.74999999999998-17.4Q-44.79999999999998-13.8 -38.99999999999998-13.8L-38.99999999999998-13.8Q-28.299999999999983-13.8 -25.399999999999977-20.6L-25.399999999999977-20.6Q-41.99999999999998-22.8 -50.69999999999998-29.85Q-59.39999999999998-36.9 -59.39999999999998-46.9L-59.39999999999998-46.9Q-59.39999999999998-53.6 -55.79999999999998-58.85Q-52.19999999999998-64.1 -46.59999999999998-66.9L-46.59999999999998-66.9Q-35.59999999999998-72.5 -25.19999999999998-72.5ZM 35.40000000000002-2L 35.40000000000002-2Q 30.700000000000017-0.3  26.000000000000018-0.3Q 21.30000000000002-0.3  18.100000000000016-3.1Q 14.900000000000016-5.9  14.400000000000016-10.7Q 13.900000000000016-15.5  13.500000000000018-24.65Q 13.100000000000017-33.8  12.700000000000017-37.6L 12.700000000000017-37.6Q 11.400000000000016-50.3  4.700000000000017-55.7L 4.700000000000017-55.7Q 9.400000000000016-60  16.500000000000018-60L 16.500000000000018-60Q 20.400000000000016-60  23.30000000000002-57.95Q 26.200000000000017-55.9  27.950000000000017-52.55Q 29.700000000000017-49.2  30.80000000000002-43.9L 30.80000000000002-43.9Q 32.500000000000014-35.1  32.500000000000014-20.1L 32.500000000000014-20.1Q 32.500000000000014-16.4  32.20000000000002-11.4L 32.20000000000002-11.4L 38.000000000000014-11.4Q 48.30000000000002-39.2  48.30000000000002-49.3L 48.30000000000002-49.3Q 48.30000000000002-52.7  46.80000000000002-55.7L 46.80000000000002-55.7Q 53.80000000000002-60  59.000000000000014-60L 59.000000000000014-60Q 68.70000000000002-60  68.70000000000002-48.8L 68.70000000000002-48.8Q 68.70000000000002-39.9  60.500000000000014-17.5L 60.500000000000014-17.5Q 59.000000000000014-13.4  58.80000000000002-12.7L 58.80000000000002-12.7Q 46.100000000000016 23.5  22.700000000000017 23.5L 22.700000000000017 23.5Q 15.600000000000017 23.5  11.000000000000018 20.45Q 6.400000000000017 17.4  6.400000000000017 12.45Q 6.400000000000017 7.5  10.100000000000017 2.1L 10.100000000000017 2.1Q 14.900000000000016 8.9  22.100000000000016 8.9L 22.100000000000016 8.9Q 26.200000000000017 8.9  29.750000000000018 6.2Q 33.30000000000002 3.5  35.40000000000002-2ZM 88.70000000000002 2.5Q 82.80000000000001 2.5  80.00000000000001-0.6Q 77.20000000000002-3.7  77.20000000000002-8.8Q 77.20000000000002-13.9  79.25000000000001-25.4Q 81.30000000000001-36.9  83.50000000000001-46.4L 83.50000000000001-46.4L 78.30000000000001-54.4Q 88.20000000000002-60  96.60000000000002-60Q 105.00000000000001-60  105.00000000000001-52.4L 105.00000000000001-52.4Q 105.00000000000001-47.4  102.70000000000002-42.2L 102.70000000000002-42.2L 103.70000000000002-41.7Q 114.40000000000002-60  130.90000000000003-60L 130.90000000000003-60Q 143-60  143-47.9L 143-47.9Q 143-42.7  140.05-30.3Q 137.10000000000002-17.9  137.10000000000002-11.6Q 137.10000000000002-5.3  139.20000000000002-2.4L 139.20000000000002-2.4Q 133.90000000000003 2.5  128 2.5L 128 2.5Q 116.50000000000001 2.5  116.50000000000001-9.9L 116.50000000000001-9.9Q 116.50000000000001-14.5  119.50000000000001-25.5Q 122.50000000000001-36.5  122.50000000000001-39.8L 122.50000000000001-39.8Q 122.50000000000001-44.3  119.10000000000002-44.3L 119.10000000000002-44.3Q 116.30000000000001-44.3  112.70000000000002-41.85Q 109.10000000000002-39.4  105.75000000000001-35.25Q 102.40000000000002-31.1  100.10000000000002-24.75Q 97.80000000000001-18.4  97.80000000000001-11.85Q 97.80000000000001-5.3  99.90000000000002-2.4L 99.90000000000002-2.4Q 94.60000000000002 2.5  88.70000000000002 2.5ZM 180.6 2.5L 180.6 2.5Q 166.9 2.5  159.45-4.6Q 152-11.7  152-23.8L 152-23.8Q 152-39.9  163.05-49.95Q 174.1-60  190.8-60L 190.8-60Q 200.1-60  204.9-55.85Q 209.7-51.7  209.7-44.9L 209.7-44.9Q 209.7-35.6  200.65-29.45Q 191.6-23.3  172.7-23.2L 172.7-23.2Q 173-16.8  175.6-13.15Q 178.2-9.5  182.1-9.5Q 186-9.5  188.85-12.1Q 191.7-14.7  191.7-20.6L 191.7-20.6Q 206.3-20.6  206.3-13.7L 206.3-13.7Q 206.3-7.8  199.1-2.65Q 191.9 2.5  180.6 2.5ZM 189.1-48.3L 189.1-48.3Q 184-48.3  179.75-43.2Q 175.5-38.1  173.6-31.2L 173.6-31.2Q 183.6-32  188.65-35.75Q 193.7-39.5  193.7-43.7L 193.7-43.7Q 193.7-45.7  192.45-47Q 191.2-48.3  189.1-48.3ZM 218.7-9.9L 218.7-9.9Q 218.7-13.9  220.75-25.4Q 222.79999999999998-36.9  225-46.4L 225-46.4L 219.79999999999998-54.4Q 232.29999999999998-60  237.35-60Q 242.39999999999998-60  242.39999999999998-53.6L 242.39999999999998-53.6Q 242.39999999999998-50.1  239.1-39L 239.1-39L 240.1-38.5Q 247.29999999999998-60  258-60L 258-60Q 262.9-60  265.5-57Q 268.09999999999997-54  268.09999999999997-50.3L 268.09999999999997-50.3Q 268.09999999999997-44.8  264-40.9Q 259.9-37  251.7-37L 251.7-37Q 239.29999999999998-37  239.29999999999998-11.5L 239.29999999999998-11.5Q 239.29999999999998-5.3  241.39999999999998-2.4L 241.39999999999998-2.4Q 235.2 2.5  230 2.5L 230 2.5Q 218.7 2.5  218.7-9.9ZM 290-28L 290-28Q 290-22.9  292.85-19.75Q 295.70000000000005-16.6  299.90000000000003-16.6L 299.90000000000003-16.6Q 305.6-16.6  310.1-22L 310.1-22Q 311.8-30.9  314.5-50.1L 314.5-50.1Q 303.3-50.1  296.65000000000003-43.6Q 290-37.1  290-28ZM 316.55 9.95Q 311.8 16.2  304.70000000000005 19.85Q 297.6 23.5  289.75 23.5Q 281.90000000000003 23.5  277.15000000000003 20.55Q 272.40000000000003 17.6  272.40000000000003 12.6Q 272.40000000000003 7.6  276.5 2.1L 276.5 2.1Q 281.1 8.9  290.3 8.9L 290.3 8.9Q 296.3 8.9  301.45000000000005 3.75Q 306.6-1.4  308.3-11.3L 308.3-11.3L 307.3-11.8Q 300.20000000000005-1.4  289.1-1.4L 289.1-1.4Q 280.70000000000005-1.4  275.90000000000003-7.9Q 271.1-14.4  271.1-25.2L 271.1-25.2Q 271.1-35.6  276.8-44.2L 276.8-44.2Q 283.3-54.1  294.90000000000003-57.9L 294.90000000000003-57.9Q 301.3-60  307.1-60Q 312.90000000000003-60  316.90000000000003-59.2L 316.90000000000003-59.2Q 317.5-56.5  317.6-54.3L 317.6-54.3Q 322.3-57.5  327.1-57.5L 327.1-57.5Q 334-57.5  334-50.4Q 334-43.3  333.1-35.85Q 332.20000000000005-28.4  330.3-19.9Q 328.40000000000003-11.4  324.85-3.85Q 321.3 3.7  316.55 9.95ZM 372.2-2L 372.2-2Q 367.5-0.3  362.8-0.3Q 358.1-0.3  354.9-3.1Q 351.7-5.9  351.2-10.7Q 350.7-15.5  350.3-24.65Q 349.9-33.8  349.5-37.6L 349.5-37.6Q 348.2-50.3  341.5-55.7L 341.5-55.7Q 346.2-60  353.3-60L 353.3-60Q 357.2-60  360.1-57.95Q 363-55.9  364.75-52.55Q 366.5-49.2  367.6-43.9L 367.6-43.9Q 369.3-35.1  369.3-20.1L 369.3-20.1Q 369.3-16.4  369-11.4L 369-11.4L 374.8-11.4Q 385.1-39.2  385.1-49.3L 385.1-49.3Q 385.1-52.7  383.6-55.7L 383.6-55.7Q 390.6-60  395.8-60L 395.8-60Q 405.5-60  405.5-48.8L 405.5-48.8Q 405.5-39.9  397.3-17.5L 397.3-17.5Q 395.8-13.4  395.6-12.7L 395.6-12.7Q 382.9 23.5  359.5 23.5L 359.5 23.5Q 352.4 23.5  347.8 20.45Q 343.2 17.4  343.2 12.45Q 343.2 7.5  346.9 2.1L 346.9 2.1Q 351.7 8.9  358.9 8.9L 358.9 8.9Q 363 8.9  366.55 6.2Q 370.1 3.5  372.2-2Z"></path><path id="_7ErWV-9-ahMzUsFFJetqT" fill="#3D424D" transform="matrix(0.5660444498062134, 0, 0, 0.6301722526550293, 257.33740234375, 378.51513671875)" text="Simulator" text-anchor="middle" font-size="100" letter-spacing="0" side="left" offset="0.5" dx="0" dy="0" space="preserve" href="" font-family="Lemon" font-scale="contain" x="0" y="0" data-fl-textpath="" d="M-249.20000000000002-72.5L-249.20000000000002-72.5Q-236.00000000000003-72.5 -229.40000000000003-69.45Q-222.8-66.4 -222.8-59.75Q-222.8-53.1 -226.85000000000002-49.65Q-230.90000000000003-46.2 -236.10000000000002-46.2Q-241.3-46.2 -245.45000000000002-48.85Q-249.60000000000002-51.5 -251.20000000000002-55.9L-251.20000000000002-55.9Q-254.90000000000003-55.9 -258.25-53.45Q-261.6-51 -262.5-47.1L-262.5-47.1Q-242.70000000000002-42.3 -234.10000000000002-35.9Q-225.50000000000003-29.5 -225.50000000000003-19.5Q-225.50000000000003-9.5 -234.55-3.5Q-243.60000000000002 2.5 -258.95000000000005 2.5Q-274.3 2.5 -280.70000000000005-1.7Q-287.1-5.9 -287.1-12.8Q-287.1-19.7 -282.8-25.5L-282.8-25.5Q-280.70000000000005-21 -274.75-17.4Q-268.8-13.8 -263-13.8L-263-13.8Q-252.3-13.8 -249.40000000000003-20.6L-249.40000000000003-20.6Q-266-22.8 -274.70000000000005-29.85Q-283.40000000000003-36.9 -283.40000000000003-46.9L-283.40000000000003-46.9Q-283.40000000000003-53.6 -279.8-58.85Q-276.20000000000005-64.1 -270.6-66.9L-270.6-66.9Q-259.6-72.5 -249.20000000000002-72.5ZM-184-75.85Q-184-72 -188-69.25Q-192-66.5 -197.10000000000002-66.5Q-202.20000000000002-66.5 -205.15-68.5Q-208.10000000000002-70.5 -208.10000000000002-73.9L-208.10000000000002-73.9Q-208.10000000000002-78.5 -203.8-81.1Q-199.5-83.7 -194.70000000000002-83.7Q-189.9-83.7 -186.95000000000002-81.7Q-184-79.7 -184-75.85ZM-203.45000000000002 2.5Q-209.70000000000002 2.5 -212.5-0.6Q-215.3-3.7 -215.3-10.05Q-215.3-16.4 -208.9-44.1L-208.9-44.1L-214.5-52.5Q-202-60 -194.8-60L-194.8-60Q-190.70000000000002-60 -189-58.25Q-187.3-56.5 -187.3-52.6L-187.3-52.6Q-187.3-51.1 -191-35Q-194.70000000000002-18.9 -194.70000000000002-12Q-194.70000000000002-5.1 -191.60000000000002-2.4L-191.60000000000002-2.4Q-197.20000000000002 2.5 -203.45000000000002 2.5ZM-113.7-42.2L-113.7-42.2L-112.7-41.7Q-102-60 -86.5-60L-86.5-60Q-74.4-60 -74.4-47.9L-74.4-47.9Q-74.4-42.7 -77.35-30.3Q-80.3-17.9 -80.3-11.6Q-80.3-5.3 -78.2-2.4L-78.2-2.4Q-83.5 2.5 -89.4 2.5L-89.4 2.5Q-100.9 2.5 -100.9-9.9L-100.9-9.9Q-100.9-14.5 -97.9-25.5Q-94.9-36.5 -94.9-39.8L-94.9-39.8Q-94.9-44.3 -98.3-44.3L-98.3-44.3Q-101.1-44.3 -104.55-41.85Q-108-39.4 -111.15-35.25Q-114.3-31.1 -116.45-24.75Q-118.6-18.4 -118.6-11.85Q-118.6-5.3 -116.5-2.4L-116.5-2.4Q-121.8 2.5 -127.7 2.5L-127.7 2.5Q-139.2 2.5 -139.2-9.9L-139.2-9.9Q-139.2-14.5 -136.2-25.5Q-133.2-36.5 -133.2-39.8L-133.2-39.8Q-133.2-44.3 -136.6-44.3L-136.6-44.3Q-139.4-44.3 -142.85-41.85Q-146.3-39.4 -149.45-35.25Q-152.6-31.1 -154.75-24.75Q-156.9-18.4 -156.9-11.85Q-156.9-5.3 -154.8-2.4L-154.8-2.4Q-160.1 2.5 -166 2.5L-166 2.5Q-177.5 2.5 -177.5-9.9L-177.5-9.9Q-177.5-13.9 -175.45-25.4Q-173.4-36.9 -171.2-46.4L-171.2-46.4L-176.4-54.4Q-166.5-60 -158.1-60Q-149.7-60 -149.7-52.4L-149.7-52.4Q-149.7-47.4 -152-42.2L-152-42.2L-151-41.7Q-140.3-60 -124.8-60L-124.8-60Q-119.2-60 -115.95-57.2Q-112.7-54.4 -112.7-48.8L-112.7-48.8Q-112.7-45.8 -113.7-42.2ZM-47.599999999999994 2.5L-47.599999999999994 2.5Q-56.39999999999999 2.5 -59.89999999999999-1.8Q-63.39999999999999-6.1 -63.39999999999999-12.65Q-63.39999999999999-19.2 -61.19999999999999-30.6Q-58.99999999999999-42 -58.99999999999999-47.1Q-58.99999999999999-52.2 -61.099999999999994-55.1L-61.099999999999994-55.1Q-51.79999999999999-60 -45.39999999999999-60L-45.39999999999999-60Q-41.29999999999999-60 -39.44999999999999-58.35Q-37.599999999999994-56.7 -37.599999999999994-53Q-37.599999999999994-49.3 -40.64999999999999-34.85Q-43.69999999999999-20.4 -43.69999999999999-17Q-43.69999999999999-13.6 -41.79999999999999-11.65Q-39.89999999999999-9.7 -36.79999999999999-9.7Q-33.69999999999999-9.7 -30.19999999999999-12.15Q-26.69999999999999-14.6 -24.499999999999993-19.1L-24.499999999999993-19.1Q-23.099999999999994-27.2 -18.999999999999993-44.7L-18.999999999999993-44.7L-24.999999999999993-52.7Q-14.899999999999991-60 -5.799999999999997-60L-5.799999999999997-60Q-1.2999999999999972-60  0.6500000000000057-58.35Q 2.6000000000000085-56.7  2.6000000000000085-53.35Q 2.6000000000000085-50 -1.0499999999999972-34.2Q-4.699999999999989-18.4 -4.699999999999989-11.75Q-4.699999999999989-5.1 -1.5999999999999943-2.4L-1.5999999999999943-2.4Q-7.199999999999989 2.5 -13.349999999999994 2.5Q-19.499999999999993 2.5 -22.19999999999999-0.2Q-24.89999999999999-2.9 -24.89999999999999-7.3L-24.89999999999999-7.3L-25.89999999999999-7.8Q-29.19999999999999-3 -35.04999999999999-0.25Q-40.89999999999999 2.5 -47.599999999999994 2.5ZM 21.400000000000013-62.2L 21.400000000000013-62.2L 15.800000000000015-70.2Q 28.300000000000015-77.5  35.500000000000014-77.5L 35.500000000000014-77.5Q 39.600000000000016-77.5  41.30000000000001-75.85Q 43.000000000000014-74.2  43.000000000000014-69.65Q 43.000000000000014-65.1  38.55000000000001-44Q 34.100000000000016-22.9  34.100000000000016-14.4Q 34.100000000000016-5.9  37.20000000000002-2.4L 37.20000000000002-2.4Q 30.200000000000014 2.5  24.500000000000014 2.5Q 18.800000000000015 2.5  16.150000000000013-1.25Q 13.500000000000014-5  13.500000000000014-11.6Q 13.500000000000014-18.2  17.200000000000014-38.6Q 20.900000000000013-59  21.400000000000013-62.2ZM 87.70000000000002-12.3L 87.70000000000002-12.3L 86.70000000000002-12.8Q 84-5.6  78.95000000000002-1.55Q 73.9 2.5  67.7 2.5L 67.7 2.5Q 59.2 2.5  54.10000000000001-3.9Q 49.00000000000001-10.3  49.00000000000001-21L 49.00000000000001-21Q 49.00000000000001-37.6  60.150000000000006-48.8Q 71.30000000000001-60  87.9-60L 87.9-60Q 92.20000000000002-60  95.80000000000001-59.2L 95.80000000000001-59.2Q 96.4-56.4  96.5-54.3L 96.5-54.3Q 101.5-57.5  106.80000000000001-57.5L 106.80000000000001-57.5Q 114.1-57.5  114.1-49.6L 114.1-49.6Q 114.1-46.8  110.95000000000002-32.7Q 107.80000000000001-18.6  107.80000000000001-11.8Q 107.80000000000001-5  110.9-2.4L 110.9-2.4Q 105.30000000000001 2.5  99.25 2.5Q 93.20000000000002 2.5  90.45000000000002-1.1Q 87.70000000000002-4.7  87.70000000000002-12.3ZM 67.80000000000001-25.9L 67.80000000000001-25.9Q 67.80000000000001-21  69.85000000000001-18.35Q 71.9-15.7  75.7-15.7Q 79.5-15.7  83.20000000000002-18.5Q 86.9-21.3  89.4-26.2L 89.4-26.2Q 90.30000000000001-36.3  93.30000000000001-50.1L 93.30000000000001-50.1Q 83.20000000000002-50.1  75.5-42.8Q 67.80000000000001-35.5  67.80000000000001-25.9ZM 125.30000000000004-36.1L 125.30000000000004-36.1Q 124.60000000000004-38.9  124.60000000000004-41.3L 124.60000000000004-41.3Q 124.60000000000004-46.2  127.50000000000004-48.7Q 130.40000000000003-51.2  135.00000000000003-51.2L 135.00000000000003-51.2Q 135.00000000000003-56.4  132.30000000000004-62.5L 132.30000000000004-62.5Q 137.20000000000005-66.1  141.25000000000003-67.95Q 145.30000000000004-69.8  149.80000000000004-69.8Q 154.30000000000004-69.8  156.05000000000004-68.15Q 157.80000000000004-66.5  157.80000000000004-63.1Q 157.80000000000004-59.7  156.40000000000003-52.5L 156.40000000000003-52.5Q 160.40000000000003-53.1  164.50000000000003-54.2L 164.50000000000003-54.2Q 165.20000000000005-52.1  165.20000000000005-48.8Q 165.20000000000005-45.5  162.65000000000003-42.65Q 160.10000000000002-39.8  155.20000000000005-39.8L 155.20000000000005-39.8L 153.70000000000005-39.8Q 150.10000000000002-23.5  150.10000000000002-14.7Q 150.10000000000002-5.9  153.20000000000005-2.4L 153.20000000000005-2.4Q 147.60000000000002 2.5  141.30000000000004 2.5Q 135.00000000000003 2.5  132.25000000000003-1.25Q 129.50000000000003-5  129.50000000000003-12.9L 129.50000000000003-12.9Q 129.50000000000003-17.7  133.00000000000003-38.1L 133.00000000000003-38.1Q 129.00000000000003-37.4  125.30000000000004-36.1ZM 220-52.4L 220-52.4Q 225.60000000000002-52.4  229.65000000000003-47.9Q 233.70000000000002-43.4  233.70000000000002-34.85Q 233.70000000000002-26.3  230.70000000000002-19.05Q 227.70000000000002-11.8  222.8-7.2Q 217.90000000000003-2.6  211.70000000000002-0.05Q 205.5 2.5  199 2.5L 199 2.5Q 185.9 2.5  178.3-4.7Q 170.70000000000002-11.9  170.70000000000002-23.8L 170.70000000000002-23.8Q 170.70000000000002-39.9  181.05-49.95Q 191.4-60  207.40000000000003-60L 207.40000000000003-60Q 211-60  214.60000000000002-59.2L 214.60000000000002-59.2Q 215.70000000000002-55.9  215.8-51.7L 215.8-51.7Q 217.90000000000003-52.4  220-52.4ZM 207.70000000000002-38.5L 207.70000000000002-38.5Q 207.70000000000002-41.3  209.05-44.8Q 210.40000000000003-48.3  213.40000000000003-50.4L 213.40000000000003-50.4Q 200.20000000000002-47.6  195.20000000000002-39.7L 195.20000000000002-39.7Q 190.9-32.9  190.9-25.7Q 190.9-18.5  193.85000000000002-14.15Q 196.8-9.8  201.40000000000003-9.8L 201.40000000000003-9.8Q 211.60000000000002-9.8  215.8-23.1L 215.8-23.1Q 207.70000000000002-28.1  207.70000000000002-38.5ZM 243.20000000000005-9.9L 243.20000000000005-9.9Q 243.20000000000005-13.9  245.25000000000006-25.4Q 247.30000000000004-36.9  249.50000000000006-46.4L 249.50000000000006-46.4L 244.30000000000004-54.4Q 256.80000000000007-60  261.85-60Q 266.90000000000003-60  266.90000000000003-53.6L 266.90000000000003-53.6Q 266.90000000000003-50.1  263.6-39L 263.6-39L 264.6-38.5Q 271.80000000000007-60  282.50000000000006-60L 282.50000000000006-60Q 287.40000000000003-60  290.00000000000006-57Q 292.6-54  292.6-50.3L 292.6-50.3Q 292.6-44.8  288.50000000000006-40.9Q 284.40000000000003-37  276.20000000000005-37L 276.20000000000005-37Q 263.80000000000007-37  263.80000000000007-11.5L 263.80000000000007-11.5Q 263.80000000000007-5.3  265.90000000000003-2.4L 265.90000000000003-2.4Q 259.70000000000005 2.5  254.50000000000006 2.5L 254.50000000000006 2.5Q 243.20000000000005 2.5  243.20000000000005-9.9Z"></path></svg>