<svg xmlns="http://www.w3.org/2000/svg" width="512" height="512" viewBox="0 0 512 512" data-svgdocument="" id="_jpXixbEJDSElqbBmxKcnG" class="fl-svgdocument" x="0" y="0" style="overflow: visible;" xmlns:xlink="http://www.w3.org/1999/xlink"><defs id="_7nfRrmI0n56dAHwAjnuLq" transform="matrix(1.0526961375079895, 0, 0, 1.0526961375079895, -15.766103819796927, -17.07549480086821)"></defs><g id="_8d9ajovxEoNW1FfvkKAvn" transform="matrix(0.8125000744707103, 0, 0, 0.8125000744707103, 59.390247183330644, 47.99996205978754)"><polygon id="_a02iORwf7tqJ8lEfitnT1" points="7.8,54.7 10.1,53.6 7.3,49.8 " stroke="none" fill="#362C63" transform="matrix(2.847172975540161, 0, 0, 2.847172975540161, 98.928955078125, 41.86403274536133)"></polygon><polygon id="_YQoChixAHK7A6_ZbRk-FM" points="13.3,58 15.6,51.7 8.3,55.2 " stroke="none" fill="#362C63" transform="matrix(2.847172975540161, 0, 0, 2.847172975540161, 98.326171875, 43.406185150146484)"></polygon><polygon id="_VT3Ovta_3Ll_gyrg69TRC" points="67.7,17.6 62.3,31.2 68.9,31.3 72.7,26.8 " stroke="none" fill="#362C63" transform="matrix(2.847172975540161, 0, 0, 2.847172975540161, 99.74788665771484, 45.11572265625)"></polygon><path id="_CQ7qvGo8MxQ8OUsNjVznK" d="M74.1,21L69,17.9l4.6,8.5l12.8,2L74.1,21C74.2,21,74.1,21,74.1,21z" stroke="none" fill="#362C63" transform="matrix(2.847172975540161, 0, 0, 2.847172975540161, 99.17781066894531, 45.685157775878906)"></path><polygon id="_vMmUQBnumerXtSefQzXYD" points="69.9,43.9 68.7,32.3 61.9,32.2 57.4,43.4 " stroke="none" fill="#362C63" transform="matrix(2.847172975540161, 0, 0, 2.847172975540161, 99.46293640136719, 46.25376892089844)"></polygon><polygon id="_RmNxcNAMBXxTp4o2hBAba" points="84.5,5 72.5,18.8 74.3,19.9 " stroke="none" fill="#362C63" transform="matrix(2.847172975540161, 0, 0, 2.847172975540161, 99.17821502685547, 45.40093231201172)"></polygon><polygon id="_yBpW1dJDA56ShLOEv69O6" points="59.9,26.4 61.5,30.3 69.5,10.6 " stroke="none" fill="#362C63" transform="matrix(2.847172975540161, 0, 0, 2.847172975540161, 99.46334838867188, 45.115966796875)"></polygon><polygon id="_BlRBHUqnEyzK-e0I6tUdn" points="57.8,39.5 61,31.7 59.6,28.2 " stroke="none" fill="#362C63" transform="matrix(2.847172975540161, 0, 0, 2.847172975540161, 99.74789428710938, 43.40660095214844)"></polygon><polygon id="_03Y5vw39ObKM-_nk0kMBA" points="28.2,56.6 26.1,59.7 29,64.6 " stroke="none" fill="#362C63" transform="matrix(2.847172975540161, 0, 0, 2.847172975540161, 100.31880187988281, 45.114166259765625)"></polygon><polygon id="_nLla1Jb6Ah9K7Qtwmo6oH" points="14.4,57.5 20.7,54.9 21.8,50.7 16.6,51.5 " stroke="none" fill="#362C63" transform="matrix(2.847172975540161, 0, 0, 2.847172975540161, 98.4261474609375, 45.43246841430664)"></polygon><polygon id="_fe_LFVIsN65q_dBMlU8WC" points="22.8,51 21.8,54.8 27.1,54.6 " stroke="none" fill="#362C63" transform="matrix(2.847172975540161, 0, 0, 2.847172975540161, 99.74960327148438, 43.97537612915039)"></polygon><polygon id="_6WwJaJsrwVcp_ip5U-r3v" points="88.2,29.7 73.5,27.4 70.2,31.3 87.6,31.6 " stroke="none" fill="#362C63" transform="matrix(2.847172975540161, 0, 0, 2.847172975540161, 100.03209686279297, 44.261077880859375)"></polygon><polygon id="_To6AfQ934creaI78vllIf" points="71,44.2 77.6,50.9 70,34.8 " stroke="none" fill="#362C63" transform="matrix(2.847172975540161, 0, 0, 2.847172975540161, 99.17804718017578, 43.122371673583984)"></polygon><polygon id="_ka6A4UCIo44vHLI16sWPU" points="35,74.6 47.4,54.9 29.1,55.6 30.3,66.7 " stroke="none" fill="#362C63" transform="matrix(2.847172975540161, 0, 0, 2.847172975540161, 100.31878662109375, 44.259765625)"></polygon><path id="_cirmEai7zUHnkxO_ogoo_" d="M74.6,65.2C74.5,65.2,74.5,65.2,74.6,65.2c-0.1,0-0.1,0.1-0.1,0.1c0,0,0,0-0.1,0c0,0,0,0-0.1,0c0,0,0,0-0.1,0L66.8,66  l11.1,14.8l-1.8-16.9L74.6,65.2z" stroke="none" fill="#362C63" transform="matrix(2.847172975540161, 0, 0, 2.847172975540161, 99.7470703125, 45.683101654052734)"></path><polygon id="_9vLg2mb1L1WUlvXY7wNDZ" points="80.5,53.8 82.9,56.2 85.6,53.7 " stroke="none" fill="#362C63" transform="matrix(2.847172975540161, 0, 0, 2.847172975540161, 100.60078430175781, 43.40610885620117)"></polygon><path id="_aZKJE0MTSwVmHp1XllAC_" d="M70.3,45l-13.2-0.5l-1.1,7l18.2,12.7l1.9-1.8c0,0,0.1-0.1,0.1-0.1l5.9-5.4L70.3,45z" stroke="none" fill="#362C63" transform="matrix(2.847172975540161, 0, 0, 2.847172975540161, 100.60171508789062, 45.39945602416992)"></path><polygon id="_RAtT3yGu7DgLz_vDt1N3H" points="83.6,56.9 92.7,66.1 86.9,54 " stroke="none" fill="#362C63" transform="matrix(2.847172975540161, 0, 0, 2.847172975540161, 100.31617736816406, 45.39896774291992)"></polygon><polygon id="_32OsoSztNDoJbG0P6ooHX" points="52.6,66.3 54.8,52.5 48.7,54.8 36.4,74.3 " stroke="none" fill="#362C63" transform="matrix(2.847172975540161, 0, 0, 2.847172975540161, 99.4639892578125, 45.3990478515625)"></polygon><polygon id="_qt78rVMB30XuCpfVzwohY" points="31.9,81.4 45.1,93.6 35,76.6 " stroke="none" fill="#362C63" transform="matrix(2.847172975540161, 0, 0, 2.847172975540161, 99.46454620361328, 45.11358642578125)"></polygon><polygon id="_TZV2qsT03bQwdbZzuuMSW" points="79.1,82.3 84.8,89.7 78.4,75.8 " stroke="none" fill="#362C63" transform="matrix(2.847172975540161, 0, 0, 2.847172975540161, 99.46260070800781, 44.54341506958008)"></polygon><polygon id="_qgBElTB8LFrvXdsYqYXB_" points="55.8,52.6 53.7,66.1 72.7,64.4 " stroke="none" fill="#362C63" transform="matrix(2.847172975540161, 0, 0, 2.847172975540161, 100.03241729736328, 45.11383056640625)"></polygon><polygon id="_C0LVmVEp9dv8g1kEXOyiY" points="31.6,79.9 34.4,75.6 30.5,69.1 " stroke="none" fill="#362C63" transform="matrix(2.847172975540161, 0, 0, 2.847172975540161, 100.60350799560547, 45.11375045776367)"></polygon><polygon id="_jLlN8xA9R0mMw6PcvJ3pX" points="33.2,95 35,85.6 31.9,82.8 " stroke="none" fill="#362C63" transform="matrix(2.847172975540161, 0, 0, 2.847172975540161, 99.46432495117188, 43.120243072509766)"></polygon></g><path text="Random" text-anchor="middle" font-size="100" letter-spacing="0" side="left" offset="0.5" dx="0" dy="0" space="preserve" href="" font-family="Montez" font-scale="contain" transform="matrix(1.61720871925354, 0, 0, 1.61720871925354, 248.50015258789062, 386.952880859375)" x="0" y="0" fill="#000000" data-fl-textpath="" id="_Qf8cv8xA_D531zutCBV2-" d="M-105.8843359375-55.32L-105.8843359375-55.32Q-105.8843359375-54.83 -106.0043359375-54.47Q-106.1243359375-54.1 -106.2743359375-53.71L-106.2743359375-53.71Q-107.1043359375-51.76 -108.0343359375-49.88Q-108.9643359375-48 -109.4943359375-45.9L-109.4943359375-45.9Q-111.3043359375-38.57 -112.2043359375-31.1Q-113.1143359375-23.63 -113.40433593750001-16.06L-113.40433593750001-16.06Q-110.23433593749999-15.38 -107.7143359375-13.82Q-105.2043359375-12.26 -102.8043359375-10.11L-102.8043359375-10.11Q-98.1643359375-12.06 -94.3843359375-14.99Q-90.6043359375-17.92 -87.9143359375-21.73Q-85.23433593749999-25.54 -83.7643359375-30.18Q-82.3043359375-34.81 -82.3043359375-40.09L-82.3043359375-40.09Q-82.3043359375-43.02 -83.15433593750001-46.07Q-84.0043359375-49.12 -85.5443359375-52Q-87.0843359375-54.88 -89.20433593749999-57.42Q-91.3343359375-59.96 -93.92433593749999-61.84Q-96.5043359375-63.72 -99.4643359375-64.82Q-102.4143359375-65.92 -105.5943359375-65.92L-105.5943359375-65.92Q-108.6143359375-65.92 -111.8643359375-64.79Q-115.1143359375-63.67 -117.7943359375-61.65Q-120.48433593749999-59.62 -122.1943359375-56.79Q-123.9043359375-53.96 -123.9043359375-50.59L-123.9043359375-50.59Q-123.9043359375-49.27 -123.5843359375-48.22Q-123.2643359375-47.17 -122.9043359375-46.29Q-122.5343359375-45.41 -122.2143359375-44.65Q-121.90433593750001-43.9 -121.90433593750001-43.12L-121.90433593750001-43.12Q-121.90433593750001-41.7 -122.8543359375-40.75Q-123.8043359375-39.79 -125.1743359375-39.79L-125.1743359375-39.79Q-126.4443359375-39.79 -127.1743359375-40.48Q-127.9043359375-41.16 -128.3243359375-42.19Q-128.7343359375-43.21 -128.8543359375-44.36Q-128.9843359375-45.51 -128.9843359375-46.39L-128.9843359375-46.39Q-128.9843359375-50.68 -126.9243359375-54.15Q-124.8743359375-57.62 -121.65433593750001-60.4L-121.65433593750001-60.4Q-119.6043359375-62.16 -117.5243359375-63.48Q-115.4543359375-64.79 -113.23433593749999-65.72Q-111.0143359375-66.65 -108.6143359375-67.11Q-106.2243359375-67.58 -103.4943359375-67.58L-103.4943359375-67.58Q-99.5843359375-67.58 -95.9443359375-66.6Q-92.3143359375-65.63 -89.1143359375-63.82Q-85.9143359375-62.01 -83.2543359375-59.47Q-80.5943359375-56.93 -78.68433593750001-53.81Q-76.7843359375-50.68 -75.73433593749999-47.05Q-74.68433593750001-43.41 -74.68433593750001-39.4L-74.68433593750001-39.4Q-74.68433593750001-33.5 -76.8043359375-28.52Q-78.93433593750001-23.54 -82.5443359375-19.6Q-86.15433593750001-15.67 -90.9443359375-12.82Q-95.7243359375-9.96 -101.0043359375-8.35L-101.0043359375-8.35Q-100.4643359375-7.81 -99.9543359375-7.32Q-99.4343359375-6.84 -98.90433593750001-6.3L-98.90433593750001-6.3Q-95.9743359375-3.42 -93.0643359375-0.2Q-90.1643359375 3.03 -87.0843359375 6.2Q-84.0043359375 9.38 -80.73433593749999 12.28Q-77.46433593750001 15.19 -73.8043359375 17.41Q-70.1443359375 19.63 -66.0143359375 20.95Q-61.8943359375 22.27 -57.154335937499994 22.27L-57.154335937499994 22.27Q-56.324335937499995 22.27 -55.564335937500005 22.19Q-54.814335937500005 22.12 -53.984335937500006 21.88L-53.984335937500006 21.88L-53.734335937500006 22.85Q-55.8843359375 23.97 -58.2743359375 24.46Q-60.6643359375 24.95 -63.154335937499994 24.95L-63.154335937499994 24.95Q-68.3343359375 24.95 -72.5843359375 23.9Q-76.8343359375 22.85 -80.4443359375 20.95Q-84.0543359375 19.04 -87.1343359375 16.38Q-90.21433593750001 13.72 -93.0443359375 10.55Q-95.8743359375 7.37 -98.5843359375 3.78Q-101.2943359375 0.2 -104.1743359375-3.61L-104.1743359375-3.61Q-104.8143359375-4.44 -105.4243359375-5.3Q-106.0343359375-6.15 -106.6143359375-6.98L-106.6143359375-6.98Q-108.3743359375-6.69 -110.1043359375-6.52Q-111.8443359375-6.35 -113.5543359375-6.3L-113.5543359375-6.3Q-113.5543359375-0.34 -113.2543359375 5.47Q-112.9643359375 11.28 -112.5743359375 16.89L-112.5743359375 16.89L-113.5043359375 17.19Q-115.5043359375 12.01 -116.5543359375 5.86Q-117.6043359375-0.29 -118.1443359375-6.54L-118.1443359375-6.54Q-119.40433593750001-6.74 -120.6343359375-7.08Q-121.8543359375-7.42 -122.8543359375-8.03Q-123.8543359375-8.64 -124.4643359375-9.55Q-125.0743359375-10.45 -125.0743359375-11.72L-125.0743359375-11.72Q-125.0743359375-12.89 -124.4843359375-13.75Q-123.9043359375-14.6 -122.9443359375-15.16Q-121.9943359375-15.72 -120.8743359375-16.04Q-119.7543359375-16.36 -118.6243359375-16.46L-118.6243359375-16.46Q-118.6743359375-17.82 -118.6743359375-19.17Q-118.6743359375-20.51 -118.6743359375-21.78L-118.6743359375-21.78Q-118.6743359375-23.78 -118.65433593750001-26.76Q-118.6243359375-29.74 -118.40433593750001-33.11Q-118.1843359375-36.47 -117.7043359375-39.97Q-117.2143359375-43.46 -116.3543359375-46.53Q-115.5043359375-49.61 -114.1643359375-52Q-112.8143359375-54.39 -110.8643359375-55.52L-110.8643359375-55.52Q-110.1343359375-55.96 -109.2543359375-56.32Q-108.3743359375-56.69 -107.3943359375-56.69L-107.3943359375-56.69Q-105.8843359375-56.69 -105.8843359375-55.32ZM-123.3643359375-11.52L-123.3643359375-11.52Q-123.3643359375-10.84 -122.9243359375-10.3Q-122.4843359375-9.77 -121.7543359375-9.35Q-121.0243359375-8.94 -120.1143359375-8.64Q-119.2143359375-8.35 -118.23433593749999-8.15L-118.23433593749999-8.15Q-118.3343359375-9.81 -118.40433593750001-11.45Q-118.48433593749999-13.09 -118.5743359375-14.7L-118.5743359375-14.7Q-119.40433593750001-14.7 -120.2643359375-14.6Q-121.1143359375-14.5 -121.8043359375-14.16Q-122.4843359375-13.82 -122.9243359375-13.21Q-123.3643359375-12.6 -123.3643359375-11.52ZM-113.5543359375-7.71L-113.5543359375-7.71Q-112.0343359375-7.71 -110.5743359375-7.91Q-109.1043359375-8.11 -107.6943359375-8.45L-107.6943359375-8.45Q-108.9143359375-10.11 -110.3043359375-11.5Q-111.6943359375-12.89 -113.5043359375-13.72L-113.5043359375-13.72Q-113.5543359375-12.21 -113.5543359375-10.72Q-113.5543359375-9.23 -113.5543359375-7.71ZM-50.706289062500005-25.59L-50.706289062500005-25.59Q-50.706289062500005-25.05 -51.0962890625-24.63Q-51.4862890625-24.22 -52.0262890625-24.22L-52.0262890625-24.22Q-52.466289062499996-24.22 -52.956289062500005-24.49Q-53.4462890625-24.76 -54.0562890625-25.1Q-54.6662890625-25.44 -55.466289062499996-25.71Q-56.2762890625-25.98 -57.2962890625-25.98L-57.2962890625-25.98Q-59.6962890625-25.98 -61.5762890625-24.49Q-63.4562890625-23 -64.7462890625-20.8Q-66.0362890625-18.6 -66.7262890625-16.11Q-67.40628906250001-13.62 -67.40628906250001-11.62L-67.40628906250001-11.62Q-67.40628906250001-10.21 -67.1662890625-8.86Q-66.9162890625-7.52 -66.3062890625-6.42Q-65.6962890625-5.32 -64.6262890625-4.66Q-63.5462890625-4 -61.8862890625-4L-61.8862890625-4Q-60.1362890625-4 -58.5162890625-4.66Q-56.9062890625-5.32 -55.4962890625-6.4L-55.4962890625-6.4Q-55.4462890625-7.96 -54.9762890625-9.69Q-54.5162890625-11.43 -53.7862890625-13.11Q-53.0562890625-14.79 -52.0962890625-16.31Q-51.1462890625-17.82 -50.1262890625-18.99L-50.1262890625-18.99L-49.4862890625-18.6Q-50.0262890625-16.94 -50.2662890625-15.19Q-50.5162890625-13.43 -50.5162890625-11.72L-50.5162890625-11.72Q-50.5162890625-9.96 -50.216289062499996-8.4Q-49.926289062500004-6.84 -49.1962890625-5.69Q-48.466289062499996-4.54 -47.1962890625-3.88Q-45.926289062500004-3.22 -43.9162890625-3.22L-43.9162890625-3.22Q-41.4762890625-3.22 -39.4262890625-4.35Q-37.3762890625-5.47 -35.8162890625-7.18L-35.8162890625-7.18L-35.4262890625-6.98Q-36.3062890625-5.27 -37.7162890625-3.71Q-39.1362890625-2.15 -40.8662890625-0.9Q-42.6062890625 0.34 -44.5562890625 1.07Q-46.5062890625 1.81 -48.4162890625 1.81L-48.4162890625 1.81Q-51.0962890625 1.81 -52.8062890625 0.27Q-54.5162890625-1.27 -55.1562890625-3.61L-55.1562890625-3.61Q-57.206289062500005-1.56 -59.716289062499996-0.17Q-62.2362890625 1.22 -65.0162890625 1.22L-65.0162890625 1.22Q-67.0662890625 1.22 -68.6562890625 0.46Q-70.2362890625-0.29 -71.3162890625-1.56Q-72.3862890625-2.83 -72.9462890625-4.57Q-73.5062890625-6.3 -73.5062890625-8.2L-73.5062890625-8.2Q-73.5062890625-10.4 -72.8062890625-12.72Q-72.0962890625-15.04 -70.8462890625-17.29Q-69.6062890625-19.53 -67.8962890625-21.53Q-66.1862890625-23.54 -64.15628906250001-25.05Q-62.1362890625-26.56 -59.8862890625-27.44Q-57.6462890625-28.32 -55.2962890625-28.32L-55.2962890625-28.32Q-54.7562890625-28.32 -53.9762890625-28.2Q-53.1962890625-28.08 -52.466289062499996-27.78Q-51.7362890625-27.49 -51.216289062499996-26.95Q-50.706289062500005-26.42 -50.706289062500005-25.59ZM 4.032382812500003-7.18L 4.3723828125-6.98Q 3.4423828125-5.22  2.392382812500003-3.61Q 1.3423828124999986-2  0.022382812499998295-0.78Q-1.297617187500002 0.44 -2.9576171874999986 1.17Q-4.617617187500002 1.9 -6.767617187500001 1.9L-6.767617187500001 1.9Q-9.207617187499999 1.9 -10.957617187499999 0.71Q-12.7176171875-0.49 -13.9676171875-2.47Q-15.207617187499999-4.44 -15.9676171875-6.98Q-16.7276171875-9.52 -17.2076171875-12.16Q-17.6976171875-14.79 -17.9476171875-17.36Q-18.1876171875-19.92 -18.3876171875-21.97L-18.3876171875-21.97Q-19.3076171875-21.24 -20.6276171875-19.17Q-21.9476171875-17.09 -23.3176171875-14.31Q-24.677617187499997-11.52 -25.927617187499997-8.25Q-27.177617187499997-4.98 -27.9576171875-1.81L-27.9576171875-1.81Q-28.0976171875-1.12 -28.4176171875-0.39Q-28.7376171875 0.34 -29.1976171875 0.95Q-29.6676171875 1.56 -30.297617187500002 1.98Q-30.927617187499997 2.39 -31.7176171875 2.39L-31.7176171875 2.39Q-32.9876171875 2.39 -33.5476171875 1.51Q-34.1076171875 0.63 -34.3476171875-0.49L-34.3476171875-0.49Q-35.7676171875-6.69 -36.3276171875-12.35Q-36.8876171875-18.02 -36.8876171875-23.68L-36.8876171875-23.68Q-36.8876171875-25.05 -36.4276171875-26.05Q-35.9576171875-27.05 -35.1776171875-27.71Q-34.3976171875-28.37 -33.327617187499996-28.69Q-32.2476171875-29 -31.0776171875-29L-31.0776171875-29Q-30.927617187499997-29 -30.617617187500002-29Q-30.297617187500002-29 -30.0076171875-28.93Q-29.7076171875-28.86 -29.5176171875-28.71Q-29.317617187499998-28.56 -29.367617187500002-28.32L-29.367617187500002-28.32Q-30.6376171875-21.92 -30.5876171875-15.31Q-30.5376171875-8.69 -29.9076171875-2.59L-29.9076171875-2.59Q-29.367617187500002-5.03 -28.317617187499998-8.13Q-27.2676171875-11.23 -25.8776171875-14.38Q-24.4876171875-17.53 -22.8476171875-20.39Q-21.2176171875-23.24 -19.5076171875-25.2L-19.5076171875-25.2Q-18.6776171875-26.12 -17.8176171875-26.78Q-16.9676171875-27.44 -15.6976171875-27.44L-15.6976171875-27.44Q-14.9676171875-27.44 -14.477617187500002-27.15Q-13.9876171875-26.86 -13.6676171875-26.42Q-13.3576171875-25.98 -13.187617187499999-25.42Q-13.0176171875-24.85 -12.9176171875-24.32L-12.9176171875-24.32Q-12.6676171875-22.9 -12.427617187500001-20.65Q-12.177617187500001-18.41 -11.817617187500002-15.87Q-11.4476171875-13.33 -10.9176171875-10.77Q-10.3776171875-8.2 -9.547617187499998-6.13Q-8.7176171875-4.05 -7.547617187500002-2.73Q-6.367617187500002-1.42 -4.757617187500003-1.42L-4.757617187500003-1.42Q-3.4376171875000026-1.42 -2.1976171875000006-1.93Q-0.9476171875000006-2.44  0.17238281249999687-3.25Q 1.2923828125000014-4.05  2.2723828124999983-5.1Q 3.242382812499997-6.15  4.032382812500003-7.18L 4.032382812500003-7.18ZM 46.8473046875-7.18L 47.1473046875-6.98Q 46.3673046875-5.37  45.1873046875-4.08Q 44.0173046875-2.78  42.5573046875-1.88Q 41.0873046875-0.98  39.4273046875-0.49Q 37.7673046875 0  35.9573046875 0L 35.9573046875 0Q 32.1573046875 0  29.4873046875-1.86Q 26.8273046875-3.71  25.0273046875-6.69L 25.0273046875-6.69Q 23.7073046875-5.22  22.1173046875-3.78Q 20.5273046875-2.34  18.7473046875-1.25Q 16.9673046875-0.15  15.0673046875 0.54Q 13.1573046875 1.22  11.2573046875 1.22L 11.2573046875 1.22Q 8.9573046875 1.22  7.1573046875 0.29Q 5.3473046875-0.63  4.0773046875-2.17Q 2.8073046875-3.71  2.1273046875-5.69Q 1.4373046875-7.67  1.4373046875-9.81L 1.4373046875-9.81Q 1.4373046875-13.04  2.8773046875-16.31Q 4.3173046875-19.58  6.6873046875-22.24Q 9.0573046875-24.9  12.1373046875-26.56Q 15.2073046875-28.22  18.5273046875-28.22L 18.5273046875-28.22Q 19.5073046875-28.22  20.2373046875-28.03L 20.2373046875-28.03L 20.2373046875-30.08Q 20.2373046875-31.49  20.3373046875-33.84Q 20.4373046875-36.18  20.7273046875-39.04Q 21.0173046875-41.89  21.4873046875-45.04Q 21.9473046875-48.19  22.7073046875-51.29Q 23.4573046875-54.39  24.4873046875-57.2Q 25.5173046875-60.01  26.8773046875-62.13Q 28.2473046875-64.26  30.0073046875-65.53Q 31.7673046875-66.8  33.9573046875-66.8L 33.9573046875-66.8Q 36.5473046875-66.8  38.1573046875-65.28Q 39.7673046875-63.77  40.6973046875-61.55Q 41.6273046875-59.33  41.9473046875-56.84Q 42.2573046875-54.35  42.2573046875-52.39L 42.2573046875-52.39Q 42.2573046875-49.85  41.7773046875-46.51Q 41.2873046875-43.16  40.4073046875-39.43Q 39.5273046875-35.69  38.3073046875-31.79Q 37.0873046875-27.88  35.6673046875-24.27Q 34.2573046875-20.65  32.6173046875-17.55Q 30.9773046875-14.45  29.3173046875-12.3L 29.3173046875-12.3Q 29.9573046875-10.4  30.8573046875-8.79Q 31.7673046875-7.18  32.9873046875-6.01Q 34.2073046875-4.83  35.7673046875-4.17Q 37.3273046875-3.52  39.3273046875-3.52L 39.3273046875-3.52Q 43.9173046875-3.52  46.8473046875-7.18L 46.8473046875-7.18ZM 27.1273046875-34.18L 27.1273046875-34.18Q 27.1273046875-32.42  27.1273046875-30.1Q 27.1273046875-27.78  27.2473046875-25.2Q 27.3673046875-22.61  27.6873046875-19.9Q 28.0073046875-17.19  28.6373046875-14.65L 28.6373046875-14.65Q 30.6873046875-18.6  32.3973046875-23.32Q 34.1073046875-28.03  35.3473046875-32.98Q 36.5973046875-37.94  37.2773046875-42.87Q 37.9673046875-47.8  37.9673046875-52.2L 37.9673046875-52.2Q 37.9673046875-53.13  37.8673046875-54.88Q 37.7673046875-56.64  37.3273046875-58.37Q 36.8873046875-60.11  36.0073046875-61.4Q 35.1273046875-62.7  33.6173046875-62.7L 33.6173046875-62.7Q 32.4473046875-62.7  31.5173046875-61.6Q 30.5873046875-60.5  29.9073046875-58.67Q 29.2273046875-56.84  28.7573046875-54.49Q 28.2973046875-52.15  27.9773046875-49.61Q 27.6573046875-47.07  27.4873046875-44.58Q 27.3173046875-42.09  27.2473046875-39.97Q 27.1773046875-37.84  27.1473046875-36.3Q 27.1273046875-34.77  27.1273046875-34.18ZM 14.8173046875-4.1L 14.8173046875-4.1Q 17.6073046875-4.1  19.9673046875-5.18Q 22.3373046875-6.25  24.2873046875-8.01L 24.2873046875-8.01Q 23.3673046875-9.81  22.7073046875-11.89Q 22.0473046875-13.96  21.5773046875-16.09Q 21.1173046875-18.21  20.8473046875-20.36Q 20.5773046875-22.51  20.4373046875-24.51L 20.4373046875-24.51Q 19.8473046875-25.15  18.9673046875-25.56Q 18.0873046875-25.98  16.8173046875-25.98L 16.8173046875-25.98Q 14.5273046875-25.98  12.7473046875-24.73Q 10.9573046875-23.49  9.7373046875-21.61Q 8.5173046875-19.73  7.8873046875-17.5Q 7.2473046875-15.28  7.2473046875-13.28L 7.2473046875-13.28Q 7.2473046875-11.43  7.6673046875-9.74Q 8.0773046875-8.06  9.0073046875-6.81Q 9.9373046875-5.57  11.3773046875-4.83Q 12.8173046875-4.1  14.8173046875-4.1ZM 72.8807421875-14.4L 72.8807421875-14.4Q 72.8807421875-10.99  71.7507421875-8.06Q 70.6307421875-5.13  68.5807421875-2.98Q 66.5307421875-0.83  63.6707421875 0.39Q 60.8107421875 1.61  57.3507421875 1.61L 57.3507421875 1.61Q 54.2707421875 1.61  51.8107421875 0.46Q 49.3407421875-0.68  47.5807421875-2.64Q 45.8207421875-4.59  44.9007421875-7.2Q 43.9707421875-9.81  43.9707421875-12.79L 43.9707421875-12.79Q 43.9707421875-15.28  44.6807421875-17.53Q 45.3907421875-19.78  46.6507421875-21.7Q 47.9207421875-23.63  49.6807421875-25.27Q 51.4407421875-26.9  53.490742187500004-28.22L 53.490742187500004-28.22L 54.0807421875-27.78Q 52.030742187499996-25.39  50.8507421875-22.51Q 49.6807421875-19.63  49.6807421875-16.41L 49.6807421875-16.41Q 49.6807421875-14.06  50.3907421875-11.65Q 51.1007421875-9.23  52.4707421875-7.23Q 53.8307421875-5.22  55.8807421875-3.96Q 57.9307421875-2.69  60.5707421875-2.69L 60.5707421875-2.69Q 62.2307421875-2.69  63.7007421875-3.37Q 65.1607421875-4.05  66.2607421875-5.22Q 67.3607421875-6.4  68.0207421875-7.89Q 68.6807421875-9.38  68.6807421875-10.99L 68.6807421875-10.99Q 68.6807421875-12.55  68.2107421875-14.04Q 67.7507421875-15.53  66.9207421875-16.82Q 66.0907421875-18.12  64.9207421875-19.17Q 63.740742187500004-20.21  62.380742187500005-20.9L 62.380742187500005-20.9Q 61.6007421875-21.29  60.890742187499995-21.48Q 60.1807421875-21.68  59.3507421875-21.92L 59.3507421875-21.92Q 59.0107421875-21.97  58.6207421875-22.09Q 58.2307421875-22.22  57.8907421875-22.39Q 57.5407421875-22.56  57.3007421875-22.85Q 57.0507421875-23.14  57.0507421875-23.58L 57.0507421875-23.58Q 57.0507421875-24.46  57.6907421875-25.2Q 58.3207421875-25.93  59.2007421875-26.49Q 60.0807421875-27.05  61.0607421875-27.37Q 62.0407421875-27.69  62.770742187500005-27.69L 62.770742187500005-27.69Q 65.2607421875-27.69  67.1607421875-26.42Q 69.0707421875-25.15  70.3407421875-23.19Q 71.6107421875-21.24  72.2407421875-18.9Q 72.8807421875-16.55  72.8807421875-14.4ZM 134.5449609375-7.18L 134.8349609375-6.98Q 133.9649609375-5.22  132.7349609375-3.59Q 131.5149609375-1.95  130.00496093750002-0.68Q 128.4949609375 0.59  126.6649609375 1.34Q 124.82496093750001 2.1  122.6849609375 2.1L 122.6849609375 2.1Q 119.6549609375 2.1  117.7449609375 0.05Q 115.84496093749999-2  114.6449609375-5.3Q 113.4549609375-8.59  112.7649609375-12.77Q 112.0849609375-16.94  111.59496093749999-21.19L 111.59496093749999-21.19Q 110.4749609375-19.19  109.5249609375-17.02Q 108.56496093749999-14.84  107.6949609375-12.45Q 106.81496093749999-10.06  105.9349609375-7.52Q 105.0549609375-4.98  104.0249609375-2.29L 104.0249609375-2.29Q 103.7849609375-1.71  103.4949609375-1Q 103.1949609375-0.29  102.7349609375 0.37Q 102.2749609375 1.03  101.6349609375 1.46Q 101.0049609375 1.9  100.12496093749999 1.9L 100.12496093749999 1.9Q 99.4849609375 1.9  98.9949609375 1.61Q 98.5149609375 1.32  98.1449609375 0.9Q 97.7749609375 0.49  97.5049609375-0.02Q 97.2449609375-0.54  97.04496093750001-0.98L 97.04496093750001-0.98Q 96.0649609375-3.17  95.4849609375-5.47Q 94.8949609375-7.76  94.4849609375-10.21Q 94.0649609375-12.65  93.7749609375-15.38Q 93.4849609375-18.12  93.1849609375-21.19L 93.1849609375-21.19Q 92.1649609375-18.8  91.3549609375-16.63Q 90.5549609375-14.45  89.79496093750001-12.28Q 89.0349609375-10.11  88.2849609375-7.79Q 87.5249609375-5.47  86.6949609375-2.78L 86.6949609375-2.78Q 86.4949609375-2.15  86.2749609375-1.44Q 86.0549609375-0.73  85.7449609375-0.15Q 85.4249609375 0.44  84.9149609375 0.83Q 84.3949609375 1.22  83.6149609375 1.22L 83.6149609375 1.22Q 82.3449609375 1.22  81.7649609375 0.42Q 81.1749609375-0.39  80.7849609375-1.46L 80.7849609375-1.46Q 80.2049609375-2.93  79.6649609375-5.54Q 79.1249609375-8.15  78.6849609375-11.23Q 78.2449609375-14.31  78.0049609375-17.58Q 77.7549609375-20.85  77.7549609375-23.68L 77.7549609375-23.68Q 77.7549609375-26.42  79.2249609375-27.71Q 80.6849609375-29  83.0849609375-29L 83.0849609375-29Q 83.2249609375-29  83.5249609375-29Q 83.8149609375-29  84.1049609375-28.93Q 84.3949609375-28.86  84.6149609375-28.71Q 84.8349609375-28.56  84.79496093750001-28.32L 84.79496093750001-28.32Q 84.3549609375-24.9  84.2049609375-21.83Q 84.0549609375-18.75  84.1049609375-15.84Q 84.1549609375-12.94  84.4249609375-10.13Q 84.6949609375-7.32  85.1349609375-4.39L 85.1349609375-4.39Q 85.9649609375-7.18  86.7649609375-9.72Q 87.5749609375-12.26  88.4549609375-14.75Q 89.3349609375-17.24  90.3349609375-19.8Q 91.3349609375-22.36  92.5049609375-25.2L 92.5049609375-25.2Q 93.1349609375-26.66  93.8449609375-27.25Q 94.5549609375-27.83  95.6749609375-27.83L 95.6749609375-27.83Q 97.0949609375-27.83  97.9049609375-26.76Q 98.7049609375-25.68  98.9549609375-24.32L 98.9549609375-24.32Q 99.3449609375-21.83  99.6349609375-19.21Q 99.9249609375-16.6  100.2649609375-13.96Q 100.6149609375-11.33  101.0949609375-8.76Q 101.5849609375-6.2  102.3649609375-3.81L 102.3649609375-3.81Q 103.3449609375-6.35  104.3249609375-9.11Q 105.29496093750001-11.87  106.3249609375-14.65Q 107.34496093749999-17.43  108.4949609375-20.12Q 109.6449609375-22.8  110.9649609375-25.2L 110.9649609375-25.2Q 111.59496093749999-26.32  112.4049609375-27.08Q 113.2049609375-27.83  114.4249609375-27.83L 114.4249609375-27.83Q 115.1149609375-27.83  115.6449609375-27.51Q 116.1849609375-27.2  116.57496093750001-26.68Q 116.9649609375-26.17  117.2149609375-25.56Q 117.4549609375-24.95  117.5549609375-24.32L 117.5549609375-24.32Q 117.79496093750001-22.9  118.0149609375-20.65Q 118.2349609375-18.41  118.60496093750001-15.87Q 118.9649609375-13.33  119.5049609375-10.77Q 120.04496093750001-8.2  120.87496093749999-6.13Q 121.7049609375-4.05  122.87496093749999-2.73Q 124.04496093750001-1.42  125.7049609375-1.42L 125.7049609375-1.42Q 127.07496093750001-1.42  128.3449609375-1.93Q 129.6149609375-2.44  130.7349609375-3.25Q 131.8649609375-4.05  132.8149609375-5.1Q 133.7649609375-6.15  134.5449609375-7.18L 134.5449609375-7.18Z"></path></svg>